<?xml version="1.0" encoding="UTF-8" standalone="no"?>
<svg
   version="1.1"
   width="20"
   height="12"
   shape-rendering="crispEdges"
   id="svg31951"
   sodipodi:docname="cordoba.svg"
   inkscape:version="1.2 (dc2aedaf03, 2022-05-15)"
   xmlns:inkscape="http://www.inkscape.org/namespaces/inkscape"
   xmlns:sodipodi="http://sodipodi.sourceforge.net/DTD/sodipodi-0.dtd"
   xmlns="http://www.w3.org/2000/svg"
   xmlns:svg="http://www.w3.org/2000/svg">
  <defs
     id="defs31955">
    <inkscape:path-effect
       effect="fillet_chamfer"
       id="path-effect7954"
       is_visible="true"
       lpeversion="1"
       nodesatellites_param="F,1,0,1,0,0.25,0,1 @ F,1,0,1,0,0.25,0,1 @ F,1,0,1,0,0.25,0,1 @ F,1,0,1,0,0.25,0,1 @ F,1,0,1,0,0.25,0,1 @ F,1,0,1,0,0.25,0,1 @ F,1,0,1,0,0.25,0,1 @ F,1,0,1,0,0.25,0,1 @ F,1,0,1,0,0.25,0,1 @ F,1,0,1,0,0.25,0,1 @ F,1,0,1,0,0.25,0,1 @ F,1,0,1,0,0.25,0,1 @ F,1,0,1,0,0.25,0,1 @ F,1,0,1,0,0.25,0,1 @ F,1,0,1,0,0.25,0,1 @ F,1,0,1,0,0.25,0,1 @ F,1,0,1,0,0.25,0,1 @ F,1,0,1,0,0.25,0,1 @ F,1,0,1,0,0.25,0,1 @ F,1,0,1,0,0.25,0,1 @ F,1,0,1,0,0.25,0,1 @ F,1,0,1,0,0.25,0,1 @ F,1,0,1,0,0.25,0,1 @ F,1,0,1,0,0.25,0,1 @ F,1,0,1,0,0.25,0,1 @ F,1,0,1,0,0.25,0,1 @ F,1,0,1,0,0.25,0,1 @ F,1,0,1,0,0.25,0,1 @ F,1,0,1,0,0.25,0,1 @ F,1,0,1,0,0.25,0,1 @ F,1,0,1,0,0.25,0,1 @ F,1,0,1,0,0.25,0,1 @ F,1,0,1,0,0.25,0,1 @ F,1,0,1,0,0.25,0,1 @ F,1,0,1,0,0.25,0,1 @ F,1,0,1,0,0.25,0,1 @ F,1,0,1,0,0.25,0,1 @ F,1,0,1,0,0.25,0,1 @ F,1,0,1,0,0.25,0,1 @ F,1,0,1,0,0.25,0,1 @ F,1,0,1,0,0.25,0,1 @ F,1,0,1,0,0.25,0,1 @ F,1,0,1,0,0.25,0,1 @ F,1,0,1,0,0.25,0,1 @ F,1,0,1,0,0.25,0,1 @ F,1,0,1,0,0.25,0,1 @ F,1,0,1,0,0.25,0,1 @ F,1,0,1,0,0.25,0,1 @ F,1,0,1,0,0.25,0,1 @ F,1,0,1,0,0.25,0,1 @ F,1,0,1,0,0.25,0,1 @ F,1,0,1,0,0.25,0,1 @ F,1,0,1,0,0.25,0,1 @ F,1,0,1,0,0.25,0,1 @ F,1,0,1,0,0.25,0,1 @ F,1,0,1,0,0.25,0,1 @ F,1,0,1,0,0.25,0,1 @ F,1,0,1,0,0.25,0,1 @ F,1,0,1,0,0.25,0,1 @ F,1,0,1,0,0.25,0,1 @ F,1,0,1,0,0.25,0,1 @ F,1,0,1,0,0.25,0,1 @ F,1,0,1,0,0.25,0,1 @ F,1,0,1,0,0.25,0,1 @ F,1,0,1,0,0.25,0,1 @ F,1,0,1,0,0.25,0,1"
       unit="px"
       method="auto"
       mode="F"
       radius="25"
       chamfer_steps="1"
       flexible="true"
       use_knot_distance="true"
       apply_no_radius="true"
       apply_with_radius="true"
       only_selected="false"
       hide_knots="false" />
  </defs>
  <sodipodi:namedview
     id="namedview31953"
     pagecolor="#ffffff"
     bordercolor="#666666"
     borderopacity="1.0"
     inkscape:showpageshadow="2"
     inkscape:pageopacity="0.0"
     inkscape:pagecheckerboard="0"
     inkscape:deskcolor="#d1d1d1"
     showgrid="false"
     inkscape:zoom="12.650602"
     inkscape:cx="14.307619"
     inkscape:cy="3.7942857"
     inkscape:window-width="1366"
     inkscape:window-height="705"
     inkscape:window-x="-8"
     inkscape:window-y="-8"
     inkscape:window-maximized="1"
     inkscape:current-layer="svg31951">
    <sodipodi:guide
       position="-26,60"
       orientation="0,95"
       id="guide7946"
       inkscape:locked="false" />
    <sodipodi:guide
       position="69,60"
       orientation="83,0"
       id="guide7948"
       inkscape:locked="false" />
    <sodipodi:guide
       position="69,-23"
       orientation="0,-95"
       id="guide7950"
       inkscape:locked="false" />
    <sodipodi:guide
       position="-21.975238,19.272381"
       orientation="-83,0"
       id="guide7952"
       inkscape:locked="false" />
  </sodipodi:namedview>
  <path
     id="rect30489"
     d="m 0,0.25 v 0.5 1 1 A 0.25,0.25 45 0 0 0.25,3 h 0.5 A 0.25,0.25 45 0 1 1,3.25 v 0.5 A 0.25,0.25 45 0 0 1.25,4 h 0.5 A 0.25,0.25 45 0 1 2,4.25 v 0.5 1 1 A 0.25,0.25 45 0 0 2.25,7 h 0.5 A 0.25,0.25 45 0 1 3,7.25 v 0.5 1 A 0.25,0.25 45 0 0 3.25,9 h 0.5 A 0.25,0.25 45 0 1 4,9.25 v 0.5 A 0.25,0.25 45 0 0 4.25,10 h 0.5 A 0.25,0.25 45 0 1 5,10.25 v 0.5 1 A 0.25,0.25 45 0 0 5.25,12 h 0.5 1 A 0.25,0.25 135 0 0 7,11.75 v -0.5 A 0.25,0.25 135 0 1 7.25,11 h 0.5 1 1 1 A 0.25,0.25 135 0 0 11,10.75 v -0.5 A 0.25,0.25 135 0 1 11.25,10 h 0.5 1 1 1 1 1 A 0.25,0.25 135 0 0 17,9.75 V 9.25 A 0.25,0.25 135 0 1 17.25,9 h 0.5 A 0.25,0.25 135 0 0 18,8.75 v -0.5 -1 A 0.25,0.25 135 0 1 18.25,7 h 0.5 A 0.25,0.25 135 0 0 19,6.75 v -0.5 -1 A 0.25,0.25 135 0 1 19.25,5 h 0.5 A 0.25,0.25 135 0 0 20,4.75 v -0.5 -1 -1 A 0.25,0.25 45 0 0 19.75,2 h -0.5 -1 -1 -1 -1 A 0.25,0.25 135 0 0 15,2.25 v 0.5 A 0.25,0.25 135 0 1 14.75,3 h -0.5 -1 -1 -1 -1 -1 A 0.25,0.25 45 0 1 9,2.75 V 2.25 A 0.25,0.25 45 0 0 8.75,2 h -0.5 -1 A 0.25,0.25 45 0 1 7,1.75 V 1.25 A 0.25,0.25 45 0 0 6.75,1 h -0.5 -1 A 0.25,0.25 45 0 1 5,0.75 V 0.25 A 0.25,0.25 45 0 0 4.75,0 h -0.5 -1 -1 -1 -1 A 0.25,0.25 135 0 0 0,0.25 Z"
     inkscape:path-effect="#path-effect7954"
     inkscape:original-d="m 0,0 v 1 1 1 h 1 v 1 h 1 v 1 1 1 h 1 v 1 1 h 1 v 1 h 1 v 1 1 h 1 1 v -1 h 1 1 1 1 v -1 h 1 1 1 1 1 1 V 9 h 1 V 8 7 h 1 V 6 5 h 1 V 4 3 2 H 19 18 17 16 15 V 3 H 14 13 12 11 10 9 V 2 H 8 7 V 1 H 6 5 V 0 H 4 3 2 1 Z" />
</svg>
