<?xml version="1.0" encoding="UTF-8" standalone="no"?>
<svg
   version="1.1"
   width="14"
   height="16"
   shape-rendering="crispEdges"
   id="svg31951"
   sodipodi:docname="galicia.svg"
   inkscape:version="1.2 (dc2aedaf03, 2022-05-15)"
   xmlns:inkscape="http://www.inkscape.org/namespaces/inkscape"
   xmlns:sodipodi="http://sodipodi.sourceforge.net/DTD/sodipodi-0.dtd"
   xmlns="http://www.w3.org/2000/svg"
   xmlns:svg="http://www.w3.org/2000/svg">
  <defs
     id="defs31955">
    <inkscape:path-effect
       effect="fillet_chamfer"
       id="path-effect1626"
       is_visible="true"
       lpeversion="1"
       nodesatellites_param="F,1,0,1,0,0.25,0,1 @ F,1,0,1,0,0.25,0,1 @ F,1,0,1,0,0.25,0,1 @ F,1,0,1,0,0.25,0,1 @ F,1,0,1,0,0.25,0,1 @ F,1,0,1,0,0.25,0,1 @ F,1,0,1,0,0.25,0,1 @ F,1,0,1,0,0.25,0,1 @ F,1,0,1,0,0.25,0,1 @ F,1,0,1,0,0.25,0,1 @ F,1,0,1,0,0.25,0,1 @ F,1,0,1,0,0.25,0,1 @ F,1,0,1,0,0.25,0,1 @ F,1,0,1,0,0.25,0,1 @ F,1,0,1,0,0.25,0,1 @ F,1,0,1,0,0.25,0,1 @ F,1,0,1,0,0.25,0,1 @ F,1,0,1,0,0.25,0,1 @ F,1,0,1,0,0.25,0,1 @ F,1,0,1,0,0.25,0,1 @ F,1,0,1,0,0.25,0,1 @ F,1,0,1,0,0.25,0,1 @ F,1,0,1,0,0.25,0,1 @ F,1,0,1,0,0.25,0,1 @ F,1,0,1,0,0.25,0,1 @ F,1,0,1,0,0.25,0,1 @ F,1,0,1,0,0.25,0,1 @ F,1,0,1,0,0.25,0,1 @ F,1,0,1,0,0.25,0,1 @ F,1,0,1,0,0.25,0,1 @ F,1,0,1,0,0.25,0,1 @ F,1,0,1,0,0.25,0,1 @ F,1,0,1,0,0.25,0,1 @ F,1,0,1,0,0.25,0,1 @ F,1,0,1,0,0.25,0,1 @ F,1,0,1,0,0.25,0,1 @ F,1,0,1,0,0.25,0,1 @ F,1,0,1,0,0.25,0,1 @ F,1,0,1,0,0.25,0,1 @ F,1,0,1,0,0.25,0,1 @ F,1,0,1,0,0.25,0,1 @ F,1,0,1,0,0.25,0,1 @ F,1,0,1,0,0.25,0,1 @ F,1,0,1,0,0.25,0,1 @ F,1,0,1,0,0.25,0,1 @ F,1,0,1,0,0.25,0,1 @ F,1,0,1,0,0.25,0,1 @ F,1,0,1,0,0.25,0,1 @ F,1,0,1,0,0.25,0,1 @ F,1,0,1,0,0.25,0,1 @ F,1,0,1,0,0.25,0,1 @ F,1,0,1,0,0.25,0,1 @ F,1,0,1,0,0.25,0,1 @ F,1,0,1,0,0.25,0,1 @ F,1,0,1,0,0.25,0,1 @ F,1,0,1,0,0.25,0,1 @ F,1,0,1,0,0.25,0,1 @ F,1,0,1,0,0.25,0,1 @ F,1,0,1,0,0.25,0,1 @ F,1,0,1,0,0.25,0,1 @ F,1,0,1,0,0.25,0,1 @ F,1,0,1,0,0.25,0,1 @ F,1,0,1,0,0.25,0,1 @ F,1,0,1,0,0.25,0,1 @ F,1,0,1,0,0.25,0,1 @ F,1,0,1,0,0.25,0,1 | F,1,0,1,0,0.25,0,1 @ F,1,0,1,0,0.25,0,1 @ F,1,0,1,0,0.25,0,1 @ F,1,0,1,0,0.25,0,1"
       unit="px"
       method="auto"
       mode="F"
       radius="25"
       chamfer_steps="1"
       flexible="true"
       use_knot_distance="true"
       apply_no_radius="true"
       apply_with_radius="true"
       only_selected="false"
       hide_knots="false" />
  </defs>
  <sodipodi:namedview
     id="namedview31953"
     pagecolor="#ffffff"
     bordercolor="#666666"
     borderopacity="1.0"
     inkscape:showpageshadow="2"
     inkscape:pageopacity="0.0"
     inkscape:pagecheckerboard="0"
     inkscape:deskcolor="#d1d1d1"
     showgrid="false"
     inkscape:zoom="25.301205"
     inkscape:cx="10.79"
     inkscape:cy="8.7347619"
     inkscape:window-width="1366"
     inkscape:window-height="705"
     inkscape:window-x="-8"
     inkscape:window-y="-8"
     inkscape:window-maximized="1"
     inkscape:current-layer="svg31951" />
  <path
     id="rect25831"
     d="m 9,0.25 v 0.5 A 0.25,0.25 135 0 1 8.75,1 h -0.5 -1 A 0.25,0.25 135 0 0 7,1.25 v 0.5 1 A 0.25,0.25 135 0 1 6.75,3 H 6.25 A 0.25,0.25 45 0 1 6,2.75 V 2.25 A 0.25,0.25 45 0 0 5.75,2 H 5.25 A 0.25,0.25 135 0 0 5,2.25 v 0.5 A 0.25,0.25 135 0 1 4.75,3 h -0.5 -1 -1 -1 A 0.25,0.25 135 0 0 1,3.25 v 0.5 A 0.25,0.25 135 0 1 0.75,4 H 0.25 A 0.25,0.25 135 0 0 0,4.25 v 0.5 1 A 0.25,0.25 45 0 0 0.25,6 h 0.5 1 A 0.25,0.25 45 0 1 2,6.25 v 0.5 1 A 0.25,0.25 135 0 1 1.75,8 H 1.25 A 0.25,0.25 135 0 0 1,8.25 v 0.5 1 1 1 A 0.25,0.25 135 0 1 0.75,12 H 0.25 A 0.25,0.25 135 0 0 0,12.25 v 0.5 A 0.25,0.25 45 0 0 0.25,13 h 0.5 1 1 1 A 0.25,0.25 45 0 1 4,13.25 v 0.5 A 0.25,0.25 45 0 0 4.25,14 h 0.5 A 0.25,0.25 45 0 1 5,14.25 v 0.5 A 0.25,0.25 45 0 0 5.25,15 h 0.5 1 A 0.25,0.25 45 0 1 7,15.25 v 0.5 A 0.25,0.25 45 0 0 7.25,16 h 0.5 1 1 1 1 A 0.25,0.25 135 0 0 12,15.75 v -0.5 -1 -1 -1 -1 -1 A 0.25,0.25 135 0 1 12.25,10 h 0.5 A 0.25,0.25 135 0 0 13,9.75 v -0.5 -1 -1 -1 A 0.25,0.25 135 0 1 13.25,6 h 0.5 A 0.25,0.25 135 0 0 14,5.75 v -0.5 -1 -1 A 0.25,0.25 45 0 0 13.75,3 h -0.5 A 0.25,0.25 45 0 1 13,2.75 V 2.25 A 0.25,0.25 45 0 0 12.75,2 h -0.5 -1 A 0.25,0.25 45 0 1 11,1.75 V 1.25 A 0.25,0.25 45 0 0 10.75,1 h -0.5 A 0.25,0.25 45 0 1 10,0.75 V 0.25 A 0.25,0.25 45 0 0 9.75,0 H 9.25 A 0.25,0.25 135 0 0 9,0.25 Z M 1,7.75 V 7.25 A 0.25,0.25 45 0 0 0.75,7 H 0.25 A 0.25,0.25 135 0 0 0,7.25 v 0.5 A 0.25,0.25 45 0 0 0.25,8 h 0.5 A 0.25,0.25 135 0 0 1,7.75 Z"
     style="fill:#000000"
     inkscape:path-effect="#path-effect1626"
     inkscape:original-d="M 9,0 V 1 H 8 7 V 2 3 H 6 V 2 H 5 V 3 H 4 3 2 1 V 4 H 0 V 5 6 H 1 2 V 7 8 H 1 v 1 1 1 1 H 0 v 1 h 1 1 1 1 v 1 h 1 v 1 h 1 1 v 1 h 1 1 1 1 1 v -1 -1 -1 -1 -1 -1 h 1 V 9 8 7 6 h 1 V 5 4 3 H 13 V 2 H 12 11 V 1 H 10 V 0 Z M 1,8 V 7 H 0 v 1 z" />
</svg>
