<?xml version="1.0" encoding="UTF-8" standalone="no"?>
<svg
   version="1.1"
   width="12"
   height="9"
   shape-rendering="crispEdges"
   id="svg31951"
   sodipodi:docname="murica.svg"
   inkscape:version="1.2 (dc2aedaf03, 2022-05-15)"
   xmlns:inkscape="http://www.inkscape.org/namespaces/inkscape"
   xmlns:sodipodi="http://sodipodi.sourceforge.net/DTD/sodipodi-0.dtd"
   xmlns="http://www.w3.org/2000/svg"
   xmlns:svg="http://www.w3.org/2000/svg">
  <defs
     id="defs31955">
    <inkscape:path-effect
       effect="fillet_chamfer"
       id="path-effect9146"
       is_visible="true"
       lpeversion="1"
       nodesatellites_param="F,1,0,1,0,0.25,0,1 @ F,1,0,1,0,0.25,0,1 @ F,1,0,1,0,0.25,0,1 @ F,1,0,1,0,0.25,0,1 @ F,1,0,1,0,0.25,0,1 @ F,1,0,1,0,0.25,0,1 @ F,1,0,1,0,0.25,0,1 @ F,1,0,1,0,0.25,0,1 @ F,1,0,1,0,0.25,0,1 @ F,1,0,1,0,0.25,0,1 @ F,1,0,1,0,0.25,0,1 @ F,1,0,1,0,0.25,0,1 @ F,1,0,1,0,0.25,0,1 @ F,1,0,1,0,0.25,0,1 @ F,1,0,1,0,0.25,0,1 @ F,1,0,1,0,0.25,0,1 @ F,1,0,1,0,0.25,0,1 @ F,1,0,1,0,0.25,0,1 @ F,1,0,1,0,0.25,0,1 @ F,1,0,1,0,0.25,0,1 @ F,1,0,1,0,0.25,0,1 @ F,1,0,1,0,0.25,0,1 @ F,1,0,1,0,0.25,0,1 @ F,1,0,1,0,0.25,0,1 @ F,1,0,1,0,0.25,0,1 @ F,1,0,1,0,0.25,0,1 @ F,1,0,1,0,0.25,0,1 @ F,1,0,1,0,0.25,0,1 @ F,1,0,1,0,0.25,0,1 @ F,1,0,1,0,0.25,0,1 @ F,1,0,1,0,0.25,0,1 @ F,1,0,1,0,0.25,0,1 @ F,1,0,1,0,0.25,0,1 @ F,1,0,1,0,0.25,0,1 @ F,1,0,1,0,0.25,0,1 @ F,1,0,1,0,0.25,0,1 @ F,1,0,1,0,0.25,0,1 @ F,1,0,1,0,0.25,0,1 @ F,1,0,1,0,0.25,0,1 @ F,1,0,1,0,0.25,0,1 @ F,1,0,1,0,0.25,0,1 @ F,1,0,1,0,0.25,0,1 @ F,1,0,1,0,0.25,0,1 @ F,1,0,1,0,0.25,0,1"
       unit="px"
       method="auto"
       mode="F"
       radius="25"
       chamfer_steps="1"
       flexible="true"
       use_knot_distance="true"
       apply_no_radius="true"
       apply_with_radius="true"
       only_selected="false"
       hide_knots="false" />
  </defs>
  <sodipodi:namedview
     id="namedview31953"
     pagecolor="#ffffff"
     bordercolor="#666666"
     borderopacity="1.0"
     inkscape:showpageshadow="2"
     inkscape:pageopacity="0.0"
     inkscape:pagecheckerboard="0"
     inkscape:deskcolor="#d1d1d1"
     showgrid="false"
     inkscape:zoom="17.890654"
     inkscape:cx="3.130126"
     inkscape:cy="2.7388603"
     inkscape:window-width="1366"
     inkscape:window-height="705"
     inkscape:window-x="-8"
     inkscape:window-y="-8"
     inkscape:window-maximized="1"
     inkscape:current-layer="svg31951" />
  <path
     id="rect31091"
     d="m 8,0.25 v 0.5 A 0.25,0.25 135 0 1 7.75,1 H 7.25 A 0.25,0.25 135 0 0 7,1.25 v 0.5 A 0.25,0.25 135 0 1 6.75,2 H 6.25 A 0.25,0.25 135 0 0 6,2.25 v 0.5 A 0.25,0.25 135 0 1 5.75,3 h -0.5 -1 -1 -1 A 0.25,0.25 45 0 1 2,2.75 V 2.25 A 0.25,0.25 45 0 0 1.75,2 H 1.25 A 0.25,0.25 135 0 0 1,2.25 v 0.5 A 0.25,0.25 135 0 1 0.75,3 H 0.25 A 0.25,0.25 135 0 0 0,3.25 v 0.5 1 1 1 A 0.25,0.25 45 0 0 0.25,7 h 0.5 A 0.25,0.25 45 0 1 1,7.25 v 0.5 1 A 0.25,0.25 45 0 0 1.25,9 h 0.5 1 1 1 1 1 1 A 0.25,0.25 135 0 0 8,8.75 v -0.5 -1 A 0.25,0.25 135 0 1 8.25,7 h 0.5 A 0.25,0.25 135 0 0 9,6.75 v -0.5 -1 A 0.25,0.25 135 0 1 9.25,5 h 0.5 A 0.25,0.25 135 0 0 10,4.75 V 4.25 A 0.25,0.25 135 0 1 10.25,4 h 0.5 A 0.25,0.25 135 0 0 11,3.75 V 3.25 A 0.25,0.25 135 0 1 11.25,3 h 0.5 A 0.25,0.25 135 0 0 12,2.75 v -0.5 -1 A 0.25,0.25 45 0 0 11.75,1 h -0.5 -1 A 0.25,0.25 45 0 1 10,0.75 V 0.25 A 0.25,0.25 45 0 0 9.75,0 h -0.5 -1 A 0.25,0.25 135 0 0 8,0.25 Z"
     inkscape:path-effect="#path-effect9146"
     inkscape:original-d="M 8,0 V 1 H 7 V 2 H 6 V 3 H 5 4 3 2 V 2 H 1 V 3 H 0 V 4 5 6 7 H 1 V 8 9 H 2 3 4 5 6 7 8 V 8 7 H 9 V 6 5 h 1 V 4 h 1 V 3 h 1 V 2 1 H 11 10 V 0 H 9 Z" />
</svg>
