<?xml version="1.0" encoding="UTF-8" standalone="no"?>
<svg
   version="1.1"
   width="25"
   height="27"
   shape-rendering="crispEdges"
   id="svg31951"
   sodipodi:docname="portugal.svg"
   inkscape:version="1.2 (dc2aedaf03, 2022-05-15)"
   xmlns:inkscape="http://www.inkscape.org/namespaces/inkscape"
   xmlns:sodipodi="http://sodipodi.sourceforge.net/DTD/sodipodi-0.dtd"
   xmlns="http://www.w3.org/2000/svg"
   xmlns:svg="http://www.w3.org/2000/svg">
  <defs
     id="defs31955">
    <inkscape:path-effect
       effect="fillet_chamfer"
       id="path-effect6480"
       is_visible="true"
       lpeversion="1"
       nodesatellites_param="F,1,0,1,0,0.25,0,1 @ F,1,0,1,0,0.25,0,1 @ F,1,0,1,0,0.25,0,1 @ F,1,0,1,0,0.25,0,1 @ F,1,0,1,0,0.25,0,1 @ F,1,0,1,0,0.25,0,1 @ F,1,0,1,0,0.25,0,1 @ F,1,0,1,0,0.25,0,1 @ F,1,0,1,0,0.25,0,1 @ F,1,0,1,0,0.25,0,1 @ F,1,0,1,0,0.25,0,1 @ F,1,0,1,0,0.25,0,1 @ F,1,0,1,0,0.25,0,1 @ F,1,0,1,0,0.25,0,1 @ F,1,0,1,0,0.25,0,1 @ F,1,0,1,0,0.25,0,1 @ F,1,0,1,0,0.25,0,1 @ F,1,0,1,0,0.25,0,1 @ F,1,0,1,0,0.25,0,1 @ F,1,0,1,0,0.25,0,1 @ F,1,0,1,0,0.25,0,1 @ F,1,0,1,0,0.25,0,1 @ F,1,0,1,0,0.25,0,1 @ F,1,0,1,0,0.25,0,1 @ F,1,0,1,0,0.25,0,1 @ F,1,0,1,0,0.25,0,1 @ F,1,0,1,0,0.25,0,1 @ F,1,0,1,0,0.25,0,1 @ F,1,0,1,0,0.25,0,1 @ F,1,0,1,0,0.25,0,1 @ F,1,0,1,0,0.25,0,1 @ F,1,0,1,0,0.25,0,1 @ F,1,0,1,0,0.25,0,1 @ F,1,0,1,0,0.25,0,1 @ F,1,0,1,0,0.25,0,1 @ F,1,0,1,0,0.25,0,1 @ F,1,0,1,0,0.25,0,1 @ F,1,0,1,0,0.25,0,1 @ F,1,0,1,0,0.25,0,1 @ F,1,0,1,0,0.25,0,1 @ F,1,0,1,0,0.25,0,1 @ F,1,0,1,0,0.25,0,1 @ F,1,0,1,0,0.25,0,1 @ F,1,0,1,0,0.25,0,1 @ F,1,0,1,0,0.25,0,1 @ F,1,0,1,0,0.25,0,1 @ F,1,0,1,0,0.25,0,1 @ F,1,0,1,0,0.25,0,1 @ F,1,0,1,0,0.25,0,1 @ F,1,0,1,0,0.25,0,1 @ F,1,0,1,0,0.25,0,1 @ F,1,0,1,0,0.25,0,1 @ F,1,0,1,0,0.25,0,1 @ F,1,0,1,0,0.25,0,1 @ F,1,0,1,0,0.25,0,1 @ F,1,0,1,0,0.25,0,1 @ F,1,0,1,0,0.25,0,1 @ F,1,0,1,0,0.25,0,1 @ F,1,0,1,0,0.25,0,1 @ F,1,0,1,0,0.25,0,1 @ F,1,0,1,0,0.25,0,1 @ F,1,0,1,0,0.25,0,1 @ F,1,0,1,0,0.25,0,1 @ F,1,0,1,0,0.25,0,1 @ F,1,0,1,0,0.25,0,1 @ F,1,0,1,0,0.25,0,1 @ F,1,0,1,0,0.25,0,1 @ F,1,0,1,0,0.25,0,1 @ F,1,0,1,0,0.25,0,1 @ F,1,0,1,0,0.25,0,1 @ F,1,0,1,0,0.25,0,1 @ F,1,0,1,0,0.25,0,1 @ F,1,0,1,0,0.25,0,1 @ F,1,0,1,0,0.25,0,1 @ F,1,0,1,0,0.25,0,1 @ F,1,0,1,0,0.25,0,1 @ F,1,0,1,0,0.25,0,1 @ F,1,0,1,0,0.25,0,1 @ F,1,0,1,0,0.25,0,1 @ F,1,0,1,0,0.25,0,1 @ F,1,0,1,0,0.25,0,1 @ F,1,0,1,0,0.25,0,1 @ F,1,0,1,0,0.25,0,1 @ F,1,0,1,0,0.25,0,1 @ F,1,0,1,0,0.25,0,1 @ F,1,0,1,0,0.25,0,1 @ F,1,0,1,0,0.25,0,1 @ F,1,0,1,0,0.25,0,1 @ F,1,0,1,0,0.25,0,1 @ F,1,0,1,0,0.25,0,1 @ F,1,0,1,0,0.25,0,1 @ F,1,0,1,0,0.25,0,1 @ F,1,0,1,0,0.25,0,1 @ F,1,0,1,0,0.25,0,1 @ F,1,0,1,0,0.25,0,1 @ F,1,0,1,0,0.25,0,1 @ F,1,0,1,0,0.25,0,1 @ F,1,0,1,0,0.25,0,1 @ F,1,0,1,0,0.25,0,1 @ F,1,0,1,0,0.25,0,1 @ F,1,0,1,0,0.25,0,1 @ F,1,0,1,0,0.25,0,1 @ F,1,0,1,0,0.25,0,1 @ F,1,0,1,0,0.25,0,1 @ F,1,0,1,0,0.25,0,1 @ F,1,0,1,0,0.25,0,1"
       unit="px"
       method="auto"
       mode="F"
       radius="25"
       chamfer_steps="1"
       flexible="true"
       use_knot_distance="true"
       apply_no_radius="true"
       apply_with_radius="true"
       only_selected="false"
       hide_knots="false" />
  </defs>
  <sodipodi:namedview
     id="namedview31953"
     pagecolor="#ffffff"
     bordercolor="#666666"
     borderopacity="1.0"
     inkscape:showpageshadow="2"
     inkscape:pageopacity="0.0"
     inkscape:pagecheckerboard="0"
     inkscape:deskcolor="#d1d1d1"
     showgrid="false"
     inkscape:zoom="12.650602"
     inkscape:cx="12.252381"
     inkscape:cy="16.6"
     inkscape:window-width="1366"
     inkscape:window-height="705"
     inkscape:window-x="-8"
     inkscape:window-y="-8"
     inkscape:window-maximized="1"
     inkscape:current-layer="svg31951" />
  <path
     id="rect26485"
     d="m 12,0.25 v 0.5 A 0.25,0.25 135 0 1 11.75,1 h -0.5 -1 A 0.25,0.25 135 0 0 10,1.25 v 0.5 1 1 1 1 1 1 A 0.25,0.25 135 0 1 9.75,8 H 9.25 A 0.25,0.25 135 0 0 9,8.25 v 0.5 1 A 0.25,0.25 135 0 1 8.75,10 H 8.25 A 0.25,0.25 135 0 0 8,10.25 v 0.5 1 A 0.25,0.25 135 0 1 7.75,12 H 7.25 A 0.25,0.25 135 0 0 7,12.25 v 0.5 A 0.25,0.25 135 0 1 6.75,13 H 6.25 A 0.25,0.25 135 0 0 6,13.25 v 0.5 1 1 A 0.25,0.25 135 0 1 5.75,16 H 5.25 A 0.25,0.25 135 0 0 5,16.25 v 0.5 A 0.25,0.25 135 0 1 4.75,17 H 4.25 A 0.25,0.25 135 0 0 4,17.25 v 0.5 A 0.25,0.25 135 0 1 3.75,18 H 3.25 A 0.25,0.25 135 0 0 3,18.25 v 0.5 A 0.25,0.25 135 0 1 2.75,19 H 2.25 A 0.25,0.25 135 0 0 2,19.25 v 0.5 A 0.25,0.25 135 0 1 1.75,20 H 1.25 A 0.25,0.25 135 0 0 1,20.25 v 0.5 1 A 0.25,0.25 135 0 1 0.75,22 H 0.25 A 0.25,0.25 135 0 0 0,22.25 v 0.5 1 A 0.25,0.25 45 0 0 0.25,24 h 0.5 A 0.25,0.25 45 0 1 1,24.25 v 0.5 A 0.25,0.25 45 0 0 1.25,25 h 0.5 A 0.25,0.25 45 0 1 2,25.25 v 0.5 A 0.25,0.25 135 0 1 1.75,26 H 1.25 A 0.25,0.25 135 0 0 1,26.25 v 0.5 A 0.25,0.25 45 0 0 1.25,27 h 0.5 1 A 0.25,0.25 135 0 0 3,26.75 v -0.5 A 0.25,0.25 135 0 1 3.25,26 h 0.5 A 0.25,0.25 135 0 0 4,25.75 v -0.5 -1 A 0.25,0.25 135 0 1 4.25,24 h 0.5 A 0.25,0.25 135 0 0 5,23.75 v -0.5 A 0.25,0.25 135 0 1 5.25,23 h 0.5 A 0.25,0.25 135 0 0 6,22.75 v -0.5 A 0.25,0.25 135 0 1 6.25,22 h 0.5 1 A 0.25,0.25 135 0 0 8,21.75 v -0.5 A 0.25,0.25 135 0 1 8.25,21 h 0.5 1 1 A 0.25,0.25 135 0 0 11,20.75 v -0.5 A 0.25,0.25 135 0 1 11.25,20 h 0.5 1 1 1 A 0.25,0.25 135 0 0 15,19.75 v -0.5 A 0.25,0.25 135 0 1 15.25,19 h 0.5 1 A 0.25,0.25 135 0 0 17,18.75 v -0.5 -1 A 0.25,0.25 135 0 1 17.25,17 h 0.5 A 0.25,0.25 135 0 0 18,16.75 v -0.5 -1 -1 A 0.25,0.25 135 0 1 18.25,14 h 0.5 A 0.25,0.25 135 0 0 19,13.75 v -0.5 -1 A 0.25,0.25 135 0 1 19.25,12 h 0.5 A 0.25,0.25 135 0 0 20,11.75 v -0.5 -1 A 0.25,0.25 135 0 1 20.25,10 h 0.5 A 0.25,0.25 135 0 0 21,9.75 V 9.25 A 0.25,0.25 135 0 1 21.25,9 h 0.5 A 0.25,0.25 135 0 0 22,8.75 V 8.25 A 0.25,0.25 135 0 1 22.25,8 h 0.5 1 A 0.25,0.25 135 0 0 24,7.75 V 7.25 A 0.25,0.25 135 0 1 24.25,7 h 0.5 A 0.25,0.25 135 0 0 25,6.75 v -0.5 -1 A 0.25,0.25 45 0 0 24.75,5 h -0.5 A 0.25,0.25 45 0 1 24,4.75 V 4.25 A 0.25,0.25 45 0 0 23.75,4 h -0.5 A 0.25,0.25 45 0 1 23,3.75 V 3.25 A 0.25,0.25 45 0 0 22.75,3 h -0.5 -1 -1 -1 -1 A 0.25,0.25 45 0 1 18,2.75 V 2.25 A 0.25,0.25 45 0 0 17.75,2 h -0.5 -1 A 0.25,0.25 45 0 1 16,1.75 V 1.25 A 0.25,0.25 45 0 0 15.75,1 h -0.5 -1 A 0.25,0.25 45 0 1 14,0.75 V 0.25 A 0.25,0.25 45 0 0 13.75,0 h -0.5 -1 A 0.25,0.25 135 0 0 12,0.25 Z"
     inkscape:path-effect="#path-effect6480"
     inkscape:original-d="M 12,0 V 1 H 11 10 V 2 3 4 5 6 7 8 H 9 v 1 1 H 8 v 1 1 H 7 v 1 H 6 v 1 1 1 H 5 v 1 H 4 v 1 H 3 v 1 H 2 v 1 H 1 v 1 1 H 0 v 1 1 h 1 v 1 h 1 v 1 H 1 v 1 h 1 1 v -1 h 1 v -1 -1 h 1 v -1 h 1 v -1 h 1 1 v -1 h 1 1 1 v -1 h 1 1 1 1 v -1 h 1 1 v -1 -1 h 1 v -1 -1 -1 h 1 v -1 -1 h 1 v -1 -1 h 1 V 9 h 1 V 8 h 1 1 V 7 h 1 V 6 5 H 24 V 4 H 23 V 3 H 22 21 20 19 18 V 2 H 17 16 V 1 H 15 14 V 0 h -1 z" />
</svg>
