<?xml version="1.0" encoding="UTF-8" standalone="no"?>
<svg
   version="1.1"
   width="14"
   height="21"
   shape-rendering="crispEdges"
   id="svg31951"
   sodipodi:docname="valencia.svg"
   inkscape:version="1.2 (dc2aedaf03, 2022-05-15)"
   xmlns:inkscape="http://www.inkscape.org/namespaces/inkscape"
   xmlns:sodipodi="http://sodipodi.sourceforge.net/DTD/sodipodi-0.dtd"
   xmlns="http://www.w3.org/2000/svg"
   xmlns:svg="http://www.w3.org/2000/svg">
  <defs
     id="defs31955">
    <inkscape:path-effect
       effect="fillet_chamfer"
       id="path-effect6096"
       is_visible="true"
       lpeversion="1"
       nodesatellites_param="F,1,0,1,0,0.27,0,1 @ F,1,0,1,0,0.27,0,1 @ F,1,0,1,0,0.27,0,1 @ F,1,0,1,0,0.27,0,1 @ F,1,0,1,0,0.27,0,1 @ F,1,0,1,0,0.27,0,1 @ F,1,0,1,0,0.27,0,1 @ F,1,0,1,0,0.27,0,1 @ F,1,0,1,0,0.27,0,1 @ F,1,0,1,0,0.27,0,1 @ F,1,0,1,0,0.27,0,1 @ F,1,0,1,0,0.27,0,1 @ F,1,0,1,0,0.27,0,1 @ F,1,0,1,0,0.27,0,1 @ F,1,0,1,0,0.27,0,1 @ F,1,0,1,0,0.27,0,1 @ F,1,0,1,0,0.27,0,1 @ F,1,0,1,0,0.27,0,1 @ F,1,0,1,0,0.27,0,1 @ F,1,0,1,0,0.27,0,1 @ F,1,0,1,0,0.27,0,1 @ F,1,0,1,0,0.27,0,1 @ F,1,0,1,0,0.27,0,1 @ F,1,0,1,0,0.27,0,1 @ F,1,0,1,0,0.27,0,1 @ F,1,0,1,0,0.27,0,1 @ F,1,0,1,0,0.27,0,1 @ F,1,0,1,0,0.27,0,1 @ F,1,0,1,0,0.27,0,1 @ F,1,0,1,0,0.27,0,1 @ F,1,0,1,0,0.27,0,1 @ F,1,0,1,0,0.27,0,1 @ F,1,0,1,0,0.27,0,1 @ F,1,0,1,0,0.27,0,1 @ F,1,0,1,0,0.27,0,1 @ F,1,0,1,0,0.27,0,1 @ F,1,0,1,0,0.27,0,1 @ F,1,0,1,0,0.27,0,1 @ F,1,0,1,0,0.27,0,1 @ F,1,0,1,0,0.27,0,1 @ F,1,0,1,0,0.27,0,1 @ F,1,0,1,0,0.27,0,1 @ F,1,0,1,0,0.27,0,1 @ F,1,0,1,0,0.27,0,1 @ F,1,0,1,0,0.27,0,1 @ F,1,0,1,0,0.27,0,1 @ F,1,0,1,0,0.27,0,1 @ F,1,0,1,0,0.27,0,1 @ F,1,0,1,0,0.27,0,1 @ F,1,0,1,0,0.27,0,1 @ F,1,0,1,0,0.27,0,1 @ F,1,0,1,0,0.27,0,1 @ F,1,0,1,0,0.27,0,1 @ F,1,0,1,0,0.27,0,1 @ F,1,0,1,0,0.27,0,1 @ F,1,0,1,0,0.27,0,1 @ F,1,0,1,0,0.27,0,1 @ F,1,0,1,0,0.27,0,1 @ F,1,0,1,0,0.27,0,1 @ F,1,0,1,0,0.27,0,1 @ F,1,0,1,0,0.27,0,1 @ F,1,0,1,0,0.27,0,1 @ F,1,0,1,0,0.27,0,1 @ F,1,0,1,0,0.27,0,1 @ F,1,0,1,0,0.27,0,1 @ F,1,0,1,0,0.27,0,1 @ F,1,0,1,0,0.27,0,1 @ F,1,0,1,0,0.27,0,1 @ F,1,0,1,0,0.27,0,1 @ F,1,0,1,0,0.27,0,1 @ F,1,0,1,0,0.27,0,1 @ F,1,0,1,0,0.27,0,1 @ F,1,0,1,0,0.27,0,1 @ F,1,0,1,0,0.27,0,1 @ F,1,0,1,0,0.27,0,1 @ F,1,0,1,0,0.27,0,1"
       unit="px"
       method="auto"
       mode="F"
       radius="27"
       chamfer_steps="1"
       flexible="true"
       use_knot_distance="true"
       apply_no_radius="true"
       apply_with_radius="true"
       only_selected="false"
       hide_knots="false" />
  </defs>
  <sodipodi:namedview
     id="namedview31953"
     pagecolor="#ffffff"
     bordercolor="#666666"
     borderopacity="1.0"
     inkscape:showpageshadow="2"
     inkscape:pageopacity="0.0"
     inkscape:pagecheckerboard="0"
     inkscape:deskcolor="#d1d1d1"
     showgrid="false"
     inkscape:zoom="6.3253012"
     inkscape:cx="-16.283809"
     inkscape:cy="3.9523809"
     inkscape:window-width="1366"
     inkscape:window-height="705"
     inkscape:window-x="-8"
     inkscape:window-y="-8"
     inkscape:window-maximized="1"
     inkscape:current-layer="svg31951" />
  <path
     id="rect28837"
     d="M 11,0.27 V 0.73 A 0.27,0.27 135 0 1 10.73,1 h -0.46 -1 -1 A 0.27,0.27 135 0 0 8,1.27 V 1.73 A 0.27,0.27 135 0 1 7.73,2 h -0.46 -1 A 0.27,0.27 135 0 0 6,2.27 V 2.73 A 0.27,0.27 135 0 1 5.73,3 h -0.46 -1 A 0.27,0.27 135 0 0 4,3.27 V 3.73 A 0.27,0.27 135 0 1 3.73,4 H 3.27 A 0.27,0.27 135 0 0 3,4.27 V 4.73 A 0.27,0.27 135 0 1 2.73,5 h -0.46 -1 A 0.27,0.27 135 0 0 1,5.27 v 0.46 1 1 A 0.27,0.27 135 0 1 0.73,8 H 0.27 A 0.27,0.27 135 0 0 0,8.27 v 0.46 1 1 1 A 0.27,0.27 45 0 0 0.27,12 H 0.73 A 0.27,0.27 45 0 1 1,12.27 v 0.46 1 1 A 0.27,0.27 45 0 0 1.27,15 H 1.73 A 0.27,0.27 45 0 1 2,15.27 v 0.46 A 0.27,0.27 45 0 0 2.27,16 H 2.73 A 0.27,0.27 45 0 1 3,16.27 v 0.46 1 1 A 0.27,0.27 45 0 0 3.27,19 H 3.73 A 0.27,0.27 45 0 1 4,19.27 v 0.46 A 0.27,0.27 45 0 0 4.27,20 h 0.46 1 1 A 0.27,0.27 45 0 1 7,20.27 v 0.46 A 0.27,0.27 45 0 0 7.27,21 h 0.46 1 1 A 0.27,0.27 135 0 0 10,20.73 V 20.27 A 0.27,0.27 45 0 0 9.73,20 H 9.27 A 0.27,0.27 45 0 1 9,19.73 V 19.27 A 0.27,0.27 45 0 0 8.73,19 H 8.27 A 0.27,0.27 45 0 1 8,18.73 v -0.46 -1 -1 A 0.27,0.27 45 0 0 7.73,16 H 7.27 A 0.27,0.27 45 0 1 7,15.73 v -0.46 -1 -1 A 0.27,0.27 135 0 1 7.27,13 H 7.73 A 0.27,0.27 135 0 0 8,12.73 V 12.27 A 0.27,0.27 135 0 1 8.27,12 H 8.73 A 0.27,0.27 135 0 0 9,11.73 V 11.27 A 0.27,0.27 135 0 1 9.27,11 H 9.73 A 0.27,0.27 135 0 0 10,10.73 V 10.27 A 0.27,0.27 135 0 1 10.27,10 h 0.46 A 0.27,0.27 135 0 0 11,9.73 V 9.27 A 0.27,0.27 135 0 1 11.27,9 h 0.46 A 0.27,0.27 135 0 0 12,8.73 V 8.27 A 0.27,0.27 135 0 1 12.27,8 h 0.46 A 0.27,0.27 135 0 0 13,7.73 V 7.27 A 0.27,0.27 135 0 1 13.27,7 h 0.46 A 0.27,0.27 135 0 0 14,6.73 v -0.46 -1 A 0.27,0.27 45 0 0 13.73,5 H 13.27 A 0.27,0.27 45 0 1 13,4.73 v -0.46 -1 -1 -1 A 0.27,0.27 45 0 0 12.73,1 H 12.27 A 0.27,0.27 45 0 1 12,0.73 V 0.27 A 0.27,0.27 45 0 0 11.73,0 H 11.27 A 0.27,0.27 135 0 0 11,0.27 Z"
     inkscape:path-effect="#path-effect6096"
     inkscape:original-d="M 11,0 V 1 H 10 9 8 V 2 H 7 6 V 3 H 5 4 V 4 H 3 V 5 H 2 1 V 6 7 8 H 0 v 1 1 1 1 h 1 v 1 1 1 h 1 v 1 h 1 v 1 1 1 h 1 v 1 h 1 1 1 v 1 h 1 1 1 V 20 H 9 V 19 H 8 V 18 17 16 H 7 v -1 -1 -1 h 1 v -1 h 1 v -1 h 1 v -1 h 1 V 9 h 1 V 8 h 1 V 7 h 1 V 6 5 H 13 V 4 3 2 1 H 12 V 0 Z" />
</svg>
