<?xml version="1.0" encoding="utf-8"?>
<!-- Generator: Adobe Illustrator 16.0.0, SVG Export Plug-In . SVG Version: 6.00 Build 0)  -->
<!DOCTYPE svg PUBLIC "-//W3C//DTD SVG 1.1//EN" "http://www.w3.org/Graphics/SVG/1.1/DTD/svg11.dtd">
<svg version="1.1" id="Layer_1" xmlns="http://www.w3.org/2000/svg" xmlns:xlink="http://www.w3.org/1999/xlink" x="0px" y="0px"
	 width="820px" height="952px" viewBox="0 0 820 952" enable-background="new 0 0 820 952" xml:space="preserve">
<g>
	<polygon fill="#F2BC51" points="410.698,924.5 417.658,921.551 425.365,918.021 433.177,914.22 442.712,909.332 458.905,900.44 
		475.176,890.79 492.008,880.053 505.44,870.924 517.323,862.415 529.428,853.323 540.177,844.862 549.428,837.278 562.823,825.767 
		576.447,813.392 588.479,801.847 601.385,788.763 609.259,780.396 616.475,772.457 623.923,763.969 634.676,751.149 
		642.53,741.326 651.604,729.449 659.016,719.303 667.615,706.95 673.851,697.586 680.509,687.156 684.299,681.007 691.438,668.964 
		697.447,658.324 703.379,647.319 711.005,632.333 716.823,620.176 722.388,607.887 728.906,592.508 733.25,581.61 736.781,572.265 
		741.984,557.676 746.44,544.199 750.365,531.64 753.948,518.928 757.308,506.275 760.887,491.567 764.071,477.121 766.394,465.565 
		768.541,453.862 770.531,441.862 772.532,428.381 774.282,414.896 775.598,403.312 776.719,391.833 777.861,377.749 
		778.979,360.396 779.395,349.209 780,332.9 780,30.9 41.101,30.9 41.101,332.9 41.706,349.209 42.122,360.396 43.237,377.749 
		44.382,391.833 45.503,403.312 46.812,414.896 48.562,428.381 50.562,441.862 52.56,453.862 54.707,465.565 57.027,477.121 
		60.214,491.567 63.793,506.275 67.149,518.928 70.731,531.64 74.659,544.199 79.115,557.676 84.312,572.265 87.851,581.61 
		92.188,592.508 98.713,607.887 104.274,620.176 110.096,632.333 117.722,647.319 123.65,658.324 129.661,668.964 136.802,681.007 
		140.592,687.156 147.25,697.586 153.479,706.95 162.085,719.303 169.495,729.449 178.567,741.326 186.425,751.149 197.178,763.969 
		204.626,772.457 211.842,780.396 219.716,788.763 232.622,801.847 244.65,813.392 258.271,825.767 271.673,837.278 
		280.924,844.862 291.673,853.323 303.771,862.415 315.656,870.924 329.093,880.053 345.925,890.79 362.193,900.44 378.389,909.332 
		387.924,914.22 395.73,918.021 403.438,921.551 	"/>
</g>
<g>
	<polygon fill="#BC2E2E" stroke="#000000" stroke-width="3" stroke-miterlimit="10" points="567.323,821.681 576.447,813.392 
		588.479,801.847 601.385,788.763 609.259,780.396 616.475,772.457 623.923,763.969 634.676,751.149 642.53,741.326 
		651.604,729.449 659.016,719.303 667.615,706.95 672.231,700.02 672.231,30.943 567.323,30.943 	"/>
	<polygon fill="#BC2E2E" stroke="#1D1D1B" stroke-width="3" stroke-miterlimit="10" points="357.323,897.552 362.193,900.44 
		378.389,909.332 387.924,914.22 395.73,918.021 403.438,921.551 410.698,924.5 417.658,921.551 425.365,918.021 433.177,914.22 
		442.712,909.332 458.905,900.44 462.231,898.468 462.231,30.943 357.323,30.943 	"/>
	<polygon fill="#BC2E2E" stroke="#1D1D1B" stroke-width="3" stroke-miterlimit="10" points="147.323,697.694 153.479,706.95 
		162.085,719.303 169.495,729.449 178.567,741.326 186.425,751.149 197.178,763.969 204.626,772.457 211.842,780.396 
		219.716,788.763 232.622,801.847 244.65,813.392 252.231,820.279 252.231,30.943 147.323,30.943 	"/>
</g>
<g>
	<polygon fill="none" stroke="#000000" stroke-width="5" stroke-miterlimit="10" points="410.698,924.5 417.658,921.551 
		425.365,918.021 433.177,914.22 442.712,909.332 458.905,900.44 475.176,890.79 492.008,880.053 505.44,870.924 517.323,862.415 
		529.428,853.323 540.177,844.862 549.428,837.278 562.823,825.767 576.447,813.392 588.479,801.847 601.385,788.763 
		609.259,780.396 616.475,772.457 623.923,763.969 634.676,751.149 642.53,741.326 651.604,729.449 659.016,719.303 667.615,706.95 
		673.851,697.586 680.509,687.156 684.299,681.007 691.438,668.964 697.447,658.324 703.379,647.319 711.005,632.333 
		716.823,620.176 722.388,607.887 728.906,592.508 733.25,581.61 736.781,572.265 741.984,557.676 746.44,544.199 750.365,531.64 
		753.948,518.928 757.308,506.275 760.887,491.567 764.071,477.121 766.394,465.565 768.541,453.862 770.531,441.862 
		772.532,428.381 774.282,414.896 775.598,403.312 776.719,391.833 777.861,377.749 778.979,360.396 779.395,349.209 780,332.9 
		780,30.9 41.101,30.9 41.101,332.9 41.706,349.209 42.122,360.396 43.237,377.749 44.382,391.833 45.503,403.312 46.812,414.896 
		48.562,428.381 50.562,441.862 52.56,453.862 54.707,465.565 57.027,477.121 60.214,491.567 63.793,506.275 67.149,518.928 
		70.731,531.64 74.659,544.199 79.115,557.676 84.312,572.265 87.851,581.61 92.188,592.508 98.713,607.887 104.274,620.176 
		110.096,632.333 117.722,647.319 123.65,658.324 129.661,668.964 136.802,681.007 140.592,687.156 147.25,697.586 153.479,706.95 
		162.085,719.303 169.495,729.449 178.567,741.326 186.425,751.149 197.178,763.969 204.626,772.457 211.842,780.396 
		219.716,788.763 232.622,801.847 244.65,813.392 258.271,825.767 271.673,837.278 280.924,844.862 291.673,853.323 
		303.771,862.415 315.656,870.924 329.093,880.053 345.925,890.79 362.193,900.44 378.389,909.332 387.924,914.22 395.73,918.021 
		403.438,921.551 	"/>
</g>
</svg>
