<?xml version="1.0" encoding="UTF-8" standalone="no"?>
<!-- Generator: Adobe Illustrator 16.0.0, SVG Export Plug-In . SVG Version: 6.00 Build 0)  -->

<svg
   xmlns:dc="http://purl.org/dc/elements/1.1/"
   xmlns:cc="http://creativecommons.org/ns#"
   xmlns:rdf="http://www.w3.org/1999/02/22-rdf-syntax-ns#"
   xmlns:svg="http://www.w3.org/2000/svg"
   xmlns="http://www.w3.org/2000/svg"
   xmlns:sodipodi="http://sodipodi.sourceforge.net/DTD/sodipodi-0.dtd"
   xmlns:inkscape="http://www.inkscape.org/namespaces/inkscape"
   version="1.1"
   id="Layer_1"
   x="0px"
   y="0px"
   width="820px"
   height="952px"
   viewBox="0 0 820 952"
   enable-background="new 0 0 820 952"
   xml:space="preserve"
   inkscape:version="0.48.4 r9939"
   sodipodi:docname="Barcelona.svg"><sodipodi:namedview
   pagecolor="#ffffff"
   bordercolor="#666666"
   borderopacity="1"
   objecttolerance="10"
   gridtolerance="10"
   guidetolerance="10"
   inkscape:pageopacity="0"
   inkscape:pageshadow="2"
   inkscape:window-width="640"
   inkscape:window-height="480"
   id="namedview25"
   showgrid="false"
   inkscape:zoom="0.24789916"
   inkscape:cx="410"
   inkscape:cy="476"
   inkscape:window-x="0"
   inkscape:window-y="0"
   inkscape:window-maximized="0"
   inkscape:current-layer="Layer_1" /><metadata
   id="metadata29"><rdf:RDF><cc:Work
       rdf:about=""><dc:format>image/svg+xml</dc:format><dc:type
         rdf:resource="http://purl.org/dc/dcmitype/StillImage" /></cc:Work></rdf:RDF></metadata><defs
   id="defs27" />
<g
   id="Layer_1_copy_2">
	<g
   id="g4">
		<polygon
   fill="#bc2e2e"
   points="410.7,924.5 417.663,921.551 425.365,918.021 433.177,914.219 442.712,909.332 458.906,900.44     475.176,890.79 492.008,880.052 505.442,870.924 517.325,862.415 529.428,853.323 540.177,844.862 549.428,837.278     562.826,825.766 576.448,813.391 588.479,801.846 601.385,788.762 609.259,780.396 616.475,772.457 623.923,763.969     634.676,751.149 642.531,741.326 651.606,729.449 659.016,719.302 667.616,706.95 673.851,697.586 680.509,687.156     684.299,681.007 691.44,668.964 697.448,658.324 703.379,647.319 711.005,632.333 716.823,620.176 722.388,607.886     728.908,592.508 733.25,581.61 736.784,572.264 741.986,557.676 746.442,544.199 750.365,531.639 753.948,518.927     757.308,506.275 760.887,491.567 764.073,477.121 766.394,465.565 768.541,453.862 770.534,441.862 772.535,428.381     774.285,414.896 775.598,403.312 776.719,391.833 777.863,377.749 778.979,360.396 779.395,349.209 780,332.9 780,30.9     41.101,30.9 41.101,332.9 41.706,349.209 42.122,360.396 43.238,377.749 44.382,391.833 45.503,403.312 46.812,414.896     48.562,428.381 50.562,441.862 52.56,453.862 54.707,465.565 57.028,477.121 60.214,491.567 63.793,506.275 67.15,518.927     70.732,531.639 74.659,544.199 79.115,557.676 84.312,572.264 87.851,581.61 92.188,592.508 98.713,607.886 104.275,620.176     110.096,632.333 117.722,647.319 123.651,658.324 129.661,668.964 136.802,681.007 140.592,687.156 147.25,697.586 153.48,706.95     162.085,719.302 169.495,729.449 178.568,741.326 186.425,751.149 197.178,763.969 204.626,772.457 211.842,780.396     219.716,788.762 232.622,801.846 244.651,813.391 258.271,825.766 271.673,837.278 280.924,844.862 291.673,853.323     303.772,862.415 315.659,870.924 329.093,880.052 345.925,890.79 362.195,900.44 378.389,909.332 387.924,914.219     395.732,918.021 403.438,921.551   "
   id="polygon6" />
	</g>
</g>
<g
   id="g8">
	<polygon
   fill="#f2bc51"
   stroke="#1d1d1b"
   stroke-width="3"
   stroke-miterlimit="10"
   points="617.539,30.9 535.463,30.9    535.463,848.572 540.177,844.862 549.428,837.278 562.826,825.766 576.448,813.391 588.479,801.846 601.385,788.762    609.259,780.396 616.475,772.457 617.539,771.244  "
   id="polygon10" />
	<polygon
   fill="#f2bc51"
   stroke="#1d1d1b"
   stroke-width="3"
   stroke-miterlimit="10"
   points="452.539,30.9 370.462,30.9    370.462,904.979 378.389,909.332 387.924,914.219 395.732,918.021 403.438,921.551 410.7,924.5 417.663,921.551 425.365,918.021    433.177,914.219 442.712,909.332 452.539,903.936  "
   id="polygon12" />
	<polygon
   fill="#f2bc51"
   stroke="#1d1d1b"
   stroke-width="3"
   stroke-miterlimit="10"
   points="697.463,658.297 703.379,647.319    711.005,632.333 716.823,620.176 722.388,607.886 728.908,592.508 733.25,581.61 736.784,572.264 741.986,557.676 746.442,544.199    750.365,531.639 753.948,518.927 757.308,506.275 760.887,491.567 764.073,477.121 766.394,465.565 768.541,453.862    770.534,441.862 772.535,428.381 774.285,414.896 775.598,403.312 776.719,391.833 777.863,377.749 778.979,360.396    779.395,349.209 780,332.9 780,30.9 697.463,30.9  "
   id="polygon14" />
	<polygon
   fill="#f2bc51"
   stroke="#1d1d1b"
   stroke-width="3"
   stroke-miterlimit="10"
   points="287.539,30.9 205.462,30.9    205.462,773.376 211.842,780.396 219.716,788.762 232.622,801.846 244.651,813.391 258.271,825.766 271.673,837.278    280.924,844.862 287.539,850.069  "
   id="polygon16" />
	<polygon
   fill="#f2bc51"
   stroke="#1d1d1b"
   stroke-width="3"
   stroke-miterlimit="10"
   points="122.539,30.9 41.101,30.9 41.101,332.9    41.706,349.209 42.122,360.396 43.238,377.749 44.382,391.833 45.503,403.312 46.812,414.896 48.562,428.381 50.562,441.862    52.56,453.862 54.707,465.565 57.028,477.121 60.214,491.567 63.793,506.275 67.15,518.927 70.732,531.639 74.659,544.199    79.115,557.676 84.312,572.264 87.851,581.61 92.188,592.508 98.713,607.886 104.275,620.176 110.096,632.333 117.722,647.319    122.539,656.26  "
   id="polygon18" />
</g>
<g
   id="Layer_1_copy_2_1_">
	<g
   id="g21">
		<polygon
   fill="none"
   stroke="#000000"
   stroke-width="5"
   stroke-miterlimit="10"
   points="410.7,924.5 417.663,921.551     425.365,918.021 433.177,914.219 442.712,909.332 458.906,900.44 475.176,890.79 492.008,880.052 505.442,870.924     517.325,862.415 529.428,853.323 540.177,844.862 549.428,837.278 562.826,825.766 576.448,813.391 588.479,801.846     601.385,788.762 609.259,780.396 616.475,772.457 623.923,763.969 634.676,751.149 642.531,741.326 651.606,729.449     659.016,719.302 667.616,706.95 673.851,697.586 680.509,687.156 684.299,681.007 691.44,668.964 697.448,658.324     703.379,647.319 711.005,632.333 716.823,620.176 722.388,607.886 728.908,592.508 733.25,581.61 736.784,572.264     741.986,557.676 746.442,544.199 750.365,531.639 753.948,518.927 757.308,506.275 760.887,491.567 764.073,477.121     766.394,465.565 768.541,453.862 770.534,441.862 772.535,428.381 774.285,414.896 775.598,403.312 776.719,391.833     777.863,377.749 778.979,360.396 779.395,349.209 780,332.9 780,30.9 41.101,30.9 41.101,332.9 41.706,349.209 42.122,360.396     43.238,377.749 44.382,391.833 45.503,403.312 46.812,414.896 48.562,428.381 50.562,441.862 52.56,453.862 54.707,465.565     57.028,477.121 60.214,491.567 63.793,506.275 67.15,518.927 70.732,531.639 74.659,544.199 79.115,557.676 84.312,572.264     87.851,581.61 92.188,592.508 98.713,607.886 104.275,620.176 110.096,632.333 117.722,647.319 123.651,658.324 129.661,668.964     136.802,681.007 140.592,687.156 147.25,697.586 153.48,706.95 162.085,719.302 169.495,729.449 178.568,741.326 186.425,751.149     197.178,763.969 204.626,772.457 211.842,780.396 219.716,788.762 232.622,801.846 244.651,813.391 258.271,825.766     271.673,837.278 280.924,844.862 291.673,853.323 303.772,862.415 315.659,870.924 329.093,880.052 345.925,890.79     362.195,900.44 378.389,909.332 387.924,914.219 395.732,918.021 403.438,921.551   "
   id="polygon23" />
	</g>
</g>
</svg>