<?xml version="1.0" encoding="UTF-8" standalone="no"?>
<!-- Generator: Adobe Illustrator 16.0.0, SVG Export Plug-In . SVG Version: 6.00 Build 0)  -->

<svg
   xmlns:dc="http://purl.org/dc/elements/1.1/"
   xmlns:cc="http://creativecommons.org/ns#"
   xmlns:rdf="http://www.w3.org/1999/02/22-rdf-syntax-ns#"
   xmlns:svg="http://www.w3.org/2000/svg"
   xmlns="http://www.w3.org/2000/svg"
   xmlns:sodipodi="http://sodipodi.sourceforge.net/DTD/sodipodi-0.dtd"
   xmlns:inkscape="http://www.inkscape.org/namespaces/inkscape"
   version="1.1"
   id="Layer_1"
   x="0px"
   y="0px"
   width="820px"
   height="952px"
   viewBox="0 0 820 952"
   enable-background="new 0 0 820 952"
   xml:space="preserve"
   inkscape:version="0.48.4 r9939"
   sodipodi:docname="Castellnou.svg"><sodipodi:namedview
   pagecolor="#ffffff"
   bordercolor="#666666"
   borderopacity="1"
   objecttolerance="10"
   gridtolerance="10"
   guidetolerance="10"
   inkscape:pageopacity="0"
   inkscape:pageshadow="2"
   inkscape:window-width="640"
   inkscape:window-height="480"
   id="namedview15"
   showgrid="false"
   inkscape:zoom="0.24789916"
   inkscape:cx="410"
   inkscape:cy="476"
   inkscape:window-x="0"
   inkscape:window-y="0"
   inkscape:window-maximized="0"
   inkscape:current-layer="Layer_1" /><metadata
   id="metadata19"><rdf:RDF><cc:Work
       rdf:about=""><dc:format>image/svg+xml</dc:format><dc:type
         rdf:resource="http://purl.org/dc/dcmitype/StillImage" /></cc:Work></rdf:RDF></metadata><defs
   id="defs17" />
<g
   id="g3">
	<polygon
   fill="#f2bc51"
   points="410.698,924.5 417.66,921.551 425.365,918.021 433.177,914.221 442.712,909.332 458.905,900.44    475.176,890.79 492.008,880.054 505.44,870.924 517.324,862.415 529.428,853.323 540.177,844.862 549.428,837.278 562.825,825.768    576.447,813.393 588.479,801.848 601.385,788.764 609.259,780.396 616.475,772.457 623.923,763.969 634.676,751.149    642.53,741.326 651.604,729.449 659.016,719.304 667.615,706.95 673.851,697.586 680.509,687.156 684.299,681.007 691.438,668.964    697.447,658.324 703.379,647.319 711.005,632.333 716.823,620.176 722.388,607.888 728.907,592.508 733.25,581.61 736.783,572.266    741.984,557.676 746.44,544.199 750.365,531.641 753.948,518.929 757.308,506.275 760.887,491.567 764.071,477.121    766.394,465.565 768.541,453.862 770.533,441.862 772.534,428.381 774.284,414.896 775.598,403.312 776.719,391.833    777.861,377.749 778.979,360.396 779.395,349.209 780,332.9 780,30.9 41.101,30.9 41.101,332.9 41.706,349.209 42.122,360.396    43.237,377.749 44.382,391.833 45.503,403.312 46.812,414.896 48.562,428.381 50.562,441.862 52.56,453.862 54.707,465.565    57.027,477.121 60.214,491.567 63.793,506.275 67.149,518.929 70.731,531.641 74.659,544.199 79.115,557.676 84.312,572.266    87.851,581.61 92.188,592.508 98.713,607.888 104.274,620.176 110.096,632.333 117.722,647.319 123.65,658.324 129.661,668.964    136.802,681.007 140.592,687.156 147.25,697.586 153.479,706.95 162.085,719.304 169.495,729.449 178.567,741.326 186.425,751.149    197.178,763.969 204.626,772.457 211.842,780.396 219.716,788.764 232.622,801.848 244.65,813.393 258.271,825.768    271.673,837.278 280.924,844.862 291.673,853.323 303.771,862.415 315.656,870.924 329.093,880.054 345.925,890.79 362.193,900.44    378.389,909.332 387.924,914.221 395.73,918.021 403.438,921.551  "
   id="polygon5" />
</g>
<g
   id="g7">
	<path
   fill="#0d6793"
   stroke="#000000"
   stroke-width="3"
   stroke-miterlimit="10"
   d="M335.678,326.025h147.988V177.981H335.678   V326.025z M187.679,178.014h147.987V30.942H187.679V178.014z M335.678,622.025h147.988V473.981H335.678V622.025z M631.678,177.981   v148.044H779.62c0.027-2.797,0.056-5.598,0.056-8.417V177.981H631.678z M483.678,474.015h147.988V326.001H483.678V474.015z    M483.678,178.014h147.988V30.942H483.678V178.014z M41.659,317.608c0,2.819,0.022,5.618,0.052,8.417h145.955V177.981H41.659   V317.608z M187.679,474.015h147.987V326.001H187.679V474.015z M335.678,884.332c43.854,28.248,74.709,40.225,74.709,40.225   s30.181-11.703,73.279-39.235V769.98H335.678V884.332z M631.678,622.025h83.969c20.482-43.625,37.434-92.812,48.742-148.044   H631.678V622.025z M483.678,770.013h134.674c4.461-5.045,8.9-10.231,13.314-15.563V622.002H483.678V770.013z M105.591,622.025   h82.075V473.981H56.923C68.214,529.217,85.14,578.4,105.591,622.025z M187.679,752.31c4.986,6.091,10.011,11.982,15.06,17.703   h132.929V622.002H187.679V752.31z"
   id="path9" />
</g>
<g
   id="g11">
	<polygon
   fill="none"
   stroke="#000000"
   stroke-width="5"
   stroke-miterlimit="10"
   points="410.698,924.5 417.66,921.551    425.365,918.021 433.177,914.221 442.712,909.332 458.905,900.44 475.176,890.79 492.008,880.054 505.44,870.924 517.324,862.415    529.428,853.323 540.177,844.862 549.428,837.278 562.825,825.768 576.447,813.393 588.479,801.848 601.385,788.764    609.259,780.396 616.475,772.457 623.923,763.969 634.676,751.149 642.53,741.326 651.604,729.449 659.016,719.304 667.615,706.95    673.851,697.586 680.509,687.156 684.299,681.007 691.438,668.964 697.447,658.324 703.379,647.319 711.005,632.333    716.823,620.176 722.388,607.888 728.907,592.508 733.25,581.61 736.783,572.266 741.984,557.676 746.44,544.199 750.365,531.641    753.948,518.929 757.308,506.275 760.887,491.567 764.071,477.121 766.394,465.565 768.541,453.862 770.533,441.862    772.534,428.381 774.284,414.896 775.598,403.312 776.719,391.833 777.861,377.749 778.979,360.396 779.395,349.209 780,332.9    780,30.9 41.101,30.9 41.101,332.9 41.706,349.209 42.122,360.396 43.237,377.749 44.382,391.833 45.503,403.312 46.812,414.896    48.562,428.381 50.562,441.862 52.56,453.862 54.707,465.565 57.027,477.121 60.214,491.567 63.793,506.275 67.149,518.929    70.731,531.641 74.659,544.199 79.115,557.676 84.312,572.266 87.851,581.61 92.188,592.508 98.713,607.888 104.274,620.176    110.096,632.333 117.722,647.319 123.65,658.324 129.661,668.964 136.802,681.007 140.592,687.156 147.25,697.586 153.479,706.95    162.085,719.304 169.495,729.449 178.567,741.326 186.425,751.149 197.178,763.969 204.626,772.457 211.842,780.396    219.716,788.764 232.622,801.848 244.65,813.393 258.271,825.768 271.673,837.278 280.924,844.862 291.673,853.323    303.771,862.415 315.656,870.924 329.093,880.054 345.925,890.79 362.193,900.44 378.389,909.332 387.924,914.221 395.73,918.021    403.438,921.551  "
   id="polygon13" />
</g>
</svg>