<?xml version="1.0" encoding="UTF-8" standalone="no"?>
<!-- Generator: Adobe Illustrator 16.0.0, SVG Export Plug-In . SVG Version: 6.00 Build 0)  -->

<svg
   xmlns:dc="http://purl.org/dc/elements/1.1/"
   xmlns:cc="http://creativecommons.org/ns#"
   xmlns:rdf="http://www.w3.org/1999/02/22-rdf-syntax-ns#"
   xmlns:svg="http://www.w3.org/2000/svg"
   xmlns="http://www.w3.org/2000/svg"
   xmlns:sodipodi="http://sodipodi.sourceforge.net/DTD/sodipodi-0.dtd"
   xmlns:inkscape="http://www.inkscape.org/namespaces/inkscape"
   version="1.1"
   id="Layer_1"
   x="0px"
   y="0px"
   width="820px"
   height="952px"
   viewBox="0 0 820 952"
   enable-background="new 0 0 820 952"
   xml:space="preserve"
   inkscape:version="0.48.4 r9939"
   sodipodi:docname="Capet_Ancient.svg"><sodipodi:namedview
   pagecolor="#ffffff"
   bordercolor="#666666"
   borderopacity="1"
   objecttolerance="10"
   gridtolerance="10"
   guidetolerance="10"
   inkscape:pageopacity="0"
   inkscape:pageshadow="2"
   inkscape:window-width="640"
   inkscape:window-height="480"
   id="namedview49"
   showgrid="false"
   inkscape:zoom="0.24789916"
   inkscape:cx="410"
   inkscape:cy="476"
   inkscape:window-x="0"
   inkscape:window-y="0"
   inkscape:window-maximized="0"
   inkscape:current-layer="Layer_1" /><metadata
   id="metadata53"><rdf:RDF><cc:Work
       rdf:about=""><dc:format>image/svg+xml</dc:format><dc:type
         rdf:resource="http://purl.org/dc/dcmitype/StillImage" /></cc:Work></rdf:RDF></metadata><defs
   id="defs51" />
<g
   id="g3">
	<polygon
   id="polygon5"
   points="410.698,924.5 417.661,921.551 425.366,918.021 433.177,914.22 442.712,909.332 458.905,900.44    475.176,890.79 492.008,880.053 505.44,870.924 517.326,862.415 529.428,853.323 540.177,844.862 549.428,837.278 562.827,825.767    576.447,813.392 588.479,801.847 601.385,788.763 609.259,780.396 616.475,772.457 623.923,763.969 634.676,751.149    642.53,741.326 651.604,729.449 659.016,719.303 667.617,706.95 673.851,697.586 680.509,687.156 684.299,681.007 691.438,668.964    697.447,658.324 703.379,647.319 711.005,632.333 716.823,620.176 722.388,607.887 728.909,592.508 733.25,581.61 736.785,572.265    741.984,557.676 746.44,544.199 750.365,531.64 753.948,518.928 757.308,506.275 760.887,491.567 764.071,477.121 766.394,465.565    768.541,453.862 770.535,441.862 772.536,428.381 774.286,414.896 775.598,403.312 776.719,391.833 777.861,377.749    778.979,360.396 779.395,349.209 780,332.9 780,30.9 41.101,30.9 41.101,332.9 41.706,349.209 42.122,360.396 43.237,377.749    44.382,391.833 45.503,403.312 46.812,414.896 48.562,428.381 50.562,441.862 52.56,453.862 54.707,465.565 57.027,477.121    60.214,491.567 63.793,506.275 67.149,518.928 70.731,531.64 74.659,544.199 79.115,557.676 84.312,572.265 87.851,581.61    92.188,592.508 98.713,607.887 104.274,620.176 110.096,632.333 117.722,647.319 123.65,658.324 129.661,668.964 136.802,681.007    140.592,687.156 147.25,697.586 153.479,706.95 162.085,719.303 169.495,729.449 178.567,741.326 186.425,751.149 197.178,763.969    204.626,772.457 211.842,780.396 219.716,788.763 232.622,801.847 244.65,813.392 258.271,825.767 271.673,837.278    280.924,844.862 291.673,853.323 303.771,862.415 315.657,870.924 329.093,880.053 345.925,890.79 362.193,900.44 378.389,909.332    387.924,914.22 395.73,918.021 403.438,921.551  "
   fill="#0d6793" />
</g>
<g
   id="g7">
	<path
   id="path9"
   d="M375.031,561.03   c-7.501,0-11.096-5.897-11.854-6.656c-1.426,0.57-3.034,4.169-3.034,7.476c0,8.312,6.53,15.185,14.887,15.185   c13.793,0,25.518-16.7,25.518-42.851c0-14.815-8.211-52.674-30.088-69.772c-13.11-9.782-28.65-5.315-35.63,1.379   c-6.979,6.693-11.875,16.684-11.875,27.279c0,41.401,40.598,48.067,40.598,46.787c0-1.021-6.394-3.091-6.394-15.041   c0-5.211,6.27-13.646,14.626-13.646c11.062,0,20.143,8.271,20.143,23.084C391.927,551.771,384.67,561.03,375.031,561.03z    M410.805,604.067c9.391-4.55,16.371-14.397,16.389-21.461c0-11.093-10.23-13.419-10.23-48.81   c0-36.769,24.232-70.969,24.232-102.846c0-19.812-26.972-57.135-30.416-57.135c-3.447,0-30.421,37.322-30.421,57.135   c0,31.877,24.23,66.077,24.23,102.846c0,35.391-10.23,37.717-10.23,48.81C394.377,589.669,401.573,599.452,410.805,604.067z    M311.196,590.952c0-19.812-26.971-57.135-30.417-57.135c-3.445,0-30.421,37.321-30.421,57.135   c0,31.877,24.232,66.078,24.232,102.847c0,35.392-10.231,37.717-10.231,48.81c0.02,7.062,7.214,16.846,16.447,21.461   c9.389-4.55,16.371-14.397,16.389-21.461c0-11.093-10.23-13.418-10.23-48.81C286.964,657.03,311.196,622.829,311.196,590.952z    M394.359,272.607c0.02,7.061,7.215,16.844,16.446,21.46c9.391-4.549,16.371-14.4,16.389-21.46c0-11.093-10.23-13.418-10.23-48.81   c0-36.769,24.232-70.968,24.232-102.845c0-19.813-26.972-57.136-30.416-57.136c-3.447,0-30.421,37.322-30.421,57.136   c0,31.877,24.23,66.076,24.23,102.845C404.59,259.189,394.359,261.515,394.359,272.607z M331.963,721.682   c0-3.307-1.607-6.905-3.032-7.477c-0.761,0.76-4.354,6.655-11.854,6.655c-9.639,0-16.896-9.259-16.896-26.776   c0-14.814,9.08-23.084,20.143-23.084c8.355,0,14.626,8.434,14.626,13.646c0,11.948-6.394,14.019-6.394,15.041   c0,1.28,40.599-5.388,40.599-46.789c0-10.595-4.896-20.586-11.875-27.278c-6.979-6.695-22.521-11.162-35.63-1.378   c-21.878,17.099-30.089,54.955-30.089,69.771c0,26.15,11.724,42.851,25.518,42.851   C325.435,736.864,331.963,729.995,331.963,721.682z M540.807,454.068c9.39-4.55,16.369-14.399,16.388-21.461   c0-11.093-10.23-13.418-10.23-48.81c0-36.77,24.232-70.969,24.232-102.845c0-19.813-26.972-57.136-30.416-57.136   c-3.447,0-30.422,37.322-30.422,57.136c0,31.876,24.231,66.076,24.231,102.845c0,35.391-10.229,37.717-10.229,48.81   C524.376,439.668,531.572,449.451,540.807,454.068z M530.067,384.015c0-14.816-8.211-52.674-30.089-69.773   c-13.11-9.783-28.649-5.316-35.631,1.379c-6.979,6.693-11.875,16.684-11.875,27.279c0,41.402,40.599,48.068,40.599,46.787   c0-1.021-6.394-3.09-6.394-15.041c0-5.211,6.271-13.645,14.625-13.645c11.062,0,20.144,8.27,20.144,23.084   c0,17.52-7.256,26.777-16.896,26.777c-7.503,0-11.097-5.898-11.854-6.656c-1.425,0.57-3.033,4.168-3.033,7.475   c0,8.312,6.529,15.184,14.887,15.184C518.342,426.865,530.067,410.164,530.067,384.015z M369.979,774.243   c-13.109-9.784-28.649-5.317-35.63,1.377c-6.979,6.692-11.875,16.687-11.875,27.279c0,41.401,40.598,48.069,40.598,46.788   c0-1.022-6.394-3.092-6.394-15.041c0-5.213,6.27-13.646,14.626-13.646c11.062,0,20.143,8.271,20.143,23.084   c0,17.521-7.257,26.776-16.896,26.776c-7.502,0-11.096-5.896-11.854-6.656c-1.425,0.57-3.033,4.17-3.033,7.478   c0,8.312,6.529,15.183,14.886,15.183c13.795,0,25.521-16.698,25.521-42.851C400.068,829.198,391.856,791.341,369.979,774.243z    M499.979,624.243c-13.11-9.784-28.649-5.317-35.631,1.377c-6.979,6.692-11.875,16.687-11.875,27.279   c0,41.401,40.599,48.069,40.599,46.788c0-1.022-6.394-3.092-6.394-15.041c0-5.213,6.271-13.646,14.625-13.646   c11.062,0,20.144,8.271,20.144,23.084c0,17.521-7.256,26.776-16.896,26.776c-7.503,0-11.097-5.896-11.854-6.656   c-1.425,0.57-3.033,4.17-3.033,7.478c0,8.312,6.529,15.183,14.887,15.183c13.794,0,25.52-16.698,25.52-42.851   C530.067,679.198,521.856,641.341,499.979,624.243z M571.195,590.952c0-19.812-26.972-57.135-30.416-57.135   c-3.447,0-30.422,37.321-30.422,57.135c0,31.877,24.23,66.078,24.23,102.847c0,35.392-10.229,37.717-10.229,48.81   c0.018,7.062,7.213,16.846,16.446,21.461c9.39-4.55,16.369-14.397,16.388-21.461c0-11.093-10.229-13.418-10.229-48.81   C546.962,657.03,571.195,622.829,571.195,590.952z M459.037,539.854c0,1.281,40.599-5.385,40.599-46.786   c0-10.597-4.896-20.585-11.875-27.278c-6.979-6.695-22.521-11.162-35.632-1.38c-21.877,17.1-30.088,54.957-30.088,69.772   c-0.001,26.148,11.725,42.851,25.518,42.851c8.356,0,14.888-6.871,14.888-15.185c0-3.307-1.609-6.903-3.033-7.475   c-0.76,0.758-4.354,6.655-11.854,6.655c-9.64,0-16.896-9.259-16.896-26.776c0-14.814,9.08-23.084,20.144-23.084   c8.354,0,14.625,8.434,14.625,13.646C465.431,536.764,459.037,538.834,459.037,539.854z M779.726,322.747   c0.012-1.713,0.032-3.417,0.032-5.139v-64.726c-5.249,9.846-9.399,20.303-9.399,28.071   C770.358,294.461,774.711,308.386,779.726,322.747z M447.075,266.864c8.356,0,14.887-6.87,14.887-15.183   c0-3.307-1.608-6.905-3.032-7.476c-0.761,0.759-4.354,6.656-11.854,6.656c-9.638,0-16.896-9.258-16.896-26.777   c0-14.814,9.08-23.084,20.144-23.084c8.356,0,14.625,8.434,14.625,13.646c0,11.95-6.394,14.02-6.394,15.041   c0,1.281,40.599-5.386,40.599-46.788c0-10.595-4.896-20.586-11.875-27.279c-6.979-6.695-22.521-11.161-35.629-1.378   c-21.88,17.099-30.091,54.957-30.091,69.772C421.559,250.164,433.282,266.864,447.075,266.864z M759.979,314.242   c-13.11-9.783-28.649-5.316-35.631,1.379c-6.979,6.693-11.875,16.684-11.875,27.279c0,41.402,40.599,48.068,40.599,46.787   c0-1.021-6.394-3.09-6.394-15.041c0-5.211,6.271-13.645,14.625-13.645c6.998,0,13.195,3.319,16.811,9.502   c0.618-9.79,1.059-19.743,1.33-29.847C774.763,330.444,768.382,320.811,759.979,314.242z M764.551,100.862   c-7.502,0-11.097-5.897-11.854-6.656c-1.424,0.57-3.033,4.169-3.033,7.476c0,8.312,6.529,15.183,14.888,15.183   c5.635,0,10.923-2.79,15.208-7.869v-21.94C777.076,96.123,771.429,100.862,764.551,100.862z M109.915,465.137   c-13.111-9.783-28.651-5.315-35.63,1.379c-6.979,6.693-11.875,16.686-11.875,27.278c0,1.854,0.084,3.634,0.24,5.35   c1.268,5.208,2.583,10.362,3.951,15.457c10.369,22.934,36.406,27.01,36.406,25.982c0-1.022-6.393-3.092-6.393-15.041   c0-5.212,6.269-13.646,14.626-13.646c11.062,0,20.142,8.27,20.142,23.082c0,17.521-7.256,26.778-16.895,26.778   c-7.501,0-11.095-5.896-11.854-6.656c-1.425,0.57-3.034,4.169-3.034,7.477c0,8.312,6.53,15.182,14.886,15.182   c13.793,0,25.518-16.698,25.518-42.849C140.004,520.094,131.792,482.237,109.915,465.137z M707.075,266.864   c8.356,0,14.887-6.87,14.887-15.183c0-3.307-1.607-6.905-3.032-7.476c-0.761,0.759-4.354,6.656-11.854,6.656   c-9.637,0-16.896-9.258-16.896-26.777c0-14.814,9.08-23.084,20.144-23.084c8.356,0,14.625,8.434,14.625,13.646   c0,11.95-6.394,14.02-6.394,15.041c0,1.281,40.599-5.386,40.599-46.788c0-10.595-4.896-20.586-11.875-27.279   c-6.979-6.695-22.521-11.161-35.629-1.378c-21.88,17.099-30.091,54.957-30.091,69.772   C681.559,250.164,693.282,266.864,707.075,266.864z M451.649,774.243c-21.88,17.099-30.091,54.955-30.091,69.771   c0,26.15,11.726,42.851,25.519,42.851c8.356,0,14.887-6.869,14.887-15.183c0-3.307-1.607-6.905-3.032-7.478   c-0.761,0.761-4.354,6.656-11.854,6.656c-9.637,0-16.896-9.259-16.896-26.776c0-14.814,9.08-23.084,20.144-23.084   c8.356,0,14.625,8.434,14.625,13.646c0,11.949-6.394,14.02-6.394,15.041c0,1.281,40.599-5.387,40.599-46.788   c0-10.595-4.896-20.587-11.875-27.279C480.299,768.925,464.758,764.458,451.649,774.243z M711.585,465.137   c-21.878,17.101-30.089,54.957-30.089,69.773c0,26.148,11.725,42.849,25.518,42.849c8.357,0,14.888-6.869,14.888-15.182   c0-3.308-1.609-6.905-3.033-7.477c-0.76,0.76-4.354,6.656-11.855,6.656c-9.638,0-16.895-9.258-16.895-26.778   c0-14.812,9.08-23.083,20.142-23.083c8.357,0,14.626,8.435,14.626,13.646c0,11.949-6.393,14.019-6.393,15.041   c0,1.026,26.031-3.049,36.403-25.974c1.368-5.102,2.686-10.261,3.955-15.475c0.154-1.714,0.238-3.491,0.238-5.342   c0-10.594-4.896-20.585-11.875-27.278C740.236,459.821,724.696,455.354,711.585,465.137z M588.555,389.687   c0,1.281,40.599-5.385,40.599-46.787c0-10.596-4.896-20.586-11.875-27.279c-6.979-6.695-22.521-11.162-35.629-1.379   c-21.88,17.1-30.091,54.957-30.091,69.773c0,26.148,11.726,42.85,25.519,42.85c8.356,0,14.887-6.871,14.887-15.184   c0-3.307-1.607-6.904-3.032-7.475c-0.761,0.758-4.354,6.656-11.854,6.656c-9.637,0-16.896-9.258-16.896-26.777   c0-14.814,9.08-23.084,20.144-23.084c8.356,0,14.625,8.434,14.625,13.645C594.947,386.597,588.555,388.665,588.555,389.687z    M594.348,155.62c-6.979,6.693-11.875,16.685-11.875,27.279c0,41.402,40.599,48.069,40.599,46.788   c0-1.021-6.394-3.091-6.394-15.041c0-5.212,6.271-13.646,14.625-13.646c11.062,0,20.144,8.27,20.144,23.084   c0,17.52-7.256,26.777-16.896,26.777c-7.502,0-11.097-5.897-11.854-6.656c-1.424,0.57-3.033,4.169-3.033,7.476   c0,8.312,6.529,15.183,14.888,15.183c13.793,0,25.519-16.7,25.519-42.85c0-14.815-8.211-52.674-30.088-69.772   C616.866,144.459,601.327,148.926,594.348,155.62z M701.195,430.953c0-19.812-26.972-57.135-30.416-57.135   c-3.447,0-30.422,37.322-30.422,57.135c0,31.878,24.23,66.077,24.23,102.846c0,35.392-10.229,37.717-10.229,48.81   c0.018,7.062,7.213,16.847,16.446,21.461c9.39-4.55,16.369-14.397,16.388-21.461c0-11.093-10.229-13.418-10.229-48.81   C676.962,497.03,701.195,462.83,701.195,430.953z M654.36,272.607c0.018,7.061,7.213,16.844,16.446,21.46   c9.39-4.549,16.369-14.4,16.388-21.46c0-11.093-10.23-13.418-10.23-48.81c0-36.769,24.232-70.968,24.232-102.845   c0-19.813-26.972-57.136-30.416-57.136c-3.447,0-30.422,37.322-30.422,57.136c0,31.877,24.231,66.076,24.231,102.845   C664.59,259.189,654.36,261.515,654.36,272.607z M629.979,464.242c-13.11-9.782-28.649-5.315-35.631,1.379   c-6.979,6.693-11.875,16.686-11.875,27.278c0,41.401,40.599,48.069,40.599,46.788c0-1.022-6.394-3.092-6.394-15.041   c0-5.213,6.271-13.646,14.625-13.646c11.062,0,20.144,8.271,20.144,23.084c0,17.521-7.256,26.776-16.896,26.776   c-7.502,0-11.097-5.896-11.854-6.656c-1.424,0.57-3.033,4.17-3.033,7.478c0,8.312,6.529,15.183,14.888,15.183   c13.793,0,25.519-16.698,25.519-42.851C660.067,519.198,651.856,481.341,629.979,464.242z M181.196,430.953   c0-19.812-26.971-57.135-30.417-57.135c-3.445,0-30.421,37.322-30.421,57.135c0,31.878,24.232,66.077,24.232,102.846   c0,35.392-10.231,37.717-10.231,48.81c0.02,7.062,7.214,16.847,16.447,21.461c9.389-4.55,16.371-14.397,16.389-21.461   c0-11.093-10.23-13.418-10.23-48.81C156.964,497.03,181.196,462.83,181.196,430.953z M753.07,79.687   c0-1.021-6.394-3.091-6.394-15.041c0-5.212,6.271-13.646,14.625-13.646c8.22,0,15.336,4.574,18.454,12.998V31.357   c-0.062-0.139-0.121-0.276-0.187-0.415h-67.041c-0.037,0.65-0.058,1.302-0.058,1.957C712.472,74.302,753.07,80.969,753.07,79.687z    M577.075,116.865c8.356,0,14.887-6.87,14.887-15.183c0-3.307-1.607-6.905-3.032-7.476c-0.761,0.759-4.354,6.656-11.854,6.656   c-9.637,0-16.896-9.258-16.896-26.777C560.18,59.27,569.26,51,580.323,51c8.356,0,14.625,8.434,14.625,13.646   c0,11.95-6.394,14.02-6.394,15.041c0,1.281,40.599-5.386,40.599-46.788c0-0.655-0.021-1.307-0.056-1.957h-67.043   c-7.409,16.294-10.496,34.001-10.496,43.072C551.559,100.164,563.282,116.865,577.075,116.865z M764.551,410.862   c-7.503,0-11.097-5.898-11.854-6.656c-1.424,0.57-3.033,4.168-3.033,7.475c0,8.312,6.529,15.184,14.887,15.184   c2.863,0,5.636-0.73,8.234-2.104c0.826-6.176,1.584-12.421,2.271-18.734C772.208,409.212,768.595,410.862,764.551,410.862z    M524.36,122.607c0.018,7.061,7.213,16.844,16.446,21.46c9.39-4.549,16.369-14.399,16.388-21.46c0-11.093-10.23-13.418-10.23-48.81   c0-14.69,3.871-28.97,8.52-42.855h-29.408c4.646,13.886,8.519,28.165,8.519,42.855C534.59,109.189,524.36,111.515,524.36,122.607z    M441.195,740.952c0-19.812-26.972-57.135-30.416-57.135c-3.447,0-30.421,37.321-30.421,57.135   c0,31.877,24.23,66.078,24.23,102.847c0,35.392-10.23,37.717-10.23,48.81c0.02,7.062,7.215,16.846,16.446,21.461   c9.391-4.55,16.371-14.397,16.389-21.461c0-11.093-10.23-13.418-10.23-48.81C416.962,807.03,441.195,772.829,441.195,740.952z    M239.979,624.243c-13.111-9.784-28.651-5.317-35.63,1.377c-6.979,6.692-11.875,16.687-11.875,27.279   c0,41.401,40.597,48.069,40.597,46.788c0-1.022-6.393-3.092-6.393-15.041c0-5.213,6.269-13.646,14.626-13.646   c11.062,0,20.142,8.271,20.142,23.084c0,17.521-7.256,26.776-16.895,26.776c-7.501,0-11.095-5.896-11.854-6.656   c-1.425,0.57-3.034,4.17-3.034,7.478c0,8.312,6.53,15.183,14.887,15.183c13.793,0,25.518-16.698,25.518-42.851   C270.067,679.198,261.856,641.341,239.979,624.243z M581.649,624.243c-21.88,17.099-30.091,54.955-30.091,69.771   c0,26.15,11.726,42.851,25.519,42.851c8.356,0,14.887-6.869,14.887-15.183c0-3.307-1.607-6.905-3.032-7.478   c-0.761,0.761-4.354,6.656-11.854,6.656c-9.637,0-16.896-9.259-16.896-26.776c0-14.814,9.08-23.084,20.144-23.084   c8.356,0,14.625,8.434,14.625,13.646c0,11.949-6.394,14.02-6.394,15.041c0,1.281,40.599-5.387,40.599-46.788   c0-10.595-4.896-20.587-11.875-27.279C610.299,618.925,594.758,614.458,581.649,624.243z M493.07,79.687   c0-1.021-6.394-3.091-6.394-15.041c0-5.212,6.271-13.646,14.625-13.646c11.062,0,20.144,8.27,20.144,23.084   c0,17.52-7.256,26.777-16.896,26.777c-7.503,0-11.097-5.897-11.854-6.656c-1.424,0.57-3.033,4.169-3.033,7.476   c0,8.312,6.529,15.183,14.888,15.183c13.793,0,25.519-16.7,25.519-42.85c0-9.071-3.086-26.778-10.496-43.072H452.53   c-0.037,0.65-0.058,1.302-0.058,1.957C452.473,74.302,493.07,80.969,493.07,79.687z M60.323,51.001   c8.356,0,14.626,8.434,14.626,13.646c0,11.95-6.393,14.02-6.393,15.041c0,1.281,40.598-5.386,40.598-46.788   c0-0.655-0.02-1.307-0.056-1.957H42.055c-0.104,0.229-0.209,0.459-0.312,0.689v32.691C44.797,55.689,51.997,51.001,60.323,51.001z    M233.07,79.687c0-1.021-6.393-3.091-6.393-15.041c0-5.212,6.269-13.646,14.626-13.646c11.062,0,20.142,8.27,20.142,23.084   c0,17.52-7.256,26.777-16.895,26.777c-7.501,0-11.096-5.897-11.854-6.656c-1.425,0.57-3.034,4.169-3.034,7.476   c0,8.312,6.53,15.183,14.887,15.183c13.793,0,25.518-16.7,25.518-42.85c0-9.071-3.086-26.778-10.495-43.072H192.53   c-0.037,0.65-0.056,1.302-0.056,1.957C192.474,74.302,233.07,80.969,233.07,79.687z M264.359,122.607   c0.02,7.061,7.214,16.844,16.447,21.46c9.389-4.549,16.371-14.399,16.389-21.46c0-11.093-10.23-13.418-10.23-48.81   c0-14.69,3.871-28.97,8.517-42.855h-29.406c4.646,13.886,8.517,28.165,8.517,42.855   C274.591,109.189,264.359,111.515,264.359,122.607z M317.077,116.865c8.356,0,14.886-6.87,14.886-15.183   c0-3.307-1.607-6.905-3.032-7.476c-0.761,0.759-4.354,6.656-11.854,6.656c-9.639,0-16.896-9.258-16.896-26.777   c0-14.814,9.08-23.084,20.143-23.084c8.355,0,14.626,8.434,14.626,13.646c0,11.95-6.394,14.02-6.394,15.041   c0,1.281,40.599-5.386,40.599-46.788c0-0.655-0.021-1.307-0.057-1.957h-67.043c-7.409,16.294-10.495,34.001-10.495,43.072   C291.56,100.164,303.283,116.865,317.077,116.865z M280.806,454.068c9.389-4.55,16.371-14.399,16.389-21.461   c0-11.093-10.23-13.418-10.23-48.81c0-36.77,24.232-70.969,24.232-102.845c0-19.813-26.971-57.136-30.417-57.136   c-3.445,0-30.421,37.322-30.421,57.136c0,31.876,24.232,66.076,24.232,102.845c0,35.391-10.231,37.717-10.231,48.81   C264.378,439.668,271.573,449.451,280.806,454.068z M244.551,410.863c-7.501,0-11.095-5.898-11.854-6.656   c-1.425,0.57-3.034,4.168-3.034,7.475c0,8.312,6.53,15.184,14.887,15.184c13.793,0,25.518-16.701,25.518-42.85   c0-14.816-8.211-52.674-30.088-69.773c-13.111-9.783-28.651-5.316-35.63,1.379c-6.979,6.693-11.875,16.684-11.875,27.279   c0,41.402,40.597,48.068,40.597,46.787c0-1.021-6.393-3.09-6.393-15.041c0-5.211,6.269-13.645,14.626-13.645   c11.062,0,20.142,8.27,20.142,23.084C261.445,401.605,254.189,410.863,244.551,410.863z M201.964,561.682   c0-3.307-1.609-6.905-3.033-7.477c-0.76,0.76-4.354,6.655-11.855,6.655c-9.638,0-16.895-9.259-16.895-26.776   c0-14.814,9.08-23.084,20.142-23.084c8.356,0,14.626,8.434,14.626,13.646c0,11.948-6.393,14.019-6.393,15.041   c0,1.28,40.598-5.388,40.598-46.789c0-10.595-4.896-20.585-11.875-27.278c-6.979-6.694-22.52-11.161-35.63-1.379   c-21.878,17.1-30.089,54.956-30.089,69.771c0,26.15,11.724,42.851,25.518,42.851C195.435,576.864,201.964,569.995,201.964,561.682z    M334.348,155.62c-6.979,6.693-11.875,16.685-11.875,27.279c0,41.402,40.598,48.069,40.598,46.788   c0-1.021-6.394-3.091-6.394-15.041c0-5.212,6.27-13.646,14.626-13.646c11.062,0,20.143,8.27,20.143,23.084   c0,17.52-7.257,26.777-16.896,26.777c-7.501,0-11.096-5.897-11.854-6.656c-1.425,0.57-3.033,4.169-3.033,7.476   c0,8.312,6.529,15.183,14.887,15.183c13.794,0,25.52-16.7,25.52-42.85c0-14.815-8.212-52.674-30.089-69.772   C356.867,144.459,341.327,148.926,334.348,155.62z M134.359,272.607c0.02,7.061,7.214,16.844,16.447,21.46   c9.389-4.549,16.371-14.4,16.389-21.46c0-11.093-10.23-13.418-10.23-48.81c0-36.769,24.232-70.968,24.232-102.845   c0-19.813-26.971-57.136-30.417-57.136c-3.445,0-30.421,37.322-30.421,57.136c0,31.877,24.232,66.076,24.232,102.845   C144.591,259.189,134.359,261.515,134.359,272.607z M317.077,426.865c8.356,0,14.886-6.871,14.886-15.184   c0-3.307-1.607-6.904-3.032-7.475c-0.761,0.758-4.354,6.656-11.854,6.656c-9.639,0-16.896-9.258-16.896-26.777   c0-14.814,9.08-23.084,20.143-23.084c8.355,0,14.626,8.434,14.626,13.645c0,11.951-6.394,14.02-6.394,15.041   c0,1.281,40.599-5.385,40.599-46.787c0-10.596-4.896-20.586-11.875-27.279c-6.979-6.695-22.521-11.162-35.63-1.379   c-21.879,17.1-30.089,54.957-30.089,69.773C291.56,410.164,303.283,426.865,317.077,426.865z M68.931,94.205   c-0.76,0.759-4.354,6.656-11.855,6.656c-6.985,0-12.705-4.889-15.332-14.24v22.217c4.308,5.178,9.644,8.026,15.334,8.026   c8.357,0,14.887-6.87,14.887-15.183C71.964,98.374,70.355,94.776,68.931,94.205z M187.077,266.864   c8.357,0,14.887-6.87,14.887-15.183c0-3.307-1.609-6.905-3.033-7.476c-0.76,0.759-4.354,6.656-11.855,6.656   c-9.638,0-16.895-9.258-16.895-26.777c0-14.814,9.08-23.084,20.142-23.084c8.356,0,14.626,8.434,14.626,13.646   c0,11.95-6.393,14.02-6.393,15.041c0,1.281,40.598-5.386,40.598-46.788c0-10.595-4.896-20.586-11.875-27.279   c-6.979-6.695-22.52-11.161-35.63-1.378c-21.878,17.099-30.089,54.957-30.089,69.772   C161.56,250.164,173.283,266.864,187.077,266.864z M71.963,411.681c0-3.307-1.608-6.904-3.032-7.475   c-0.761,0.758-4.354,6.656-11.855,6.656c-4.11,0-7.78-1.699-10.646-4.989c0.688,6.342,1.447,12.614,2.278,18.817   c2.638,1.422,5.457,2.175,8.37,2.175C65.435,426.865,71.963,419.994,71.963,411.681z M41.742,252.78v64.829   c0,1.773,0.022,3.526,0.033,5.29c5.037-14.414,9.421-28.39,9.421-41.944C51.197,273.158,47.017,262.656,41.742,252.78z    M74.348,155.62c-6.979,6.693-11.875,16.685-11.875,27.279c0,41.402,40.597,48.069,40.597,46.788c0-1.021-6.393-3.091-6.393-15.041   c0-5.212,6.269-13.646,14.626-13.646c11.062,0,20.142,8.27,20.142,23.084c0,17.52-7.256,26.777-16.895,26.777   c-7.501,0-11.096-5.897-11.854-6.656c-1.425,0.57-3.034,4.169-3.034,7.476c0,8.312,6.53,15.183,14.887,15.183   c13.793,0,25.518-16.7,25.518-42.85c0-14.815-8.211-52.674-30.088-69.772C96.867,144.459,81.327,148.926,74.348,155.62z    M60.323,361.001c8.356,0,14.626,8.434,14.626,13.645c0,11.951-6.393,14.02-6.393,15.041c0,1.281,40.598-5.385,40.598-46.787   c0-10.596-4.896-20.586-11.875-27.279c-6.979-6.695-22.52-11.162-35.63-1.379c-8.476,6.625-14.892,16.367-19.583,26.676   c0.274,10.085,0.717,20.021,1.336,29.793C46.998,364.398,53.248,361.001,60.323,361.001z"
   stroke-miterlimit="10"
   stroke-width="3"
   stroke="#1d1d1b"
   fill="#f2bc51" />
</g>
<g
   id="g11">
	<path
   id="path13"
   d="M328.727,80.028c0,0,23.157-9.653,23.157-27.521   c0-9.755-4.545-17.248-11.336-21.212h-23.189c-11.723,6.566-21.462,22.882-21.462,43.662c0,16.862,8.229,34.584,20.688,34.584   c9.33,0,13.917-10.757,12.529-14.964 M198.727,230.028c0,0,23.157-9.653,23.157-27.521c0-14.771-10.416-24.359-23.278-24.359   c-15.993-0.001-32.71,19.583-32.71,46.808c0,16.862,8.229,34.584,20.689,34.584c9.33,0,13.917-10.757,12.528-14.964    M198.727,540.029c0,0,23.157-9.652,23.157-27.521c0-14.771-10.416-24.356-23.278-24.356c-15.993-0.002-32.71,19.582-32.71,46.809   c0,16.861,8.229,34.584,20.689,34.584c9.33,0,13.917-10.758,12.528-14.965 M328.727,390.028c0,0,23.157-9.653,23.157-27.521   c0-14.771-10.416-24.359-23.277-24.359c-15.993-0.001-32.71,19.583-32.71,46.808c0,16.862,8.229,34.584,20.689,34.584   c9.329,0,13.916-10.757,12.528-14.964 M362.765,864.576c-1.389,4.207,3.2,14.967,12.528,14.967   c12.46,0,20.689-17.725,20.689-34.586c0-27.227-16.718-46.809-32.71-46.809c-12.862,0-23.278,9.588-23.278,24.358   c0,17.867,23.157,27.521,23.157,27.521 M328.727,700.029c0,0,23.157-9.652,23.157-27.521c0-14.771-10.416-24.356-23.277-24.356   c-15.993-0.002-32.71,19.582-32.71,46.809c0,16.861,8.229,34.584,20.689,34.584c9.329,0,13.916-10.758,12.528-14.965    M362.765,554.576c-1.389,4.207,3.2,14.967,12.528,14.967c12.46,0,20.689-17.725,20.689-34.586   c0-27.227-16.718-46.809-32.71-46.809c-12.862,0-23.278,9.588-23.278,24.358c0,17.867,23.157,27.521,23.157,27.521 M232.765,94.577   c-1.388,4.207,3.2,14.964,12.529,14.964c12.46,0,20.688-17.722,20.688-34.584c0-20.779-9.741-37.095-21.462-43.662h-23.188   c-6.791,3.965-11.336,11.457-11.336,21.212c0,17.868,23.156,27.521,23.156,27.521 M102.765,554.576   c-1.388,4.207,3.2,14.967,12.529,14.967c12.46,0,20.688-17.725,20.688-34.586c0-27.227-16.717-46.809-32.71-46.809   c-12.861,0-23.277,9.588-23.277,24.358c0,17.867,23.156,27.521,23.156,27.521 M232.765,714.576   c-1.388,4.207,3.2,14.967,12.529,14.967c12.46,0,20.688-17.725,20.688-34.586c0-27.227-16.717-46.809-32.71-46.809   c-12.861,0-23.277,9.588-23.277,24.358c0,17.867,23.156,27.521,23.156,27.521 M588.727,700.029c0,0,23.158-9.652,23.158-27.521   c0-14.771-10.416-24.356-23.278-24.356c-15.992-0.002-32.709,19.582-32.709,46.809c0,16.861,8.229,34.584,20.688,34.584   c9.326,0,13.916-10.758,12.527-14.965 M362.765,244.577c-1.389,4.207,3.2,14.964,12.528,14.964   c12.46,0,20.689-17.722,20.689-34.584c0-27.226-16.718-46.809-32.71-46.808c-12.862,0-23.278,9.588-23.278,24.359   c0,17.868,23.157,27.521,23.157,27.521 M232.765,404.577c-1.388,4.207,3.2,14.964,12.529,14.964   c12.46,0,20.688-17.722,20.688-34.584c0-27.226-16.717-46.809-32.71-46.808c-12.861,0-23.277,9.588-23.277,24.359   c0,17.868,23.156,27.521,23.156,27.521 M102.765,244.577c-1.388,4.207,3.2,14.964,12.529,14.964   c12.46,0,20.688-17.722,20.688-34.584c0-27.226-16.717-46.809-32.71-46.808c-12.861,0-23.277,9.588-23.277,24.359   c0,17.868,23.156,27.521,23.156,27.521 M68.727,390.028c0,0,23.157-9.653,23.157-27.521c0-14.771-10.416-24.359-23.278-24.359   c-9.633,0-19.523,7.112-25.871,18.712c0.946,20.433,2.625,40.201,4.963,59.323c2.622,2.119,5.605,3.357,8.887,3.357   c9.329,0,13.916-10.757,12.528-14.964 M622.766,244.577c-1.389,4.207,3.199,14.964,12.529,14.964   c12.459,0,20.688-17.722,20.688-34.584c0-27.226-16.718-46.809-32.709-46.808c-12.863,0-23.277,9.588-23.277,24.359   c0,17.868,23.156,27.521,23.156,27.521 M458.729,540.029c0,0,23.156-9.652,23.156-27.521c0-14.771-10.416-24.356-23.278-24.356   c-15.992-0.002-32.709,19.582-32.709,46.809c0,16.861,8.229,34.584,20.688,34.584c9.33,0,13.916-10.758,12.529-14.965    M492.766,404.577c-1.391,4.207,3.199,14.964,12.527,14.964c12.461,0,20.689-17.722,20.689-34.584   c0-27.226-16.718-46.809-32.709-46.808c-12.861,0-23.277,9.588-23.277,24.359c0,17.868,23.156,27.521,23.156,27.521    M752.766,94.577c-1.389,4.207,3.199,14.964,12.529,14.964c5.965,0,10.955-4.068,14.543-10.153V48.159   c-3.914-7.681-9.359-13.527-15.315-16.864h-23.189c-6.791,3.965-11.336,11.457-11.336,21.212c0,17.868,23.156,27.521,23.156,27.521    M492.766,94.577c-1.391,4.207,3.199,14.964,12.527,14.964c12.461,0,20.689-17.722,20.689-34.584   c0-20.779-9.74-37.095-21.461-43.662h-23.189c-6.791,3.965-11.336,11.457-11.336,21.212c0,17.868,23.156,27.521,23.156,27.521    M68.727,80.028c0,0,23.157-9.653,23.157-27.521c0-9.755-4.545-17.248-11.336-21.212h-23.19   c-6.07,3.401-11.606,9.414-15.536,17.314v50.402c3.603,6.294,8.676,10.53,14.764,10.53c9.33,0,13.917-10.757,12.528-14.964    M752.766,404.577c-1.391,4.207,3.199,14.964,12.527,14.964c3.18,0,6.082-1.159,8.643-3.158c2.367-19.302,4.06-39.262,5.005-59.9   c-6.354-11.38-16.138-18.334-25.666-18.334c-12.861,0-23.277,9.588-23.277,24.359c0,17.868,23.156,27.521,23.156,27.521    M458.729,850.029c0,0,23.156-9.652,23.156-27.521c0-14.771-10.416-24.356-23.278-24.356   c-15.992-0.002-32.709,19.582-32.709,46.809c0,16.861,8.229,34.584,20.688,34.584c9.33,0,13.916-10.758,12.529-14.965    M458.729,230.028c0,0,23.156-9.653,23.156-27.521c0-14.771-10.416-24.359-23.278-24.359   c-15.992-0.001-32.709,19.583-32.709,46.808c0,16.862,8.229,34.584,20.688,34.584c9.33,0,13.916-10.757,12.529-14.964    M718.727,540.029c0,0,23.158-9.652,23.158-27.521c0-14.771-10.416-24.356-23.278-24.356   c-15.992-0.002-32.709,19.582-32.709,46.809c0,16.861,8.229,34.584,20.688,34.584c9.326,0,13.916-10.758,12.527-14.965    M622.766,554.576c-1.389,4.207,3.199,14.967,12.529,14.967c12.459,0,20.688-17.725,20.688-34.586   c0-27.227-16.718-46.809-32.709-46.809c-12.863,0-23.277,9.588-23.277,24.358c0,17.867,23.156,27.521,23.156,27.521    M718.727,230.028c0,0,23.158-9.653,23.158-27.521c0-14.771-10.416-24.359-23.278-24.359   c-15.992-0.001-32.709,19.583-32.709,46.808c0,16.862,8.229,34.584,20.688,34.584c9.326,0,13.916-10.757,12.527-14.964    M492.766,714.576c-1.391,4.207,3.199,14.967,12.527,14.967c12.461,0,20.689-17.725,20.689-34.586   c0-27.227-16.718-46.809-32.709-46.809c-12.861,0-23.277,9.588-23.277,24.358c0,17.867,23.156,27.521,23.156,27.521    M588.727,390.028c0,0,23.158-9.653,23.158-27.521c0-14.771-10.416-24.359-23.278-24.359   c-15.992-0.001-32.709,19.583-32.709,46.808c0,16.862,8.229,34.584,20.688,34.584c9.326,0,13.916-10.757,12.527-14.964    M588.727,80.028c0,0,23.158-9.653,23.158-27.521c0-9.755-4.545-17.248-11.336-21.212h-23.19   c-11.724,6.566-21.464,22.882-21.464,43.662c0,16.862,8.229,34.584,20.689,34.584c9.328,0,13.916-10.757,12.529-14.964"
   stroke-miterlimit="10"
   stroke-width="3"
   stroke="#1d1d1b"
   fill="none" />
</g>
<line
   id="line15"
   y2="914.068"
   x2="410.779"
   y1="683.817"
   x1="410.779"
   stroke-miterlimit="10"
   stroke-width="3"
   stroke="#1d1d1b"
   fill="none" />
<line
   id="line17"
   y2="603.817"
   x2="410.779"
   y1="373.566"
   x1="410.779"
   stroke-miterlimit="10"
   stroke-width="3"
   stroke="#1d1d1b"
   fill="none" />
<line
   id="line19"
   y2="293.292"
   x2="410.779"
   y1="63.041"
   x1="410.779"
   stroke-miterlimit="10"
   stroke-width="3"
   stroke="#1d1d1b"
   fill="none" />
<line
   id="line21"
   y2="603.817"
   x2="670.833"
   y1="373.566"
   x1="670.833"
   stroke-miterlimit="10"
   stroke-width="3"
   stroke="#1d1d1b"
   fill="none" />
<line
   id="line23"
   y2="293.292"
   x2="670.833"
   y1="63.041"
   x1="670.833"
   stroke-miterlimit="10"
   stroke-width="3"
   stroke="#1d1d1b"
   fill="none" />
<line
   id="line25"
   y2="764.818"
   x2="540.75"
   y1="534.567"
   x1="540.75"
   stroke-miterlimit="10"
   stroke-width="3"
   stroke="#1d1d1b"
   fill="none" />
<line
   id="line27"
   y2="453.419"
   x2="540.75"
   y1="223.168"
   x1="540.75"
   stroke-miterlimit="10"
   stroke-width="3"
   stroke="#1d1d1b"
   fill="none" />
<line
   id="line29"
   y2="142.253"
   x2="540.75"
   y1="31.295"
   x1="540.75"
   stroke-miterlimit="10"
   stroke-width="3"
   stroke="#1d1d1b"
   fill="none" />
<line
   id="line31"
   y2="603.817"
   x2="150.834"
   y1="373.566"
   x1="150.834"
   stroke-miterlimit="10"
   stroke-width="3"
   stroke="#1d1d1b"
   fill="none" />
<line
   id="line33"
   y2="293.292"
   x2="150.834"
   y1="63.041"
   x1="150.834"
   stroke-miterlimit="10"
   stroke-width="3"
   stroke="#1d1d1b"
   fill="none" />
<line
   id="line35"
   y2="764.818"
   x2="280.625"
   y1="534.567"
   x1="280.625"
   stroke-miterlimit="10"
   stroke-width="3"
   stroke="#1d1d1b"
   fill="none" />
<line
   id="line37"
   y2="453.419"
   x2="280.625"
   y1="223.168"
   x1="280.625"
   stroke-miterlimit="10"
   stroke-width="3"
   stroke="#1d1d1b"
   fill="none" />
<line
   id="line39"
   y2="142.253"
   x2="280.625"
   y1="31.295"
   x1="280.625"
   stroke-miterlimit="10"
   stroke-width="3"
   stroke="#1d1d1b"
   fill="none" />
<g
   id="g41">
	<path
   id="path43"
   d="M300.969,686.04h-40.34   c-4.249,0-6.916,3.445-6.916,7.693c0,4.247,2.667,7.69,6.916,7.69h40.34c4.248,0,6.917-3.443,6.917-7.69   C307.886,689.485,305.217,686.04,300.969,686.04z M430.969,526.04h-40.341c-4.249,0-6.916,3.445-6.916,7.693   c0,4.247,2.667,7.69,6.916,7.69h40.341c4.248,0,6.916-3.443,6.916-7.69C437.885,529.485,435.217,526.04,430.969,526.04z    M430.969,216.04h-40.341c-4.249,0-6.916,3.444-6.916,7.692s2.667,7.691,6.916,7.691h40.341c4.248,0,6.916-3.443,6.916-7.691   S435.217,216.04,430.969,216.04z M430.969,836.04h-40.341c-4.249,0-6.916,3.445-6.916,7.693c0,4.247,2.667,7.69,6.916,7.69h40.341   c4.248,0,6.916-3.443,6.916-7.69C437.885,839.485,435.217,836.04,430.969,836.04z M690.969,526.04h-40.341   c-4.25,0-6.916,3.445-6.916,7.693c0,4.247,2.666,7.69,6.916,7.69h40.341c4.248,0,6.916-3.443,6.916-7.69   C697.885,529.485,695.217,526.04,690.969,526.04z M690.969,216.04h-40.341c-4.25,0-6.916,3.444-6.916,7.692   s2.666,7.691,6.916,7.691h40.341c4.248,0,6.916-3.443,6.916-7.691S695.217,216.04,690.969,216.04z M300.969,376.04h-40.34   c-4.249,0-6.916,3.445-6.916,7.693s2.667,7.691,6.916,7.691h40.34c4.248,0,6.917-3.443,6.917-7.691S305.217,376.04,300.969,376.04z    M300.969,66.04h-40.34c-4.249,0-6.916,3.444-6.916,7.692s2.667,7.691,6.916,7.691h40.34c4.248,0,6.917-3.443,6.917-7.691   S305.217,66.04,300.969,66.04z M170.969,216.04h-40.34c-4.249,0-6.916,3.444-6.916,7.692s2.667,7.691,6.916,7.691h40.34   c4.248,0,6.917-3.443,6.917-7.691S175.217,216.04,170.969,216.04z M41.742,66.08v15.305c3.795-0.392,6.144-3.668,6.144-7.652   S45.539,66.473,41.742,66.08z M773.712,73.733c0,3.949,2.308,7.199,6.046,7.637V66.095   C776.02,66.533,773.712,69.784,773.712,73.733z M560.969,66.04h-40.341c-4.25,0-6.916,3.444-6.916,7.692s2.666,7.691,6.916,7.691   h40.341c4.248,0,6.916-3.443,6.916-7.691S565.217,66.04,560.969,66.04z M560.969,376.04h-40.341c-4.25,0-6.916,3.445-6.916,7.693   s2.666,7.691,6.916,7.691h40.341c4.248,0,6.916-3.443,6.916-7.691S565.217,376.04,560.969,376.04z M170.969,526.04h-40.34   c-4.249,0-6.916,3.445-6.916,7.693c0,4.247,2.667,7.69,6.916,7.69h40.34c4.248,0,6.917-3.443,6.917-7.69   C177.886,529.485,175.217,526.04,170.969,526.04z M560.969,686.04h-40.341c-4.25,0-6.916,3.445-6.916,7.693   c0,4.247,2.666,7.69,6.916,7.69h40.341c4.248,0,6.916-3.443,6.916-7.69C567.885,689.485,565.217,686.04,560.969,686.04z"
   stroke-miterlimit="10"
   stroke-width="3"
   stroke="#1d1d1b"
   fill="#f2bc51" />
</g>
<g
   id="g45">
	<polygon
   id="polygon47"
   points="410.698,924.5 417.661,921.551    425.366,918.021 433.177,914.22 442.712,909.332 458.905,900.44 475.176,890.79 492.008,880.053 505.44,870.924 517.326,862.415    529.428,853.323 540.177,844.862 549.428,837.278 562.827,825.767 576.447,813.392 588.479,801.847 601.385,788.763    609.259,780.396 616.475,772.457 623.923,763.969 634.676,751.149 642.53,741.326 651.604,729.449 659.016,719.303 667.617,706.95    673.851,697.586 680.509,687.156 684.299,681.007 691.438,668.964 697.447,658.324 703.379,647.319 711.005,632.333    716.823,620.176 722.388,607.887 728.909,592.508 733.25,581.61 736.785,572.265 741.984,557.676 746.44,544.199 750.365,531.64    753.948,518.928 757.308,506.275 760.887,491.567 764.071,477.121 766.394,465.565 768.541,453.862 770.535,441.862    772.536,428.381 774.286,414.896 775.598,403.312 776.719,391.833 777.861,377.749 778.979,360.396 779.395,349.209 780,332.9    780,30.9 41.101,30.9 41.101,332.9 41.706,349.209 42.122,360.396 43.237,377.749 44.382,391.833 45.503,403.312 46.812,414.896    48.562,428.381 50.562,441.862 52.56,453.862 54.707,465.565 57.027,477.121 60.214,491.567 63.793,506.275 67.149,518.928    70.731,531.64 74.659,544.199 79.115,557.676 84.312,572.265 87.851,581.61 92.188,592.508 98.713,607.887 104.274,620.176    110.096,632.333 117.722,647.319 123.65,658.324 129.661,668.964 136.802,681.007 140.592,687.156 147.25,697.586 153.479,706.95    162.085,719.303 169.495,729.449 178.567,741.326 186.425,751.149 197.178,763.969 204.626,772.457 211.842,780.396    219.716,788.763 232.622,801.847 244.65,813.392 258.271,825.767 271.673,837.278 280.924,844.862 291.673,853.323    303.771,862.415 315.657,870.924 329.093,880.053 345.925,890.79 362.193,900.44 378.389,909.332 387.924,914.22 395.73,918.021    403.438,921.551  "
   stroke-miterlimit="10"
   stroke-width="5"
   stroke="#000000"
   fill="none" />
</g>
</svg>