<?xml version="1.0" encoding="UTF-8" standalone="no"?>
<!-- Generator: Adobe Illustrator 16.0.0, SVG Export Plug-In . SVG Version: 6.00 Build 0)  -->
<svg xmlns:dc="http://purl.org/dc/elements/1.1/" xmlns:cc="http://creativecommons.org/ns#" xmlns:rdf="http://www.w3.org/1999/02/22-rdf-syntax-ns#" xmlns:svg="http://www.w3.org/2000/svg" xmlns="http://www.w3.org/2000/svg" xmlns:sodipodi="http://sodipodi.sourceforge.net/DTD/sodipodi-0.dtd" xmlns:inkscape="http://www.inkscape.org/namespaces/inkscape" version="1.1" id="Layer_1" x="0px" y="0px" width="820px" height="952px" viewBox="0 0 820 952" enable-background="new 0 0 820 952" xml:space="preserve" inkscape:version="0.48.4 r9939" sodipodi:docname="Davila.svg"><sodipodi:namedview pagecolor="#ffffff" bordercolor="#666666" borderopacity="1" objecttolerance="10" gridtolerance="10" guidetolerance="10" inkscape:pageopacity="0" inkscape:pageshadow="2" inkscape:window-width="640" inkscape:window-height="480" id="namedview113" showgrid="false" inkscape:zoom="0.24789916" inkscape:cx="410" inkscape:cy="476" inkscape:window-x="0" inkscape:window-y="0" inkscape:window-maximized="0" inkscape:current-layer="Layer_1"/><metadata id="metadata117"><rdf:RDF><cc:Work rdf:about=""><dc:format>image/svg+xml</dc:format><dc:type rdf:resource="http://purl.org/dc/dcmitype/StillImage"/></cc:Work></rdf:RDF></metadata><defs id="defs115"/>
<path fill="#f2bc51" d="M779.675,30.943c0,0,0,270.779,0,286.667c0,463.828-369.289,606.947-369.289,606.947  S41.659,781.438,41.659,317.608c0-15.887,0-286.667,0-286.667L779.675,30.943L779.675,30.943z" id="path3"/>
<g id="g5">
	<polygon fill="none" stroke="#000000" stroke-width="5" stroke-miterlimit="10" points="410.698,924.5 417.66,921.551    425.365,918.021 433.177,914.22 442.712,909.332 458.906,900.44 475.176,890.79 492.008,880.053 505.442,870.924 517.325,862.415    529.428,853.323 540.177,844.862 549.428,837.278 562.826,825.767 576.448,813.392 588.479,801.847 601.385,788.763    609.259,780.396 616.475,772.457 623.923,763.969 634.676,751.149 642.531,741.326 651.606,729.449 659.016,719.303    667.616,706.95 673.851,697.586 680.509,687.156 684.299,681.007 691.44,668.964 697.448,658.324 703.379,647.319 711.005,632.333    716.823,620.176 722.388,607.887 728.908,592.508 733.25,581.61 736.784,572.265 741.986,557.676 746.442,544.199 750.365,531.64    753.948,518.928 757.308,506.275 760.887,491.567 764.073,477.121 766.394,465.565 768.541,453.862 770.534,441.862    772.535,428.381 774.285,414.896 775.598,403.312 776.719,391.833 777.863,377.749 778.979,360.396 779.395,349.209 780,332.9    780,30.9 41.101,30.9 41.101,332.9 41.706,349.209 42.122,360.396 43.238,377.749 44.382,391.833 45.503,403.312 46.812,414.896    48.562,428.381 50.562,441.862 52.56,453.862 54.707,465.565 57.028,477.121 60.214,491.567 63.793,506.275 67.15,518.928    70.732,531.64 74.659,544.199 79.115,557.676 84.312,572.265 87.851,581.61 92.188,592.508 98.713,607.887 104.275,620.176    110.096,632.333 117.722,647.319 123.651,658.324 129.661,668.964 136.802,681.007 140.592,687.156 147.25,697.586 153.48,706.95    162.085,719.303 169.495,729.449 178.568,741.326 186.425,751.149 197.178,763.969 204.626,772.457 211.842,780.396    219.716,788.763 232.622,801.847 244.651,813.392 258.271,825.767 271.673,837.278 280.924,844.862 291.673,853.323    303.772,862.415 315.656,870.924 329.093,880.053 345.925,890.79 362.195,900.44 378.389,909.332 387.924,914.22 395.732,918.021    403.438,921.551  " id="polygon7"/>
</g>
<circle fill="#0d6793" stroke="#000000" stroke-width="3" stroke-miterlimit="10" cx="410.665" cy="794.796" r="71.275" id="circle9"/>
<circle fill="#0d6793" stroke="#000000" stroke-width="3" stroke-miterlimit="10" cx="575.132" cy="630.626" r="71.275" id="circle11"/>
<circle fill="#0d6793" stroke="#000000" stroke-width="3" stroke-miterlimit="10" cx="410.665" cy="630.626" r="71.275" id="circle13"/>
<circle fill="#0d6793" stroke="#000000" stroke-width="3" stroke-miterlimit="10" cx="246.201" cy="630.626" r="71.275" id="circle15"/>
<circle fill="#0d6793" stroke="#000000" stroke-width="3" stroke-miterlimit="10" cx="575.132" cy="465.865" r="71.275" id="circle17"/>
<circle fill="#0d6793" stroke="#000000" stroke-width="3" stroke-miterlimit="10" cx="410.665" cy="465.865" r="71.275" id="circle19"/>
<circle fill="#0d6793" stroke="#000000" stroke-width="3" stroke-miterlimit="10" cx="246.201" cy="465.865" r="71.275" id="circle21"/>
<circle fill="#0d6793" stroke="#000000" stroke-width="3" stroke-miterlimit="10" cx="575.132" cy="301.846" r="71.275" id="circle23"/>
<circle fill="#0d6793" stroke="#000000" stroke-width="3" stroke-miterlimit="10" cx="410.665" cy="301.846" r="71.275" id="circle25"/>
<circle fill="#0d6793" stroke="#000000" stroke-width="3" stroke-miterlimit="10" cx="246.201" cy="301.846" r="71.275" id="circle27"/>
<circle fill="#0d6793" stroke="#000000" stroke-width="3" stroke-miterlimit="10" cx="575.132" cy="136.935" r="71.275" id="circle29"/>
<circle fill="#0d6793" stroke="#000000" stroke-width="3" stroke-miterlimit="10" cx="410.665" cy="136.935" r="71.275" id="circle31"/>
<circle fill="#0d6793" stroke="#000000" stroke-width="3" stroke-miterlimit="10" cx="246.201" cy="136.935" r="71.275" id="circle33"/>
<g id="g35">
	<g id="g37">
		<path fill="#1d1e1c" d="M399.437,856.692c0,0,0.459,0.036,1.321,0.104c0.858,0.058,2.129,0.203,3.729,0.221    c0.802,0.014,1.684,0.076,2.646,0.054c0.963-0.021,2.005-0.045,3.118-0.069c1.106-0.086,2.284-0.178,3.526-0.272    c1.234-0.166,2.533-0.313,3.88-0.516c2.682-0.487,5.571-1.072,8.537-2.012c2.985-0.868,6.021-2.117,9.077-3.548    c3.067-1.431,6.026-3.294,8.96-5.27c2.882-2.059,5.648-4.368,8.203-6.898c0.588-0.562,1.253-1.309,1.875-1.95l0.948-1.001    l0.856-1.019c0.564-0.683,1.146-1.346,1.693-2.036c0.53-0.718,1.06-1.432,1.586-2.143c2.013-2.903,3.912-5.841,5.351-8.896    l0.567-1.126c0.165-0.386,0.33-0.769,0.495-1.147c0.329-0.761,0.655-1.515,0.979-2.261c0.551-1.529,1.181-2.998,1.595-4.494    c0.227-0.742,0.448-1.475,0.67-2.195c0.182-0.73,0.358-1.454,0.537-2.163c0.399-1.407,0.59-2.812,0.873-4.145    c0.235-1.338,0.363-2.636,0.554-3.864c0.105-1.238,0.21-2.413,0.306-3.518c0.035-1.109,0.068-2.147,0.101-3.108    c0.043-0.963-0.021-1.845-0.024-2.646c-0.006-1.604-0.134-2.854-0.185-3.716c-0.061-0.857-0.093-1.315-0.093-1.315l0.459-0.07    c0,0,0.081,0.455,0.234,1.311c0.137,0.854,0.429,2.104,0.567,3.723c0.074,0.808,0.221,1.701,0.266,2.681    c0.045,0.98,0.093,2.042,0.145,3.177c-0.016,1.137-0.03,2.347-0.049,3.62c-0.101,1.271-0.172,2.613-0.333,4.009    c-0.355,2.776-0.812,5.803-1.717,8.9c-0.371,1.572-0.96,3.125-1.472,4.743c-0.291,0.796-0.622,1.587-0.945,2.391    c-0.163,0.401-0.326,0.807-0.49,1.212c-0.188,0.395-0.376,0.791-0.563,1.188c-1.449,3.218-3.308,6.379-5.427,9.418    c-0.55,0.748-1.1,1.5-1.649,2.253c-0.58,0.738-1.201,1.46-1.803,2.192l-0.913,1.088l-0.942,1.007    c-0.653,0.68-1.202,1.321-1.94,2.035c-2.706,2.623-5.635,5.009-8.677,7.128c-0.769,0.519-1.556,1.002-2.33,1.494l-1.168,0.724    l-1.199,0.652c-0.804,0.426-1.582,0.879-2.388,1.271c-0.812,0.38-1.614,0.757-2.415,1.128c-3.222,1.427-6.445,2.553-9.575,3.312    c-3.109,0.851-6.135,1.263-8.911,1.585c-1.396,0.114-2.734,0.198-4.005,0.266c-1.271-0.002-2.479-0.003-3.613-0.004    c-1.13-0.066-2.188-0.133-3.166-0.19c-0.978-0.068-1.87-0.22-2.675-0.31c-1.618-0.16-2.847-0.476-3.698-0.621    c-0.848-0.165-1.301-0.253-1.301-0.253L399.437,856.692z" id="path39"/>
	</g>
</g>
<g id="g41">
	<g id="g43">
		<path fill="#1d1e1c" d="M563.903,692.521c0,0,0.459,0.035,1.32,0.104c0.859,0.057,2.129,0.203,3.729,0.221    c0.804,0.014,1.684,0.076,2.646,0.054c0.964-0.021,2.005-0.047,3.118-0.069c1.105-0.086,2.284-0.178,3.525-0.274    c1.234-0.166,2.533-0.312,3.88-0.514c2.682-0.488,5.571-1.072,8.537-2.012c2.985-0.868,6.021-2.117,9.077-3.548    c3.067-1.431,6.026-3.294,8.96-5.27c2.882-2.059,5.648-4.368,8.203-6.898c0.588-0.562,1.253-1.309,1.875-1.95l0.948-1.001    l0.856-1.019c0.564-0.683,1.146-1.346,1.693-2.038c0.53-0.716,1.061-1.43,1.586-2.141c2.013-2.903,3.912-5.841,5.353-8.896    l0.565-1.125c0.165-0.386,0.33-0.769,0.495-1.147c0.329-0.761,0.655-1.515,0.979-2.261c0.549-1.529,1.179-2.998,1.593-4.494    c0.227-0.742,0.45-1.475,0.67-2.195c0.182-0.73,0.359-1.454,0.537-2.163c0.399-1.409,0.59-2.812,0.873-4.145    c0.235-1.338,0.363-2.636,0.554-3.864c0.107-1.238,0.21-2.413,0.306-3.518c0.035-1.109,0.068-2.147,0.101-3.108    c0.043-0.963-0.021-1.845-0.024-2.646c-0.006-1.604-0.134-2.854-0.185-3.716c-0.061-0.857-0.092-1.315-0.092-1.315l0.459-0.07    c0,0,0.08,0.455,0.233,1.31c0.138,0.854,0.429,2.104,0.567,3.724c0.076,0.808,0.221,1.701,0.266,2.681    c0.045,0.98,0.093,2.042,0.146,3.175c-0.018,1.139-0.032,2.349-0.051,3.621c-0.101,1.271-0.172,2.614-0.332,4.01    c-0.356,2.776-0.812,5.803-1.718,8.9c-0.371,1.572-0.96,3.125-1.472,4.743c-0.291,0.796-0.622,1.587-0.945,2.391    c-0.163,0.401-0.326,0.807-0.489,1.21c-0.188,0.396-0.376,0.791-0.564,1.189c-1.449,3.218-3.306,6.379-5.427,9.418    c-0.549,0.748-1.1,1.5-1.649,2.253c-0.58,0.738-1.201,1.46-1.803,2.192l-0.913,1.088l-0.942,1.007    c-0.651,0.68-1.201,1.321-1.94,2.035c-2.706,2.623-5.633,5.009-8.676,7.128c-0.77,0.519-1.557,1.002-2.329,1.494l-1.169,0.724    l-1.2,0.652c-0.803,0.426-1.582,0.879-2.387,1.271c-0.812,0.379-1.615,0.755-2.415,1.128c-3.223,1.426-6.446,2.553-9.576,3.312    c-3.109,0.851-6.134,1.263-8.911,1.585c-1.396,0.114-2.734,0.198-4.005,0.266c-1.271-0.002-2.479-0.003-3.613-0.004    c-1.13-0.067-2.188-0.133-3.166-0.19c-0.975-0.068-1.869-0.22-2.675-0.31c-1.618-0.16-2.845-0.476-3.698-0.621    c-0.848-0.165-1.301-0.253-1.301-0.253L563.903,692.521z" id="path45"/>
	</g>
</g>
<g id="g47">
	<g id="g49">
		<path fill="#1d1e1c" d="M399.438,692.521c0,0,0.459,0.035,1.32,0.104c0.858,0.057,2.129,0.203,3.729,0.221    c0.802,0.014,1.684,0.076,2.646,0.054c0.964-0.021,2.005-0.047,3.118-0.069c1.105-0.086,2.283-0.178,3.525-0.274    c1.234-0.166,2.533-0.312,3.88-0.514c2.682-0.488,5.571-1.072,8.537-2.012c2.985-0.868,6.021-2.117,9.077-3.548    c3.067-1.431,6.026-3.294,8.96-5.27c2.882-2.059,5.648-4.368,8.203-6.898c0.588-0.562,1.253-1.309,1.875-1.95l0.948-1.001    l0.856-1.019c0.564-0.683,1.146-1.346,1.693-2.038c0.53-0.716,1.06-1.43,1.586-2.141c2.013-2.903,3.912-5.841,5.351-8.896    l0.567-1.125c0.165-0.386,0.33-0.769,0.495-1.147c0.329-0.761,0.655-1.515,0.979-2.261c0.55-1.529,1.181-2.998,1.595-4.494    c0.227-0.742,0.448-1.475,0.67-2.195c0.182-0.73,0.358-1.454,0.537-2.163c0.399-1.409,0.59-2.812,0.871-4.145    c0.237-1.338,0.365-2.636,0.556-3.864c0.105-1.238,0.21-2.413,0.306-3.518c0.035-1.109,0.068-2.147,0.1-3.108    c0.044-0.963-0.021-1.845-0.023-2.646c-0.006-1.604-0.134-2.854-0.187-3.716c-0.059-0.857-0.091-1.315-0.091-1.315l0.459-0.07    c0,0,0.081,0.455,0.234,1.31c0.137,0.854,0.429,2.104,0.567,3.724c0.074,0.808,0.221,1.701,0.266,2.681    c0.045,0.98,0.093,2.042,0.145,3.175c-0.016,1.139-0.03,2.349-0.049,3.621c-0.101,1.271-0.172,2.614-0.333,4.01    c-0.355,2.776-0.812,5.803-1.717,8.9c-0.371,1.572-0.96,3.125-1.472,4.743c-0.291,0.796-0.622,1.587-0.945,2.391    c-0.163,0.401-0.326,0.807-0.49,1.21c-0.188,0.396-0.376,0.791-0.563,1.189c-1.449,3.218-3.308,6.379-5.429,9.418    c-0.548,0.748-1.098,1.5-1.647,2.253c-0.58,0.738-1.201,1.46-1.803,2.192l-0.913,1.088l-0.942,1.007    c-0.653,0.68-1.202,1.321-1.941,2.035c-2.705,2.623-5.634,5.009-8.676,7.128c-0.769,0.519-1.556,1.002-2.33,1.494l-1.168,0.724    l-1.199,0.652c-0.804,0.426-1.582,0.879-2.388,1.271c-0.812,0.379-1.615,0.755-2.415,1.128c-3.222,1.426-6.445,2.553-9.576,3.312    c-3.108,0.851-6.134,1.263-8.91,1.585c-1.396,0.114-2.734,0.198-4.006,0.266c-1.271-0.002-2.479-0.003-3.612-0.004    c-1.13-0.067-2.188-0.133-3.166-0.19c-0.977-0.068-1.869-0.22-2.675-0.31c-1.618-0.16-2.847-0.476-3.698-0.621    c-0.849-0.165-1.301-0.253-1.301-0.253L399.438,692.521z" id="path51"/>
	</g>
</g>
<g id="g53">
	<g id="g55">
		<path fill="#1d1e1c" d="M234.972,692.521c0,0,0.459,0.035,1.32,0.104c0.858,0.057,2.129,0.203,3.729,0.221    c0.804,0.014,1.684,0.076,2.646,0.054c0.964-0.021,2.005-0.047,3.118-0.069c1.105-0.086,2.283-0.178,3.525-0.274    c1.234-0.166,2.533-0.312,3.88-0.514c2.682-0.488,5.571-1.072,8.537-2.012c2.985-0.868,6.021-2.117,9.077-3.548    c3.067-1.431,6.026-3.294,8.96-5.27c2.882-2.059,5.648-4.368,8.203-6.898c0.588-0.562,1.253-1.309,1.875-1.95l0.948-1.001    l0.856-1.019c0.564-0.683,1.146-1.346,1.693-2.038c0.53-0.716,1.06-1.43,1.586-2.141c2.013-2.903,3.912-5.841,5.351-8.896    l0.567-1.125c0.165-0.386,0.33-0.769,0.495-1.147c0.329-0.761,0.653-1.515,0.979-2.261c0.549-1.529,1.179-2.998,1.593-4.494    c0.229-0.742,0.45-1.475,0.671-2.195c0.183-0.73,0.359-1.454,0.536-2.163c0.401-1.409,0.591-2.812,0.873-4.145    c0.237-1.338,0.365-2.636,0.556-3.864c0.105-1.238,0.21-2.413,0.306-3.518c0.035-1.109,0.068-2.147,0.099-3.108    c0.043-0.963-0.021-1.845-0.022-2.646c-0.006-1.604-0.134-2.854-0.187-3.716c-0.059-0.857-0.091-1.315-0.091-1.315l0.459-0.07    c0,0,0.081,0.455,0.234,1.31c0.137,0.854,0.429,2.104,0.565,3.724c0.076,0.808,0.223,1.701,0.268,2.681    c0.045,0.98,0.093,2.042,0.145,3.175c-0.016,1.139-0.032,2.349-0.049,3.621c-0.101,1.271-0.172,2.614-0.333,4.01    c-0.357,2.776-0.812,5.803-1.717,8.9c-0.371,1.572-0.96,3.125-1.474,4.743c-0.29,0.796-0.62,1.587-0.943,2.391    c-0.163,0.401-0.326,0.807-0.49,1.21c-0.188,0.396-0.376,0.791-0.565,1.189c-1.447,3.218-3.306,6.379-5.427,9.418    c-0.548,0.748-1.098,1.5-1.647,2.253c-0.58,0.738-1.201,1.46-1.803,2.192l-0.913,1.088l-0.942,1.007    c-0.653,0.68-1.202,1.321-1.94,2.035c-2.706,2.623-5.635,5.009-8.677,7.128c-0.769,0.519-1.556,1.002-2.33,1.494l-1.168,0.724    l-1.199,0.652c-0.804,0.426-1.582,0.879-2.388,1.271c-0.812,0.379-1.614,0.755-2.415,1.128c-3.222,1.426-6.445,2.553-9.576,3.312    c-3.108,0.851-6.134,1.263-8.91,1.585c-1.396,0.114-2.734,0.198-4.005,0.266c-1.271-0.002-2.479-0.003-3.613-0.004    c-1.13-0.067-2.188-0.133-3.166-0.19c-0.977-0.068-1.869-0.22-2.675-0.31c-1.618-0.16-2.847-0.476-3.698-0.621    c-0.849-0.165-1.301-0.253-1.301-0.253L234.972,692.521z" id="path57"/>
	</g>
</g>
<g id="g59">
	<g id="g61">
		<path fill="#1d1e1c" d="M563.903,527.761c0,0,0.459,0.036,1.32,0.104c0.859,0.057,2.129,0.203,3.729,0.221    c0.804,0.012,1.684,0.076,2.646,0.052c0.964-0.021,2.005-0.045,3.118-0.067c1.105-0.086,2.284-0.18,3.525-0.274    c1.234-0.166,2.533-0.312,3.88-0.514c2.682-0.488,5.571-1.072,8.537-2.013c2.985-0.867,6.021-2.116,9.077-3.549    c3.067-1.429,6.026-3.294,8.96-5.268c2.882-2.06,5.648-4.368,8.203-6.9c0.588-0.561,1.253-1.307,1.875-1.949l0.948-1.002    l0.856-1.017c0.564-0.683,1.146-1.346,1.693-2.038c0.53-0.716,1.061-1.43,1.586-2.141c2.013-2.903,3.912-5.841,5.353-8.897    l0.565-1.126c0.165-0.384,0.33-0.767,0.495-1.146c0.329-0.763,0.655-1.517,0.979-2.263c0.549-1.527,1.179-2.997,1.593-4.492    c0.227-0.742,0.45-1.477,0.67-2.195c0.182-0.732,0.359-1.454,0.537-2.163c0.399-1.409,0.59-2.812,0.873-4.146    c0.235-1.339,0.363-2.637,0.554-3.863c0.107-1.238,0.21-2.413,0.306-3.52c0.035-1.107,0.068-2.146,0.101-3.106    c0.043-0.963-0.021-1.847-0.024-2.646c-0.006-1.602-0.134-2.854-0.185-3.714c-0.061-0.857-0.092-1.316-0.092-1.316l0.459-0.069    c0,0,0.08,0.455,0.233,1.309c0.138,0.855,0.429,2.104,0.567,3.725c0.076,0.808,0.221,1.699,0.266,2.681    c0.045,0.979,0.093,2.042,0.146,3.175c-0.018,1.137-0.032,2.347-0.051,3.621c-0.101,1.271-0.172,2.614-0.332,4.008    c-0.356,2.778-0.812,5.804-1.718,8.902c-0.371,1.572-0.96,3.125-1.472,4.743c-0.291,0.796-0.622,1.587-0.945,2.391    c-0.163,0.401-0.326,0.805-0.489,1.21c-0.188,0.396-0.376,0.791-0.564,1.189c-1.449,3.218-3.306,6.379-5.427,9.418    c-0.549,0.748-1.1,1.5-1.649,2.253c-0.58,0.736-1.201,1.46-1.803,2.19l-0.913,1.089l-0.942,1.008    c-0.651,0.68-1.201,1.319-1.94,2.033c-2.706,2.623-5.633,5.011-8.676,7.13c-0.77,0.519-1.557,1.002-2.329,1.492l-1.169,0.726    l-1.2,0.65c-0.803,0.428-1.582,0.881-2.387,1.272c-0.812,0.379-1.615,0.755-2.415,1.128c-3.223,1.425-6.446,2.551-9.576,3.312    c-3.109,0.852-6.134,1.264-8.911,1.585c-1.396,0.113-2.734,0.197-4.005,0.267c-1.271-0.002-2.479-0.003-3.613-0.004    c-1.13-0.068-2.188-0.133-3.166-0.192c-0.975-0.066-1.869-0.218-2.675-0.308c-1.618-0.16-2.845-0.478-3.698-0.621    c-0.848-0.165-1.301-0.253-1.301-0.253L563.903,527.761z" id="path63"/>
	</g>
</g>
<g id="g65">
	<g id="g67">
		<path fill="#1d1e1c" d="M399.438,527.761c0,0,0.459,0.036,1.32,0.104c0.858,0.057,2.129,0.203,3.729,0.221    c0.802,0.012,1.684,0.076,2.646,0.052c0.964-0.021,2.005-0.045,3.118-0.067c1.105-0.086,2.283-0.18,3.525-0.274    c1.234-0.166,2.533-0.312,3.88-0.514c2.682-0.488,5.571-1.072,8.537-2.013c2.985-0.867,6.021-2.116,9.077-3.549    c3.067-1.429,6.026-3.294,8.96-5.268c2.882-2.06,5.648-4.368,8.203-6.9c0.588-0.561,1.253-1.307,1.875-1.949l0.948-1.002    l0.856-1.017c0.564-0.683,1.146-1.346,1.693-2.038c0.53-0.716,1.06-1.43,1.586-2.141c2.013-2.903,3.912-5.841,5.351-8.897    l0.567-1.126c0.165-0.384,0.33-0.767,0.495-1.146c0.329-0.763,0.655-1.517,0.979-2.263c0.55-1.527,1.181-2.997,1.595-4.492    c0.227-0.742,0.448-1.477,0.67-2.195c0.182-0.732,0.358-1.454,0.537-2.163c0.399-1.409,0.59-2.812,0.871-4.146    c0.237-1.339,0.365-2.637,0.556-3.863c0.105-1.238,0.21-2.413,0.306-3.52c0.035-1.107,0.068-2.146,0.1-3.106    c0.044-0.963-0.021-1.847-0.023-2.646c-0.006-1.602-0.134-2.854-0.187-3.714c-0.059-0.857-0.091-1.316-0.091-1.316l0.459-0.069    c0,0,0.081,0.455,0.234,1.309c0.137,0.855,0.429,2.104,0.567,3.725c0.074,0.808,0.221,1.699,0.266,2.681    c0.045,0.979,0.093,2.042,0.145,3.175c-0.016,1.137-0.03,2.347-0.049,3.621c-0.101,1.271-0.172,2.614-0.333,4.008    c-0.355,2.778-0.812,5.804-1.717,8.902c-0.371,1.572-0.96,3.125-1.472,4.743c-0.291,0.796-0.622,1.587-0.945,2.391    c-0.163,0.401-0.326,0.805-0.49,1.21c-0.188,0.396-0.376,0.791-0.563,1.189c-1.449,3.218-3.308,6.379-5.429,9.418    c-0.548,0.748-1.098,1.5-1.647,2.253c-0.58,0.736-1.201,1.46-1.803,2.19l-0.913,1.089l-0.942,1.008    c-0.653,0.68-1.202,1.319-1.941,2.033c-2.705,2.623-5.634,5.011-8.676,7.13c-0.769,0.519-1.556,1.002-2.33,1.492l-1.168,0.726    l-1.199,0.65c-0.804,0.428-1.582,0.881-2.388,1.272c-0.812,0.379-1.615,0.755-2.415,1.128c-3.222,1.425-6.445,2.551-9.576,3.312    c-3.108,0.852-6.134,1.264-8.91,1.585c-1.396,0.113-2.734,0.197-4.006,0.267c-1.271-0.002-2.479-0.003-3.612-0.004    c-1.13-0.068-2.188-0.133-3.166-0.192c-0.977-0.066-1.869-0.218-2.675-0.308c-1.618-0.16-2.847-0.478-3.698-0.621    c-0.849-0.165-1.301-0.253-1.301-0.253L399.438,527.761z" id="path69"/>
	</g>
</g>
<g id="g71">
	<g id="g73">
		<path fill="#1d1e1c" d="M234.972,527.761c0,0,0.459,0.036,1.32,0.104c0.858,0.057,2.129,0.203,3.729,0.221    c0.804,0.012,1.684,0.076,2.646,0.052c0.964-0.021,2.005-0.045,3.118-0.067c1.105-0.086,2.283-0.18,3.525-0.274    c1.234-0.166,2.533-0.312,3.88-0.514c2.682-0.488,5.571-1.072,8.537-2.013c2.985-0.867,6.021-2.116,9.077-3.549    c3.067-1.429,6.026-3.294,8.96-5.268c2.882-2.06,5.648-4.368,8.203-6.9c0.588-0.561,1.253-1.307,1.875-1.949l0.948-1.002    l0.856-1.017c0.564-0.683,1.146-1.346,1.693-2.038c0.53-0.716,1.06-1.43,1.586-2.141c2.013-2.903,3.912-5.841,5.351-8.897    l0.567-1.126c0.165-0.384,0.33-0.767,0.495-1.146c0.329-0.763,0.653-1.517,0.979-2.263c0.549-1.527,1.179-2.997,1.593-4.492    c0.229-0.742,0.45-1.477,0.671-2.195c0.183-0.732,0.359-1.454,0.536-2.163c0.401-1.409,0.591-2.812,0.873-4.146    c0.237-1.339,0.365-2.637,0.556-3.863c0.105-1.238,0.21-2.413,0.306-3.52c0.035-1.107,0.068-2.146,0.099-3.106    c0.043-0.963-0.021-1.847-0.022-2.646c-0.006-1.602-0.134-2.854-0.187-3.714c-0.059-0.857-0.091-1.316-0.091-1.316l0.459-0.069    c0,0,0.081,0.455,0.234,1.309c0.137,0.855,0.429,2.104,0.565,3.725c0.076,0.808,0.223,1.699,0.268,2.681    c0.045,0.979,0.093,2.042,0.145,3.175c-0.016,1.137-0.032,2.347-0.049,3.621c-0.101,1.271-0.172,2.614-0.333,4.008    c-0.357,2.778-0.812,5.804-1.717,8.902c-0.371,1.572-0.96,3.125-1.474,4.743c-0.29,0.796-0.62,1.587-0.943,2.391    c-0.163,0.401-0.326,0.805-0.49,1.21c-0.188,0.396-0.376,0.791-0.565,1.189c-1.447,3.218-3.306,6.379-5.427,9.418    c-0.548,0.748-1.098,1.5-1.647,2.253c-0.58,0.736-1.201,1.46-1.803,2.19l-0.913,1.089l-0.942,1.008    c-0.653,0.68-1.202,1.319-1.94,2.033c-2.706,2.623-5.635,5.011-8.677,7.13c-0.769,0.519-1.556,1.002-2.33,1.492l-1.168,0.726    l-1.199,0.65c-0.804,0.428-1.582,0.881-2.388,1.272c-0.812,0.379-1.614,0.755-2.415,1.128c-3.222,1.425-6.445,2.551-9.576,3.312    c-3.108,0.852-6.134,1.264-8.91,1.585c-1.396,0.113-2.734,0.197-4.005,0.267c-1.271-0.002-2.479-0.003-3.613-0.004    c-1.13-0.068-2.188-0.133-3.166-0.192c-0.977-0.066-1.869-0.218-2.675-0.308c-1.618-0.16-2.847-0.478-3.698-0.621    c-0.849-0.165-1.301-0.253-1.301-0.253L234.972,527.761z" id="path75"/>
	</g>
</g>
<g id="g77">
	<g id="g79">
		<path fill="#1d1e1c" d="M563.903,363.742c0,0,0.459,0.036,1.32,0.104c0.859,0.057,2.129,0.203,3.729,0.221    c0.804,0.012,1.684,0.076,2.646,0.052c0.964-0.021,2.005-0.045,3.118-0.069c1.105-0.086,2.284-0.178,3.525-0.274    c1.234-0.166,2.533-0.313,3.88-0.514c2.682-0.488,5.571-1.072,8.537-2.012c2.985-0.868,6.021-2.117,9.077-3.548    c3.067-1.429,6.026-3.294,8.96-5.268c2.882-2.059,5.648-4.368,8.203-6.9c0.588-0.561,1.253-1.307,1.875-1.95l0.948-1.001    l0.856-1.017c0.564-0.683,1.146-1.346,1.693-2.038c0.53-0.716,1.061-1.43,1.586-2.141c2.013-2.903,3.912-5.841,5.353-8.897    l0.565-1.126c0.165-0.384,0.33-0.767,0.495-1.147c0.329-0.761,0.655-1.515,0.979-2.261c0.549-1.529,1.179-2.998,1.593-4.494    c0.227-0.742,0.45-1.475,0.67-2.195c0.182-0.732,0.359-1.454,0.537-2.163c0.399-1.409,0.59-2.813,0.873-4.145    c0.235-1.338,0.363-2.636,0.554-3.864c0.107-1.238,0.21-2.413,0.306-3.518c0.035-1.109,0.068-2.147,0.101-3.108    c0.043-0.963-0.021-1.845-0.024-2.646c-0.006-1.602-0.134-2.854-0.185-3.714c-0.061-0.859-0.092-1.317-0.092-1.317l0.459-0.07    c0,0,0.08,0.455,0.233,1.309c0.138,0.855,0.429,2.104,0.567,3.723c0.076,0.808,0.221,1.701,0.266,2.681s0.093,2.042,0.146,3.175    c-0.018,1.137-0.032,2.347-0.051,3.621c-0.101,1.271-0.172,2.614-0.332,4.008c-0.356,2.778-0.812,5.803-1.718,8.902    c-0.371,1.572-0.96,3.125-1.472,4.743c-0.291,0.796-0.622,1.587-0.945,2.391c-0.163,0.401-0.326,0.805-0.489,1.21    c-0.188,0.395-0.376,0.791-0.564,1.189c-1.449,3.218-3.306,6.379-5.427,9.418c-0.549,0.748-1.1,1.5-1.649,2.253    c-0.58,0.738-1.201,1.46-1.803,2.192l-0.913,1.088l-0.942,1.007c-0.651,0.68-1.201,1.321-1.94,2.035    c-2.706,2.623-5.633,5.009-8.676,7.128c-0.77,0.519-1.557,1.002-2.329,1.494l-1.169,0.724l-1.2,0.652    c-0.803,0.426-1.582,0.879-2.387,1.272c-0.812,0.379-1.615,0.755-2.415,1.128c-3.223,1.425-6.446,2.551-9.576,3.312    c-3.109,0.851-6.134,1.263-8.911,1.585c-1.396,0.114-2.734,0.198-4.005,0.266c-1.271-0.002-2.479-0.003-3.613-0.004    c-1.13-0.068-2.188-0.133-3.166-0.192c-0.975-0.068-1.869-0.218-2.675-0.308c-1.618-0.16-2.845-0.476-3.698-0.621    c-0.848-0.165-1.301-0.253-1.301-0.253L563.903,363.742z" id="path81"/>
	</g>
</g>
<g id="g83">
	<g id="g85">
		<path fill="#1d1e1c" d="M399.438,363.742c0,0,0.459,0.036,1.32,0.104c0.858,0.057,2.129,0.203,3.729,0.221    c0.802,0.012,1.684,0.076,2.646,0.052c0.964-0.021,2.005-0.045,3.118-0.069c1.105-0.086,2.283-0.178,3.525-0.274    c1.234-0.166,2.533-0.313,3.88-0.514c2.682-0.488,5.571-1.072,8.537-2.012c2.985-0.868,6.021-2.117,9.077-3.548    c3.067-1.429,6.026-3.294,8.96-5.268c2.882-2.059,5.648-4.368,8.203-6.9c0.588-0.561,1.253-1.307,1.875-1.95l0.948-1.001    l0.856-1.017c0.564-0.683,1.146-1.346,1.693-2.038c0.53-0.716,1.06-1.43,1.586-2.141c2.013-2.903,3.912-5.841,5.351-8.897    l0.567-1.126c0.165-0.384,0.33-0.767,0.495-1.147c0.329-0.761,0.655-1.515,0.979-2.261c0.55-1.529,1.181-2.998,1.595-4.494    c0.227-0.742,0.448-1.475,0.67-2.195c0.182-0.732,0.358-1.454,0.537-2.163c0.399-1.409,0.59-2.813,0.871-4.145    c0.237-1.338,0.365-2.636,0.556-3.864c0.105-1.238,0.21-2.413,0.306-3.518c0.035-1.109,0.068-2.147,0.1-3.108    c0.044-0.963-0.021-1.845-0.023-2.646c-0.006-1.602-0.134-2.854-0.187-3.714c-0.059-0.859-0.091-1.317-0.091-1.317l0.459-0.07    c0,0,0.081,0.455,0.234,1.309c0.137,0.855,0.429,2.104,0.567,3.723c0.074,0.808,0.221,1.701,0.266,2.681s0.093,2.042,0.145,3.175    c-0.016,1.137-0.03,2.347-0.049,3.621c-0.101,1.271-0.172,2.614-0.333,4.008c-0.355,2.778-0.812,5.803-1.717,8.902    c-0.371,1.572-0.96,3.125-1.472,4.743c-0.291,0.796-0.622,1.587-0.945,2.391c-0.163,0.401-0.326,0.805-0.49,1.21    c-0.188,0.395-0.376,0.791-0.563,1.189c-1.449,3.218-3.308,6.379-5.429,9.418c-0.548,0.748-1.098,1.5-1.647,2.253    c-0.58,0.738-1.201,1.46-1.803,2.192l-0.913,1.088l-0.942,1.007c-0.653,0.68-1.202,1.321-1.941,2.035    c-2.705,2.623-5.634,5.009-8.676,7.128c-0.769,0.519-1.556,1.002-2.33,1.494l-1.168,0.724l-1.199,0.652    c-0.804,0.426-1.582,0.879-2.388,1.272c-0.812,0.379-1.615,0.755-2.415,1.128c-3.222,1.425-6.445,2.551-9.576,3.312    c-3.108,0.851-6.134,1.263-8.91,1.585c-1.396,0.114-2.734,0.198-4.006,0.266c-1.271-0.002-2.479-0.003-3.612-0.004    c-1.13-0.068-2.188-0.133-3.166-0.192c-0.977-0.068-1.869-0.218-2.675-0.308c-1.618-0.16-2.847-0.476-3.698-0.621    c-0.849-0.165-1.301-0.253-1.301-0.253L399.438,363.742z" id="path87"/>
	</g>
</g>
<g id="g89">
	<g id="g91">
		<path fill="#1d1e1c" d="M234.972,363.742c0,0,0.459,0.036,1.32,0.104c0.858,0.057,2.129,0.203,3.729,0.221    c0.804,0.012,1.684,0.076,2.646,0.052c0.964-0.021,2.005-0.045,3.118-0.069c1.105-0.086,2.283-0.178,3.525-0.274    c1.234-0.166,2.533-0.313,3.88-0.514c2.682-0.488,5.571-1.072,8.537-2.012c2.985-0.868,6.021-2.117,9.077-3.548    c3.067-1.429,6.026-3.294,8.96-5.268c2.882-2.059,5.648-4.368,8.203-6.9c0.588-0.561,1.253-1.307,1.875-1.95l0.948-1.001    l0.856-1.017c0.564-0.683,1.146-1.346,1.693-2.038c0.53-0.716,1.06-1.43,1.586-2.141c2.013-2.903,3.912-5.841,5.351-8.897    l0.567-1.126c0.165-0.384,0.33-0.767,0.495-1.147c0.329-0.761,0.653-1.515,0.979-2.261c0.549-1.529,1.179-2.998,1.593-4.494    c0.229-0.742,0.45-1.475,0.671-2.195c0.183-0.732,0.359-1.454,0.536-2.163c0.401-1.409,0.591-2.813,0.873-4.145    c0.237-1.338,0.365-2.636,0.556-3.864c0.105-1.238,0.21-2.413,0.306-3.518c0.035-1.109,0.068-2.147,0.099-3.108    c0.043-0.963-0.021-1.845-0.022-2.646c-0.006-1.602-0.134-2.854-0.187-3.714c-0.059-0.859-0.091-1.317-0.091-1.317l0.459-0.07    c0,0,0.081,0.455,0.234,1.309c0.137,0.855,0.429,2.104,0.565,3.723c0.076,0.808,0.223,1.701,0.268,2.681s0.093,2.042,0.145,3.175    c-0.016,1.137-0.032,2.347-0.049,3.621c-0.101,1.271-0.172,2.614-0.333,4.008c-0.357,2.778-0.812,5.803-1.717,8.902    c-0.371,1.572-0.96,3.125-1.474,4.743c-0.29,0.796-0.62,1.587-0.943,2.391c-0.163,0.401-0.326,0.805-0.49,1.21    c-0.188,0.395-0.376,0.791-0.565,1.189c-1.447,3.218-3.306,6.379-5.427,9.418c-0.548,0.748-1.098,1.5-1.647,2.253    c-0.58,0.738-1.201,1.46-1.803,2.192l-0.913,1.088l-0.942,1.007c-0.653,0.68-1.202,1.321-1.94,2.035    c-2.706,2.623-5.635,5.009-8.677,7.128c-0.769,0.519-1.556,1.002-2.33,1.494l-1.168,0.724l-1.199,0.652    c-0.804,0.426-1.582,0.879-2.388,1.272c-0.812,0.379-1.614,0.755-2.415,1.128c-3.222,1.425-6.445,2.551-9.576,3.312    c-3.108,0.851-6.134,1.263-8.91,1.585c-1.396,0.114-2.734,0.198-4.005,0.266c-1.271-0.002-2.479-0.003-3.613-0.004    c-1.13-0.068-2.188-0.133-3.166-0.192c-0.977-0.068-1.869-0.218-2.675-0.308c-1.618-0.16-2.847-0.476-3.698-0.621    c-0.849-0.165-1.301-0.253-1.301-0.253L234.972,363.742z" id="path93"/>
	</g>
</g>
<g id="g95">
	<g id="g97">
		<path fill="#1d1e1c" d="M563.903,198.831c0,0,0.459,0.036,1.32,0.104c0.859,0.057,2.129,0.203,3.729,0.221    c0.804,0.012,1.684,0.076,2.646,0.052c0.964-0.021,2.005-0.045,3.118-0.069c1.105-0.086,2.284-0.178,3.525-0.274    c1.234-0.166,2.533-0.313,3.88-0.514c2.682-0.488,5.571-1.072,8.537-2.012c2.985-0.868,6.021-2.117,9.077-3.548    c3.067-1.429,6.026-3.294,8.96-5.268c2.882-2.059,5.648-4.368,8.203-6.9c0.588-0.561,1.253-1.307,1.875-1.95l0.948-1.001    l0.856-1.017c0.564-0.683,1.146-1.346,1.693-2.038c0.53-0.716,1.061-1.43,1.586-2.141c2.013-2.903,3.912-5.841,5.353-8.897    l0.565-1.126c0.165-0.384,0.33-0.767,0.495-1.147c0.329-0.761,0.655-1.515,0.979-2.261c0.549-1.529,1.179-2.998,1.593-4.494    c0.227-0.742,0.45-1.475,0.67-2.195c0.182-0.732,0.359-1.454,0.537-2.163c0.399-1.409,0.59-2.813,0.873-4.145    c0.235-1.338,0.363-2.636,0.554-3.864c0.107-1.238,0.21-2.413,0.306-3.518c0.035-1.109,0.068-2.147,0.101-3.108    c0.043-0.963-0.021-1.845-0.024-2.646c-0.006-1.602-0.134-2.854-0.185-3.714c-0.061-0.859-0.092-1.317-0.092-1.317l0.459-0.07    c0,0,0.08,0.455,0.233,1.309c0.138,0.855,0.429,2.104,0.567,3.723c0.076,0.808,0.221,1.701,0.266,2.681s0.093,2.042,0.146,3.175    c-0.018,1.137-0.032,2.347-0.051,3.621c-0.101,1.271-0.172,2.614-0.332,4.008c-0.356,2.778-0.812,5.803-1.718,8.902    c-0.371,1.572-0.96,3.125-1.472,4.743c-0.291,0.796-0.622,1.587-0.945,2.391c-0.163,0.401-0.326,0.805-0.489,1.21    c-0.188,0.395-0.376,0.791-0.564,1.188c-1.449,3.218-3.306,6.379-5.427,9.418c-0.549,0.748-1.1,1.5-1.649,2.253    c-0.58,0.738-1.201,1.46-1.803,2.192l-0.913,1.088l-0.942,1.007c-0.651,0.68-1.201,1.321-1.94,2.035    c-2.706,2.623-5.633,5.009-8.676,7.128c-0.77,0.519-1.557,1.002-2.329,1.494l-1.169,0.724l-1.2,0.652    c-0.803,0.426-1.582,0.879-2.387,1.272c-0.812,0.379-1.615,0.755-2.415,1.128c-3.223,1.425-6.446,2.551-9.576,3.312    c-3.109,0.851-6.134,1.263-8.911,1.585c-1.396,0.114-2.734,0.198-4.005,0.266c-1.271-0.002-2.479-0.003-3.613-0.004    c-1.13-0.068-2.188-0.133-3.166-0.192c-0.975-0.068-1.869-0.218-2.675-0.308c-1.618-0.16-2.845-0.476-3.698-0.621    c-0.848-0.165-1.301-0.253-1.301-0.253L563.903,198.831z" id="path99"/>
	</g>
</g>
<g id="g101">
	<g id="g103">
		<path fill="#1d1e1c" d="M399.438,198.831c0,0,0.459,0.036,1.32,0.104c0.858,0.057,2.129,0.203,3.729,0.221    c0.802,0.012,1.684,0.076,2.646,0.052c0.964-0.021,2.005-0.045,3.118-0.069c1.105-0.086,2.283-0.178,3.525-0.274    c1.234-0.166,2.533-0.313,3.88-0.514c2.682-0.488,5.571-1.072,8.537-2.012c2.985-0.868,6.021-2.117,9.077-3.548    c3.067-1.429,6.026-3.294,8.96-5.268c2.882-2.059,5.648-4.368,8.203-6.9c0.588-0.561,1.253-1.307,1.875-1.95l0.948-1.001    l0.856-1.017c0.564-0.683,1.146-1.346,1.693-2.038c0.53-0.716,1.06-1.43,1.586-2.141c2.013-2.903,3.912-5.841,5.351-8.897    l0.567-1.126c0.165-0.384,0.33-0.767,0.495-1.147c0.329-0.761,0.655-1.515,0.979-2.261c0.55-1.529,1.181-2.998,1.595-4.494    c0.227-0.742,0.448-1.475,0.67-2.195c0.182-0.732,0.358-1.454,0.537-2.163c0.399-1.409,0.59-2.813,0.871-4.145    c0.237-1.338,0.365-2.636,0.556-3.864c0.105-1.238,0.21-2.413,0.306-3.518c0.035-1.109,0.068-2.147,0.1-3.108    c0.044-0.963-0.021-1.845-0.023-2.646c-0.006-1.602-0.134-2.854-0.187-3.714c-0.059-0.859-0.091-1.317-0.091-1.317l0.459-0.07    c0,0,0.081,0.455,0.234,1.309c0.137,0.855,0.429,2.104,0.567,3.723c0.074,0.808,0.221,1.701,0.266,2.681s0.093,2.042,0.145,3.175    c-0.016,1.137-0.03,2.347-0.049,3.621c-0.101,1.271-0.172,2.614-0.333,4.008c-0.355,2.778-0.812,5.803-1.717,8.902    c-0.371,1.572-0.96,3.125-1.472,4.743c-0.291,0.796-0.622,1.587-0.945,2.391c-0.163,0.401-0.326,0.805-0.49,1.21    c-0.188,0.395-0.376,0.791-0.563,1.188c-1.449,3.218-3.308,6.379-5.429,9.418c-0.548,0.748-1.098,1.5-1.647,2.253    c-0.58,0.738-1.201,1.46-1.803,2.192l-0.913,1.088l-0.942,1.007c-0.653,0.68-1.202,1.321-1.941,2.035    c-2.705,2.623-5.634,5.009-8.676,7.128c-0.769,0.519-1.556,1.002-2.33,1.494l-1.168,0.724l-1.199,0.652    c-0.804,0.426-1.582,0.879-2.388,1.272c-0.812,0.379-1.615,0.755-2.415,1.128c-3.222,1.425-6.445,2.551-9.576,3.312    c-3.108,0.851-6.134,1.263-8.91,1.585c-1.396,0.114-2.734,0.198-4.006,0.266c-1.271-0.002-2.479-0.003-3.612-0.004    c-1.13-0.068-2.188-0.133-3.166-0.192c-0.977-0.068-1.869-0.218-2.675-0.308c-1.618-0.16-2.847-0.476-3.698-0.621    c-0.849-0.165-1.301-0.253-1.301-0.253L399.438,198.831z" id="path105"/>
	</g>
</g>
<g id="g107">
	<g id="g109">
		<path fill="#1d1e1c" d="M234.972,198.831c0,0,0.459,0.036,1.32,0.104c0.858,0.057,2.129,0.203,3.729,0.221    c0.804,0.012,1.684,0.076,2.646,0.052c0.964-0.021,2.005-0.045,3.118-0.069c1.105-0.086,2.283-0.178,3.525-0.274    c1.234-0.166,2.533-0.313,3.88-0.514c2.682-0.488,5.571-1.072,8.537-2.012c2.985-0.868,6.021-2.117,9.077-3.548    c3.067-1.429,6.026-3.294,8.96-5.268c2.882-2.059,5.648-4.368,8.203-6.9c0.588-0.561,1.253-1.307,1.875-1.95l0.948-1.001    l0.856-1.017c0.564-0.683,1.146-1.346,1.693-2.038c0.53-0.716,1.06-1.43,1.586-2.141c2.013-2.903,3.912-5.841,5.351-8.897    l0.567-1.126c0.165-0.384,0.33-0.767,0.495-1.147c0.329-0.761,0.653-1.515,0.979-2.261c0.549-1.529,1.179-2.998,1.593-4.494    c0.229-0.742,0.45-1.475,0.671-2.195c0.183-0.732,0.359-1.454,0.536-2.163c0.401-1.409,0.591-2.813,0.873-4.145    c0.237-1.338,0.365-2.636,0.556-3.864c0.105-1.238,0.21-2.413,0.306-3.518c0.035-1.109,0.068-2.147,0.099-3.108    c0.043-0.963-0.021-1.845-0.022-2.646c-0.006-1.602-0.134-2.854-0.187-3.714c-0.059-0.859-0.091-1.317-0.091-1.317l0.459-0.07    c0,0,0.081,0.455,0.234,1.309c0.137,0.855,0.429,2.104,0.565,3.723c0.076,0.808,0.223,1.701,0.268,2.681s0.093,2.042,0.145,3.175    c-0.016,1.137-0.032,2.347-0.049,3.621c-0.101,1.271-0.172,2.614-0.333,4.008c-0.357,2.778-0.812,5.803-1.717,8.902    c-0.371,1.572-0.96,3.125-1.474,4.743c-0.29,0.796-0.62,1.587-0.943,2.391c-0.163,0.401-0.326,0.805-0.49,1.21    c-0.188,0.395-0.376,0.791-0.565,1.188c-1.447,3.218-3.306,6.379-5.427,9.418c-0.548,0.748-1.098,1.5-1.647,2.253    c-0.58,0.738-1.201,1.46-1.803,2.192l-0.913,1.088l-0.942,1.007c-0.653,0.68-1.202,1.321-1.94,2.035    c-2.706,2.623-5.635,5.009-8.677,7.128c-0.769,0.519-1.556,1.002-2.33,1.494l-1.168,0.724l-1.199,0.652    c-0.804,0.426-1.582,0.879-2.388,1.272c-0.812,0.379-1.614,0.755-2.415,1.128c-3.222,1.425-6.445,2.551-9.576,3.312    c-3.108,0.851-6.134,1.263-8.91,1.585c-1.396,0.114-2.734,0.198-4.005,0.266c-1.271-0.002-2.479-0.003-3.613-0.004    c-1.13-0.068-2.188-0.133-3.166-0.192c-0.977-0.068-1.869-0.218-2.675-0.308c-1.618-0.16-2.847-0.476-3.698-0.621    c-0.849-0.165-1.301-0.253-1.301-0.253L234.972,198.831z" id="path111"/>
	</g>
</g>
</svg>