<?xml version="1.0" encoding="UTF-8" standalone="no"?>
<!-- Generator: Adobe Illustrator 16.0.0, SVG Export Plug-In . SVG Version: 6.00 Build 0)  -->

<svg
   xmlns:dc="http://purl.org/dc/elements/1.1/"
   xmlns:cc="http://creativecommons.org/ns#"
   xmlns:rdf="http://www.w3.org/1999/02/22-rdf-syntax-ns#"
   xmlns:svg="http://www.w3.org/2000/svg"
   xmlns="http://www.w3.org/2000/svg"
   xmlns:sodipodi="http://sodipodi.sourceforge.net/DTD/sodipodi-0.dtd"
   xmlns:inkscape="http://www.inkscape.org/namespaces/inkscape"
   version="1.1"
   id="Layer_1"
   x="0px"
   y="0px"
   width="820px"
   height="952px"
   viewBox="0 0 820 952"
   enable-background="new 0 0 820 952"
   xml:space="preserve"
   inkscape:version="0.48.4 r9939"
   sodipodi:docname="Montcada.svg"><sodipodi:namedview
   pagecolor="#ffffff"
   bordercolor="#666666"
   borderopacity="1"
   objecttolerance="10"
   gridtolerance="10"
   guidetolerance="10"
   inkscape:pageopacity="0"
   inkscape:pageshadow="2"
   inkscape:window-width="640"
   inkscape:window-height="480"
   id="namedview65"
   showgrid="false"
   inkscape:zoom="0.24789916"
   inkscape:cx="410"
   inkscape:cy="476"
   inkscape:window-x="0"
   inkscape:window-y="0"
   inkscape:window-maximized="0"
   inkscape:current-layer="Layer_1" /><metadata
   id="metadata69"><rdf:RDF><cc:Work
       rdf:about=""><dc:format>image/svg+xml</dc:format><dc:type
         rdf:resource="http://purl.org/dc/dcmitype/StillImage" /></cc:Work></rdf:RDF></metadata><defs
   id="defs67" />
<g
   id="g3">
	<polygon
   fill="#bc2e2e"
   points="410.698,924.5 417.661,921.551 425.365,918.021 433.177,914.221 442.712,909.332 458.905,900.44    475.176,890.79 492.008,880.054 505.44,870.924 517.325,862.415 529.428,853.323 540.177,844.862 549.428,837.278 562.826,825.768    576.447,813.393 588.479,801.848 601.385,788.764 609.259,780.396 616.475,772.457 623.923,763.969 634.676,751.149    642.53,741.326 651.604,729.449 659.016,719.304 667.616,706.95 673.851,697.586 680.509,687.156 684.299,681.007 691.438,668.964    697.447,658.324 703.379,647.319 711.005,632.333 716.823,620.176 722.388,607.888 728.908,592.508 733.25,581.61 736.784,572.266    741.984,557.676 746.44,544.199 750.365,531.641 753.948,518.929 757.308,506.275 760.887,491.567 764.071,477.121    766.394,465.565 768.541,453.862 770.534,441.862 772.535,428.381 774.285,414.896 775.598,403.312 776.719,391.833    777.861,377.749 778.979,360.396 779.395,349.209 780,332.9 780,30.9 41.101,30.9 41.101,332.9 41.706,349.209 42.122,360.396    43.237,377.749 44.382,391.833 45.503,403.312 46.812,414.896 48.562,428.381 50.562,441.862 52.56,453.862 54.707,465.565    57.027,477.121 60.214,491.567 63.793,506.275 67.149,518.929 70.731,531.641 74.659,544.199 79.115,557.676 84.312,572.266    87.851,581.61 92.188,592.508 98.713,607.888 104.274,620.176 110.096,632.333 117.722,647.319 123.65,658.324 129.661,668.964    136.802,681.007 140.592,687.156 147.25,697.586 153.479,706.95 162.085,719.304 169.495,729.449 178.567,741.326 186.425,751.149    197.178,763.969 204.626,772.457 211.842,780.396 219.716,788.764 232.622,801.848 244.65,813.393 258.271,825.768    271.673,837.278 280.924,844.862 291.673,853.323 303.771,862.415 315.657,870.924 329.093,880.054 345.925,890.79 362.193,900.44    378.389,909.332 387.924,914.221 395.73,918.021 403.438,921.551  "
   id="polygon5" />
</g>
<path
   fill="#f2bc51"
   stroke="#000000"
   stroke-width="3"
   stroke-miterlimit="10"
   d="M645.781,736.757  c-17.861-22.712-45.594-37.298-76.729-37.298c-53.884,0-97.566,43.681-97.566,97.565c0,29.505,13.098,55.947,33.793,73.84  C548.016,840.985,599.228,797.339,645.781,736.757z"
   id="path7" />
<path
   fill="#f2bc51"
   stroke="#000000"
   stroke-width="3"
   stroke-miterlimit="10"
   d="M252.284,699.459  c-31.197,0-58.976,14.643-76.833,37.429c46.536,60.621,97.728,104.274,140.416,134.138c20.805-17.895,33.98-44.405,33.98-73.999  C349.849,743.14,306.166,699.459,252.284,699.459z"
   id="path9" />
<circle
   fill="#f2bc51"
   stroke="#000000"
   stroke-width="3"
   stroke-miterlimit="10"
   cx="569.049"
   cy="581.487"
   r="97.566"
   id="circle11" />
<circle
   fill="#f2bc51"
   stroke="#000000"
   stroke-width="3"
   stroke-miterlimit="10"
   cx="252.284"
   cy="581.487"
   r="97.566"
   id="circle13" />
<circle
   fill="#f2bc51"
   stroke="#000000"
   stroke-width="3"
   stroke-miterlimit="10"
   cx="569.049"
   cy="366.969"
   r="97.566"
   id="circle15" />
<circle
   fill="#f2bc51"
   stroke="#000000"
   stroke-width="3"
   stroke-miterlimit="10"
   cx="252.284"
   cy="366.969"
   r="97.566"
   id="circle17" />
<circle
   fill="#f2bc51"
   stroke="#000000"
   stroke-width="3"
   stroke-miterlimit="10"
   cx="569.049"
   cy="151.226"
   r="97.566"
   id="circle19" />
<circle
   fill="#f2bc51"
   stroke="#000000"
   stroke-width="3"
   stroke-miterlimit="10"
   cx="252.284"
   cy="151.226"
   r="97.566"
   id="circle21" />
<path
   fill="#1d1e1c"
   d="M336.759,791.426c-0.188-2.216-0.588-3.925-0.775-5.097c-0.21-1.17-0.32-1.792-0.32-1.792l-0.628,0.096  c0,0,0.045,0.627,0.125,1.803c0.07,1.179,0.245,2.893,0.253,5.086c0.006,1.097,0.093,2.304,0.031,3.621  c-0.041,1.313-0.086,2.734-0.135,4.255c-0.131,1.513-0.273,3.12-0.418,4.813c-0.259,1.683-0.436,3.458-0.76,5.289  c-0.389,1.823-0.646,3.744-1.195,5.674c-0.244,0.973-0.485,1.96-0.734,2.961c-0.302,0.987-0.604,1.99-0.918,3.006  c-0.565,2.05-1.431,4.061-2.182,6.152c-0.443,1.021-0.888,2.052-1.339,3.094c-0.227,0.521-0.452,1.044-0.677,1.57l-0.777,1.541  c-1.97,4.183-4.568,8.203-7.325,12.177c-0.72,0.978-1.444,1.951-2.17,2.934c-0.751,0.945-1.545,1.854-2.318,2.789l-1.175,1.394  l-1.297,1.37c-0.853,0.879-1.764,1.897-2.566,2.669c-1.896,1.877-3.879,3.655-5.922,5.348c1.122,0.824,2.238,1.644,3.352,2.449  c1.876-1.552,3.704-3.175,5.459-4.876c1.012-0.977,1.763-1.854,2.657-2.785l1.291-1.378l1.249-1.488  c0.824-1.003,1.675-1.989,2.468-3c0.753-1.03,1.507-2.062,2.257-3.082c2.904-4.162,5.446-8.487,7.427-12.896  c0.26-0.545,0.52-1.087,0.775-1.628c0.223-0.555,0.445-1.106,0.67-1.656c0.442-1.101,0.896-2.184,1.294-3.272  c0.702-2.216,1.507-4.339,2.016-6.491c1.237-4.241,1.86-8.383,2.351-12.187c0.22-1.907,0.318-3.747,0.457-5.485  c0.021-1.742,0.045-3.399,0.064-4.957c-0.068-1.55-0.137-3.003-0.197-4.345C337.063,793.756,336.863,792.531,336.759,791.426z"
   id="path23" />
<g
   id="g25">
	<g
   id="g27">
		<path
   fill="#1d1e1c"
   d="M553.677,666.216c0,0,0.628,0.049,1.809,0.146c1.177,0.077,2.915,0.275,5.104,0.302    c1.098,0.016,2.303,0.104,3.622,0.071c1.316-0.027,2.745-0.062,4.268-0.097c1.514-0.116,3.127-0.244,4.828-0.375    c1.688-0.227,3.467-0.427,5.311-0.704c3.668-0.668,7.626-1.467,11.688-2.753c4.088-1.188,8.242-2.897,12.426-4.856    c4.2-1.955,8.249-4.508,12.266-7.211c3.944-2.817,7.731-5.979,11.229-9.444c0.805-0.769,1.715-1.788,2.566-2.667l1.299-1.372    l1.173-1.391c0.771-0.938,1.566-1.842,2.316-2.791c0.727-0.98,1.451-1.957,2.171-2.933c2.757-3.974,5.354-7.993,7.325-12.178    l0.775-1.541c0.227-0.523,0.452-1.05,0.678-1.57c0.451-1.043,0.896-2.071,1.342-3.097c0.75-2.092,1.613-4.102,2.182-6.148    c0.309-1.017,0.615-2.021,0.916-3.008c0.249-1,0.494-1.987,0.732-2.96c0.55-1.93,0.811-3.851,1.197-5.674    c0.323-1.832,0.498-3.611,0.758-5.29c0.146-1.692,0.287-3.303,0.417-4.813c0.053-1.52,0.096-2.938,0.139-4.253    c0.059-1.318-0.028-2.527-0.034-3.622c-0.008-2.193-0.186-3.906-0.251-5.084c-0.081-1.176-0.126-1.804-0.126-1.804l0.629-0.097    c0,0,0.107,0.623,0.32,1.792c0.188,1.171,0.586,2.882,0.773,5.099c0.104,1.104,0.303,2.326,0.364,3.67    c0.062,1.342,0.127,2.795,0.197,4.347c-0.021,1.556-0.044,3.213-0.068,4.957c-0.137,1.739-0.233,3.576-0.453,5.482    c-0.49,3.805-1.112,7.945-2.353,12.188c-0.508,2.153-1.314,4.279-2.015,6.494c-0.399,1.091-0.854,2.171-1.295,3.271    c-0.224,0.551-0.446,1.103-0.671,1.655c-0.258,0.542-0.514,1.085-0.771,1.63c-1.984,4.404-4.525,8.731-7.431,12.894    c-0.75,1.022-1.503,2.055-2.258,3.083c-0.793,1.01-1.644,1.999-2.468,3l-1.251,1.488l-1.289,1.379    c-0.896,0.931-1.646,1.809-2.659,2.783c-3.704,3.591-7.709,6.858-11.874,9.76c-1.053,0.713-2.129,1.371-3.188,2.046l-1.6,0.989    l-1.646,0.894c-1.098,0.585-2.166,1.204-3.266,1.741c-1.112,0.518-2.214,1.032-3.308,1.544c-4.411,1.95-8.824,3.488-13.109,4.532    c-4.256,1.163-8.396,1.729-12.196,2.17c-1.911,0.154-3.743,0.271-5.483,0.362c-1.739-0.004-3.394-0.005-4.945-0.006    c-1.546-0.094-2.994-0.182-4.335-0.263c-1.334-0.094-2.557-0.298-3.659-0.422c-2.218-0.22-3.896-0.651-5.063-0.853    c-1.159-0.226-1.781-0.346-1.781-0.346L553.677,666.216z"
   id="path29" />
	</g>
</g>
<g
   id="g31">
	<g
   id="g33">
		<path
   fill="#1d1e1c"
   d="M236.911,666.216c0,0,0.628,0.049,1.807,0.146c1.178,0.077,2.915,0.275,5.104,0.302    c1.1,0.016,2.304,0.104,3.623,0.071c1.32-0.027,2.744-0.062,4.271-0.097c1.514-0.116,3.126-0.244,4.827-0.375    c1.688-0.227,3.467-0.427,5.311-0.704c3.67-0.668,7.626-1.467,11.688-2.753c4.087-1.188,8.243-2.897,12.426-4.856    c4.2-1.955,8.249-4.508,12.264-7.211c3.945-2.817,7.732-5.979,11.23-9.444c0.803-0.769,1.714-1.788,2.565-2.667l1.298-1.372    l1.174-1.391c0.773-0.938,1.567-1.842,2.318-2.791c0.727-0.98,1.451-1.957,2.17-2.933c2.757-3.974,5.355-7.993,7.325-12.178    l0.777-1.541c0.226-0.523,0.451-1.05,0.677-1.57c0.451-1.043,0.896-2.071,1.339-3.097c0.751-2.092,1.614-4.102,2.182-6.148    c0.312-1.017,0.616-2.021,0.918-3.008c0.25-1,0.492-1.987,0.734-2.96c0.55-1.93,0.808-3.851,1.195-5.674    c0.325-1.832,0.5-3.611,0.76-5.29c0.145-1.692,0.287-3.303,0.418-4.813c0.049-1.52,0.095-2.938,0.136-4.253    c0.061-1.318-0.026-2.527-0.031-3.622c-0.009-2.193-0.185-3.906-0.254-5.084c-0.079-1.176-0.125-1.804-0.125-1.804l0.629-0.097    c0,0,0.109,0.623,0.319,1.792c0.188,1.171,0.587,2.882,0.775,5.099c0.104,1.104,0.303,2.326,0.365,3.67    c0.062,1.342,0.128,2.795,0.197,4.347c-0.021,1.556-0.046,3.213-0.065,4.957c-0.139,1.739-0.236,3.576-0.457,5.482    c-0.489,3.805-1.112,7.945-2.351,12.188c-0.509,2.153-1.312,4.279-2.016,6.494c-0.396,1.091-0.851,2.171-1.294,3.271    c-0.224,0.551-0.447,1.103-0.67,1.655c-0.257,0.542-0.517,1.085-0.775,1.63c-1.979,4.404-4.521,8.731-7.427,12.894    c-0.75,1.022-1.504,2.055-2.257,3.083c-0.793,1.01-1.644,1.999-2.468,3l-1.249,1.488l-1.291,1.379    c-0.896,0.931-1.646,1.809-2.657,2.783c-3.705,3.591-7.712,6.858-11.877,9.76c-1.051,0.713-2.129,1.371-3.188,2.046l-1.601,0.989    l-1.643,0.894c-1.101,0.585-2.166,1.204-3.269,1.741c-1.109,0.518-2.211,1.032-3.305,1.544c-4.411,1.95-8.824,3.488-13.108,4.532    c-4.254,1.163-8.396,1.729-12.197,2.17c-1.912,0.154-3.743,0.271-5.481,0.362c-1.741-0.004-3.395-0.005-4.947-0.006    c-1.546-0.094-2.995-0.182-4.333-0.263c-1.336-0.094-2.558-0.298-3.659-0.422c-2.218-0.22-3.896-0.651-5.062-0.853    c-1.16-0.226-1.781-0.346-1.781-0.346L236.911,666.216z"
   id="path35" />
	</g>
</g>
<g
   id="g37">
	<g
   id="g39">
		<path
   fill="#1d1e1c"
   d="M553.677,451.695c0,0,0.628,0.049,1.809,0.143c1.177,0.078,2.915,0.277,5.104,0.301    c1.098,0.019,2.303,0.104,3.622,0.073c1.316-0.029,2.745-0.062,4.268-0.096c1.514-0.116,3.127-0.243,4.828-0.375    c1.688-0.229,3.467-0.427,5.311-0.702c3.668-0.669,7.626-1.468,11.688-2.755c4.088-1.188,8.242-2.898,12.426-4.855    c4.2-1.956,8.249-4.51,12.266-7.212c3.944-2.817,7.731-5.979,11.229-9.445c0.805-0.768,1.715-1.787,2.566-2.67l1.299-1.368    l1.173-1.394c0.771-0.937,1.566-1.843,2.316-2.79c0.727-0.979,1.451-1.958,2.171-2.93c2.757-3.977,5.354-7.997,7.325-12.179    l0.775-1.542c0.227-0.526,0.452-1.05,0.678-1.57c0.451-1.041,0.896-2.074,1.342-3.095c0.75-2.094,1.613-4.104,2.182-6.152    c0.309-1.016,0.615-2.02,0.916-3.003c0.249-1.002,0.494-1.99,0.732-2.961c0.55-1.928,0.811-3.852,1.197-5.673    c0.323-1.832,0.498-3.609,0.758-5.289c0.146-1.695,0.287-3.306,0.417-4.815c0.053-1.52,0.096-2.938,0.139-4.255    c0.059-1.318-0.028-2.526-0.034-3.621c-0.008-2.193-0.186-3.908-0.251-5.083c-0.081-1.176-0.126-1.803-0.126-1.803l0.629-0.097    c0,0,0.107,0.623,0.32,1.793c0.188,1.169,0.586,2.879,0.773,5.096c0.104,1.104,0.303,2.328,0.364,3.669    c0.062,1.343,0.127,2.796,0.197,4.346c-0.021,1.558-0.044,3.213-0.068,4.956c-0.137,1.741-0.233,3.579-0.453,5.488    c-0.49,3.802-1.112,7.943-2.353,12.185c-0.508,2.152-1.314,4.279-2.015,6.492c-0.399,1.089-0.854,2.173-1.295,3.272    c-0.224,0.548-0.446,1.103-0.671,1.656c-0.258,0.54-0.514,1.082-0.771,1.63c-1.984,4.404-4.525,8.73-7.431,12.892    c-0.75,1.024-1.503,2.053-2.258,3.083c-0.793,1.011-1.644,1.998-2.468,3l-1.251,1.49l-1.289,1.378    c-0.896,0.932-1.646,1.81-2.659,2.787c-3.704,3.59-7.709,6.854-11.874,9.756c-1.053,0.711-2.129,1.372-3.188,2.045l-1.6,0.992    l-1.646,0.893c-1.098,0.583-2.166,1.203-3.266,1.74c-1.112,0.52-2.214,1.035-3.308,1.545c-4.411,1.951-8.824,3.492-13.109,4.535    c-4.256,1.165-8.396,1.728-12.196,2.168c-1.911,0.157-3.743,0.271-5.483,0.365c-1.739-0.002-3.394-0.004-4.945-0.007    c-1.546-0.094-2.994-0.182-4.335-0.264c-1.334-0.094-2.557-0.297-3.659-0.421c-2.218-0.219-3.896-0.652-5.063-0.85    c-1.159-0.228-1.781-0.348-1.781-0.348L553.677,451.695z"
   id="path41" />
	</g>
</g>
<g
   id="g43">
	<g
   id="g45">
		<path
   fill="#1d1e1c"
   d="M236.911,451.695c0,0,0.628,0.049,1.807,0.143c1.178,0.078,2.915,0.277,5.104,0.301    c1.1,0.019,2.304,0.104,3.623,0.073c1.32-0.029,2.744-0.062,4.271-0.096c1.514-0.116,3.126-0.243,4.827-0.375    c1.688-0.229,3.467-0.427,5.311-0.702c3.67-0.669,7.626-1.468,11.688-2.755c4.087-1.188,8.243-2.898,12.426-4.855    c4.2-1.956,8.249-4.51,12.264-7.212c3.945-2.817,7.732-5.979,11.23-9.445c0.803-0.768,1.714-1.787,2.565-2.67l1.298-1.368    l1.174-1.394c0.773-0.937,1.567-1.843,2.318-2.79c0.727-0.979,1.451-1.958,2.17-2.93c2.757-3.977,5.355-7.997,7.325-12.179    l0.777-1.542c0.226-0.526,0.451-1.05,0.677-1.57c0.451-1.041,0.896-2.074,1.339-3.095c0.751-2.094,1.614-4.104,2.182-6.152    c0.312-1.016,0.616-2.02,0.918-3.003c0.25-1.002,0.492-1.99,0.734-2.961c0.55-1.928,0.808-3.852,1.195-5.673    c0.325-1.832,0.5-3.609,0.76-5.289c0.145-1.695,0.287-3.306,0.418-4.815c0.049-1.52,0.095-2.938,0.136-4.255    c0.061-1.318-0.026-2.526-0.031-3.621c-0.009-2.193-0.185-3.908-0.254-5.083c-0.079-1.176-0.125-1.803-0.125-1.803l0.629-0.097    c0,0,0.109,0.623,0.319,1.793c0.188,1.169,0.587,2.879,0.775,5.096c0.104,1.104,0.303,2.328,0.365,3.669    c0.062,1.343,0.128,2.796,0.197,4.346c-0.021,1.558-0.046,3.213-0.065,4.956c-0.139,1.741-0.236,3.579-0.457,5.488    c-0.489,3.802-1.112,7.943-2.351,12.185c-0.509,2.152-1.312,4.279-2.016,6.492c-0.396,1.089-0.851,2.173-1.294,3.272    c-0.224,0.548-0.447,1.103-0.67,1.656c-0.257,0.54-0.517,1.082-0.775,1.63c-1.979,4.404-4.521,8.73-7.427,12.892    c-0.75,1.024-1.504,2.053-2.257,3.083c-0.793,1.011-1.644,1.998-2.468,3l-1.249,1.49l-1.291,1.378    c-0.896,0.932-1.646,1.81-2.657,2.787c-3.705,3.59-7.712,6.854-11.877,9.756c-1.051,0.711-2.129,1.372-3.188,2.045l-1.601,0.992    l-1.643,0.893c-1.101,0.583-2.166,1.203-3.269,1.74c-1.109,0.52-2.211,1.035-3.305,1.545c-4.411,1.951-8.824,3.492-13.108,4.535    c-4.254,1.165-8.396,1.728-12.197,2.168c-1.912,0.157-3.743,0.271-5.481,0.365c-1.741-0.002-3.395-0.004-4.947-0.007    c-1.546-0.094-2.995-0.182-4.333-0.264c-1.336-0.094-2.558-0.297-3.659-0.421c-2.218-0.219-3.896-0.652-5.062-0.85    c-1.16-0.228-1.781-0.348-1.781-0.348L236.911,451.695z"
   id="path47" />
	</g>
</g>
<g
   id="g49">
	<g
   id="g51">
		<path
   fill="#1d1e1c"
   d="M553.677,235.954c0,0,0.628,0.05,1.809,0.142c1.177,0.079,2.915,0.278,5.104,0.303    c1.098,0.017,2.303,0.104,3.622,0.071c1.316-0.028,2.745-0.061,4.268-0.095c1.514-0.118,3.127-0.243,4.828-0.375    c1.688-0.228,3.467-0.429,5.311-0.704c3.668-0.669,7.626-1.468,11.688-2.754c4.088-1.188,8.242-2.897,12.426-4.856    c4.2-1.956,8.249-4.509,12.266-7.212c3.944-2.818,7.731-5.979,11.229-9.444c0.805-0.768,1.715-1.789,2.566-2.67l1.299-1.37    l1.173-1.392c0.771-0.935,1.566-1.842,2.316-2.789c0.727-0.98,1.451-1.956,2.171-2.93c2.757-3.974,5.354-7.996,7.325-12.178    l0.775-1.542c0.227-0.526,0.452-1.051,0.678-1.57c0.451-1.042,0.896-2.074,1.342-3.096c0.75-2.093,1.613-4.104,2.182-6.152    c0.309-1.016,0.615-2.018,0.916-3.004c0.249-1.002,0.494-1.991,0.732-2.962c0.55-1.927,0.811-3.851,1.197-5.673    c0.323-1.831,0.498-3.608,0.758-5.289c0.146-1.695,0.287-3.304,0.417-4.816c0.053-1.518,0.096-2.939,0.139-4.254    c0.059-1.319-0.028-2.526-0.034-3.623c-0.008-2.193-0.186-3.906-0.251-5.083c-0.081-1.176-0.126-1.803-0.126-1.803l0.629-0.096    c0,0,0.107,0.622,0.32,1.792c0.188,1.171,0.586,2.879,0.773,5.096c0.104,1.106,0.303,2.328,0.364,3.669    c0.062,1.343,0.127,2.796,0.197,4.347c-0.021,1.557-0.044,3.213-0.068,4.957c-0.137,1.74-0.233,3.579-0.453,5.487    c-0.49,3.803-1.112,7.943-2.353,12.186c-0.508,2.152-1.314,4.278-2.015,6.494c-0.399,1.088-0.854,2.171-1.295,3.271    c-0.224,0.549-0.446,1.102-0.671,1.657c-0.258,0.541-0.514,1.082-0.771,1.627c-1.984,4.405-4.525,8.733-7.431,12.892    c-0.75,1.024-1.503,2.053-2.258,3.085c-0.793,1.01-1.644,1.998-2.468,3l-1.251,1.489l-1.289,1.379    c-0.896,0.931-1.646,1.808-2.659,2.785c-3.704,3.591-7.709,6.858-11.874,9.757c-1.053,0.711-2.129,1.371-3.188,2.045l-1.6,0.992    l-1.646,0.892c-1.098,0.583-2.166,1.204-3.266,1.742c-1.112,0.519-2.214,1.034-3.308,1.545c-4.411,1.952-8.824,3.492-13.109,4.532    c-4.256,1.167-8.396,1.73-12.196,2.17c-1.911,0.157-3.743,0.271-5.483,0.365c-1.739-0.002-3.394-0.004-4.945-0.005    c-1.546-0.093-2.994-0.183-4.335-0.263c-1.334-0.094-2.557-0.298-3.659-0.421c-2.218-0.219-3.896-0.652-5.063-0.85    c-1.159-0.226-1.781-0.347-1.781-0.347L553.677,235.954z"
   id="path53" />
	</g>
</g>
<g
   id="g55">
	<g
   id="g57">
		<path
   fill="#1d1e1c"
   d="M236.911,235.954c0,0,0.628,0.05,1.807,0.142c1.178,0.079,2.915,0.278,5.104,0.303    c1.1,0.017,2.304,0.104,3.623,0.071c1.32-0.028,2.744-0.061,4.271-0.095c1.514-0.118,3.126-0.243,4.827-0.375    c1.688-0.228,3.467-0.429,5.311-0.704c3.67-0.669,7.626-1.468,11.688-2.754c4.087-1.188,8.243-2.897,12.426-4.856    c4.2-1.956,8.249-4.509,12.264-7.212c3.945-2.818,7.732-5.979,11.23-9.444c0.803-0.768,1.714-1.789,2.565-2.67l1.298-1.37    l1.174-1.392c0.773-0.935,1.567-1.842,2.318-2.789c0.727-0.98,1.451-1.956,2.17-2.93c2.757-3.974,5.355-7.996,7.325-12.178    l0.777-1.542c0.226-0.526,0.451-1.051,0.677-1.57c0.451-1.042,0.896-2.074,1.339-3.096c0.751-2.093,1.614-4.104,2.182-6.152    c0.312-1.016,0.616-2.018,0.918-3.004c0.25-1.002,0.492-1.991,0.734-2.962c0.55-1.927,0.808-3.851,1.195-5.673    c0.325-1.831,0.5-3.608,0.76-5.289c0.145-1.695,0.287-3.304,0.418-4.816c0.049-1.518,0.095-2.939,0.136-4.254    c0.061-1.319-0.026-2.526-0.031-3.623c-0.009-2.193-0.185-3.906-0.254-5.083c-0.079-1.176-0.125-1.803-0.125-1.803l0.629-0.096    c0,0,0.109,0.622,0.319,1.792c0.188,1.171,0.587,2.879,0.775,5.096c0.104,1.106,0.303,2.328,0.365,3.669    c0.062,1.343,0.128,2.796,0.197,4.347c-0.021,1.557-0.046,3.213-0.065,4.957c-0.139,1.74-0.236,3.579-0.457,5.487    c-0.489,3.803-1.112,7.943-2.351,12.186c-0.509,2.152-1.312,4.278-2.016,6.494c-0.396,1.088-0.851,2.171-1.294,3.271    c-0.224,0.549-0.447,1.102-0.67,1.657c-0.257,0.541-0.517,1.082-0.775,1.627c-1.979,4.405-4.521,8.733-7.427,12.892    c-0.75,1.024-1.504,2.053-2.257,3.085c-0.793,1.01-1.644,1.998-2.468,3l-1.249,1.489l-1.291,1.379    c-0.896,0.931-1.646,1.808-2.657,2.785c-3.705,3.591-7.712,6.858-11.877,9.757c-1.051,0.711-2.129,1.371-3.188,2.045l-1.601,0.992    l-1.643,0.892c-1.101,0.583-2.166,1.204-3.269,1.742c-1.109,0.519-2.211,1.034-3.305,1.545c-4.411,1.952-8.824,3.492-13.108,4.532    c-4.254,1.167-8.396,1.73-12.197,2.17c-1.912,0.157-3.743,0.271-5.481,0.365c-1.741-0.002-3.395-0.004-4.947-0.005    c-1.546-0.093-2.995-0.183-4.333-0.263c-1.336-0.094-2.558-0.298-3.659-0.421c-2.218-0.219-3.896-0.652-5.062-0.85    c-1.16-0.226-1.781-0.347-1.781-0.347L236.911,235.954z"
   id="path59" />
	</g>
</g>
<g
   id="g61">
	<polygon
   fill="none"
   stroke="#000000"
   stroke-width="5"
   stroke-miterlimit="10"
   points="410.698,924.5 417.661,921.551    425.365,918.021 433.177,914.221 442.712,909.332 458.905,900.44 475.176,890.79 492.008,880.054 505.44,870.924 517.325,862.415    529.428,853.323 540.177,844.862 549.428,837.278 562.826,825.768 576.447,813.393 588.479,801.848 601.385,788.764    609.259,780.396 616.475,772.457 623.923,763.969 634.676,751.149 642.53,741.326 651.604,729.449 659.016,719.304 667.616,706.95    673.851,697.586 680.509,687.156 684.299,681.007 691.438,668.964 697.447,658.324 703.379,647.319 711.005,632.333    716.823,620.176 722.388,607.888 728.908,592.508 733.25,581.61 736.784,572.266 741.984,557.676 746.44,544.199 750.365,531.641    753.948,518.929 757.308,506.275 760.887,491.567 764.071,477.121 766.394,465.565 768.541,453.862 770.534,441.862    772.535,428.381 774.285,414.896 775.598,403.312 776.719,391.833 777.861,377.749 778.979,360.396 779.395,349.209 780,332.9    780,30.9 41.101,30.9 41.101,332.9 41.706,349.209 42.122,360.396 43.237,377.749 44.382,391.833 45.503,403.312 46.812,414.896    48.562,428.381 50.562,441.862 52.56,453.862 54.707,465.565 57.027,477.121 60.214,491.567 63.793,506.275 67.149,518.929    70.731,531.641 74.659,544.199 79.115,557.676 84.312,572.266 87.851,581.61 92.188,592.508 98.713,607.888 104.274,620.176    110.096,632.333 117.722,647.319 123.65,658.324 129.661,668.964 136.802,681.007 140.592,687.156 147.25,697.586 153.479,706.95    162.085,719.304 169.495,729.449 178.567,741.326 186.425,751.149 197.178,763.969 204.626,772.457 211.842,780.396    219.716,788.764 232.622,801.848 244.65,813.393 258.271,825.768 271.673,837.278 280.924,844.862 291.673,853.323    303.771,862.415 315.657,870.924 329.093,880.054 345.925,890.79 362.193,900.44 378.389,909.332 387.924,914.221 395.73,918.021    403.438,921.551  "
   id="polygon63" />
</g>
</svg>