<?xml version="1.0" encoding="UTF-8" standalone="no"?>
<!-- Generator: Adobe Illustrator 16.0.0, SVG Export Plug-In . SVG Version: 6.00 Build 0)  -->

<svg
   xmlns:dc="http://purl.org/dc/elements/1.1/"
   xmlns:cc="http://creativecommons.org/ns#"
   xmlns:rdf="http://www.w3.org/1999/02/22-rdf-syntax-ns#"
   xmlns:svg="http://www.w3.org/2000/svg"
   xmlns="http://www.w3.org/2000/svg"
   xmlns:sodipodi="http://sodipodi.sourceforge.net/DTD/sodipodi-0.dtd"
   xmlns:inkscape="http://www.inkscape.org/namespaces/inkscape"
   version="1.1"
   id="Layer_1"
   x="0px"
   y="0px"
   width="820px"
   height="952px"
   viewBox="0 0 820 952"
   enable-background="new 0 0 820 952"
   xml:space="preserve"
   inkscape:version="0.92.2 (5c3e80d, 2017-08-06)"
   sodipodi:docname="Albuquerque_Ancient (1).svg"><metadata
     id="metadata19"><rdf:RDF><cc:Work
         rdf:about=""><dc:format>image/svg+xml</dc:format><dc:type
           rdf:resource="http://purl.org/dc/dcmitype/StillImage" /><dc:title /></cc:Work></rdf:RDF></metadata><defs
     id="defs17" /><sodipodi:namedview
     pagecolor="#ffffff"
     bordercolor="#666666"
     borderopacity="1"
     objecttolerance="10"
     gridtolerance="10"
     guidetolerance="10"
     inkscape:pageopacity="0"
     inkscape:pageshadow="2"
     inkscape:window-width="640"
     inkscape:window-height="480"
     id="namedview15"
     showgrid="false"
     inkscape:zoom="0.24789916"
     inkscape:cx="410"
     inkscape:cy="476"
     inkscape:window-x="0"
     inkscape:window-y="0"
     inkscape:window-maximized="0"
     inkscape:current-layer="Layer_1" /><g
     id="g4"
     transform="translate(-400,466)"><polygon
       points="929.4,387.3 940.2,378.9 949.4,371.3 962.8,359.8 976.4,347.4 988.5,335.8 1001.4,322.8 1009.3,314.4 1016.5,306.5 1023.9,298 1034.7,285.1 1042.5,275.3 1051.6,263.4 1059,253.3 1067.6,241 1073.9,231.6 1080.5,221.2 1084.3,215 1091.4,203 1097.4,192.3 1103.4,181.3 1111,166.3 1116.8,154.2 1122.4,141.9 1128.9,126.5 1133.2,115.6 1136.8,106.3 1142,91.7 1146.4,78.2 1150.4,65.6 1153.9,52.9 1157.3,40.3 1160.9,25.6 1164.1,11.1 1166.4,-0.4 1168.5,-12.1 1170.5,-24.1 1172.5,-37.6 1174.3,-51.1 1175.6,-62.7 1176.7,-74.2 1177.9,-88.3 1179,-105.6 1179.4,-116.8 1180,-133.1 1180,-435.1 441.1,-435.1 441.1,-133.1 441.7,-116.8 442.1,-105.6 443.2,-88.3 444.4,-74.2 445.5,-62.7 446.8,-51.1 448.6,-37.6 450.6,-24.1 452.6,-12.1 454.7,-0.4 457,11.1 460.2,25.6 463.8,40.3 467.1,52.9 470.7,65.6 474.7,78.2 479.1,91.7 484.3,106.3 487.9,115.6 492.2,126.5 498.7,141.9 504.3,154.2 510.1,166.3 517.7,181.3 523.7,192.3 529.7,203 536.8,215 540.6,221.2 547.2,231.6 553.5,241 562.1,253.3 569.5,263.4 578.6,275.3 586.4,285.1 597.2,298 604.6,306.5 611.8,314.4 619.7,322.8 632.6,335.8 644.7,347.4 658.3,359.8 671.7,371.3 680.9,378.9 691.7,387.3 703.8,396.4 715.7,404.9 729.1,414.1 745.9,424.8 762.2,434.4 778.4,443.3 787.9,448.2 795.7,452 803.4,455.6 810.7,458.5 817.7,455.6 825.4,452 833.2,448.2 842.7,443.3 858.9,434.4 875.2,424.8 892,414.1 905.4,404.9 917.3,396.4 "
       id="polygon2"
       style="fill:#bc2e2e" /></g><g
     id="g8"
     transform="translate(-400,466)"><polygon
       stroke-miterlimit="10"
       points="929.4,387.3 940.2,378.9 949.4,371.3 962.8,359.8 976.4,347.4 988.5,335.8 1001.4,322.8 1009.3,314.4 1016.5,306.5 1023.9,298 1034.7,285.1 1042.5,275.3 1051.6,263.4 1059,253.3 1067.6,241 1073.9,231.6 1080.5,221.2 1084.3,215 1091.4,203 1097.4,192.3 1103.4,181.3 1111,166.3 1116.8,154.2 1122.4,141.9 1128.9,126.5 1133.2,115.6 1136.8,106.3 1142,91.7 1146.4,78.2 1150.4,65.6 1153.9,52.9 1157.3,40.3 1160.9,25.6 1164.1,11.1 1166.4,-0.4 1168.5,-12.1 1170.5,-24.1 1172.5,-37.6 1174.3,-51.1 1175.6,-62.7 1176.7,-74.2 1177.9,-88.3 1179,-105.6 1179.4,-116.8 1180,-133.1 1180,-435.1 441.1,-435.1 441.1,-133.1 441.7,-116.8 442.1,-105.6 443.2,-88.3 444.4,-74.2 445.5,-62.7 446.8,-51.1 448.6,-37.6 450.6,-24.1 452.6,-12.1 454.7,-0.4 457,11.1 460.2,25.6 463.8,40.3 467.1,52.9 470.7,65.6 474.7,78.2 479.1,91.7 484.3,106.3 487.9,115.6 492.2,126.5 498.7,141.9 504.3,154.2 510.1,166.3 517.7,181.3 523.7,192.3 529.7,203 536.8,215 540.6,221.2 547.2,231.6 553.5,241 562.1,253.3 569.5,263.4 578.6,275.3 586.4,285.1 597.2,298 604.6,306.5 611.8,314.4 619.7,322.8 632.6,335.8 644.7,347.4 658.3,359.8 671.7,371.3 680.9,378.9 691.7,387.3 703.8,396.4 715.7,404.9 729.1,414.1 745.9,424.8 762.2,434.4 778.4,443.3 787.9,448.2 795.7,452 803.4,455.6 810.7,458.5 817.7,455.6 825.4,452 833.2,448.2 842.7,443.3 858.9,434.4 875.2,424.8 892,414.1 905.4,404.9 917.3,396.4 "
       id="polygon6"
       style="fill:none;stroke:#000000;stroke-width:5;stroke-miterlimit:10" /></g><g
     transform="translate(-369.74911,466)"
     id="g48"><g
       id="g34"><g
         id="g32"><path
           stroke-miterlimit="10"
           d="m 964.2,-119.9 c 12.1,-5.9 21.1,-18.6 21.1,-27.7 0,-14.3 -13.2,-17.3 -13.2,-62.9 0,-47.4 31.2,-91.5 31.2,-132.6 0,-25.5 -34.8,-73.7 -39.2,-73.7 -4.4,0 -39.2,48.1 -39.2,73.7 0,41.1 31.2,85.2 31.2,132.6 0,45.6 -13.2,48.6 -13.2,62.9 0.1,9.2 9.4,21.8 21.3,27.7 z M 918,-175.3 c -9.7,0 -14.3,-7.6 -15.3,-8.6 -1.8,0.7 -3.9,5.4 -3.9,9.6 0,10.7 8.4,19.6 19.2,19.6 17.8,0 32.9,-21.5 32.9,-55.2 0,-19.1 -10.6,-67.9 -38.8,-89.9 -16.9,-12.6 -36.9,-6.9 -45.9,1.8 -9,8.6 -15.3,21.5 -15.3,35.2 0,53.4 52.3,62 52.3,60.3 0,-1.3 -8.2,-4 -8.2,-19.4 0,-6.7 8.1,-17.6 18.9,-17.6 14.3,0 26,10.7 26,29.8 -0.1,22.4 -9.4,34.4 -21.9,34.4 z m 93.5,20.6 c 10.8,0 19.2,-8.9 19.2,-19.6 0,-4.3 -2.1,-8.9 -3.9,-9.6 -1,1 -5.6,8.6 -15.3,8.6 -12.4,0 -21.8,-11.9 -21.8,-34.5 0,-19.1 11.7,-29.8 26,-29.8 10.8,0 18.9,10.9 18.9,17.6 0,15.4 -8.2,18.1 -8.2,19.4 0,1.7 52.3,-6.9 52.3,-60.3 0,-13.7 -6.3,-26.5 -15.3,-35.2 -9,-8.6 -29,-14.4 -45.9,-1.8 -28.2,22 -38.8,70.8 -38.8,89.9 -0.1,33.8 15.1,55.3 32.8,55.3 z"
           id="path30"
           style="fill:#f2bc51;stroke:#000000;stroke-width:3;stroke-miterlimit:10;stroke-opacity:1"
           inkscape:connector-curvature="0" /></g></g><g
       id="g42"><g
         id="g38"><path
           stroke-miterlimit="10"
           d="m 902.1,-183.7 c -1.8,5.4 4.1,19.3 16.2,19.3 16.1,0 26.7,-22.8 26.7,-44.6 0,-35.1 -21.6,-60.3 -42.2,-60.3 -16.6,0 -30,12.4 -30,31.4 0,23 29.9,35.5 29.9,35.5 m 123.1,0 c 0,0 29.9,-12.4 29.9,-35.5 0,-19 -13.4,-31.4 -30,-31.4 -20.6,0 -42.2,25.2 -42.2,60.3 0,21.7 10.6,44.6 26.7,44.6 12,0 17.9,-13.9 16.2,-19.3"
           id="path36"
           style="fill:none;stroke:#000000;stroke-width:3;stroke-miterlimit:10;stroke-opacity:1"
           inkscape:connector-curvature="0" /></g><line
         stroke-miterlimit="10"
         x1="964.09998"
         y1="-415.39999"
         x2="964.09998"
         y2="-120.5"
         id="line40"
         style="fill:none;stroke:#000000;stroke-width:3;stroke-miterlimit:10;stroke-opacity:1" /></g><g
       id="g46"><path
         stroke-miterlimit="10"
         d="m 990.1,-220.4 h -52 c -5.5,0 -8.9,4.4 -8.9,9.9 0,5.5 3.4,9.9 8.9,9.9 h 52 c 5.5,0 8.9,-4.4 8.9,-9.9 0.1,-5.5 -3.4,-9.9 -8.9,-9.9 z"
         id="path44"
         style="fill:#f2bc51;stroke:#000000;stroke-width:3;stroke-miterlimit:10;stroke-opacity:1"
         inkscape:connector-curvature="0" /></g></g><g
     transform="translate(-429.45411,466)"
     id="g88"><g
       id="g74"><g
         id="g72"><path
           stroke-miterlimit="10"
           d="m 678.2,-147.5 c 0,-14.3 -13.2,-17.3 -13.2,-62.9 0,-47.4 31.2,-91.5 31.2,-132.6 0,-25.5 -34.8,-73.7 -39.2,-73.7 -4.4,0 -39.2,48.1 -39.2,73.7 0,41.1 31.2,85.2 31.2,132.6 0,45.6 -13.2,48.6 -13.2,62.9 0,9.1 9,21.8 21.1,27.7 12,-6 21.2,-18.6 21.3,-27.7 z m 3.1,-62.4 c 0,-19.1 11.7,-29.8 26,-29.8 10.8,0 18.9,10.9 18.9,17.6 0,15.4 -8.2,18.1 -8.2,19.4 0,1.6 52.3,-6.9 52.3,-60.3 0,-13.7 -6.3,-26.5 -15.3,-35.2 -9,-8.6 -29,-14.4 -45.9,-1.8 -28.2,22 -38.8,70.9 -38.8,89.9 0,33.7 15.1,55.2 32.9,55.2 10.8,0 19.2,-8.9 19.2,-19.6 0,-4.3 -2.1,-8.9 -3.9,-9.6 -1,1 -5.6,8.6 -15.3,8.6 -12.6,0.2 -21.9,-11.8 -21.9,-34.4 z m -38.8,0 c 0,-19.1 -10.6,-67.9 -38.8,-89.9 -16.9,-12.6 -36.9,-6.9 -45.9,1.8 -9,8.6 -15.3,21.5 -15.3,35.2 0,53.4 52.3,62 52.3,60.3 0,-1.3 -8.2,-4 -8.2,-19.4 0,-6.7 8.1,-17.6 18.9,-17.6 14.3,0 26,10.7 26,29.8 0,22.6 -9.4,34.5 -21.8,34.5 -9.7,0 -14.3,-7.6 -15.3,-8.6 -1.8,0.7 -3.9,5.4 -3.9,9.6 0,10.7 8.4,19.6 19.2,19.6 17.6,-0.1 32.8,-21.6 32.8,-55.3 z"
           id="path70"
           style="fill:#f2bc51;stroke:#000000;stroke-width:3;stroke-miterlimit:10;stroke-opacity:1"
           inkscape:connector-curvature="0" /></g></g><g
       id="g82"><g
         id="g78"><path
           stroke-miterlimit="10"
           d="m 718.5,-202.4 c 0,0 29.9,-12.4 29.9,-35.5 0,-19 -13.4,-31.4 -30,-31.4 -20.6,0 -42.2,25.2 -42.2,60.3 0,21.7 10.6,44.6 26.7,44.6 12,0 17.9,-13.9 16.2,-19.3 m -124.3,0.1 c -1.8,5.4 4.1,19.3 16.2,19.3 16.1,0 26.7,-22.8 26.7,-44.6 0,-35.1 -21.5,-60.3 -42.2,-60.3 -16.6,0 -30,12.4 -30,31.4 0,23 29.9,35.5 29.9,35.5"
           id="path76"
           style="fill:none;stroke:#000000;stroke-width:3;stroke-miterlimit:10;stroke-opacity:1"
           inkscape:connector-curvature="0" /></g><line
         stroke-miterlimit="10"
         x1="657"
         y1="-120.5"
         x2="657"
         y2="-415.39999"
         id="line80"
         style="fill:none;stroke:#000000;stroke-width:3;stroke-miterlimit:10;stroke-opacity:1" /></g><g
       id="g86"><path
         stroke-miterlimit="10"
         d="m 622,-210.5 c 0,5.5 3.4,9.9 8.9,9.9 h 52 c 5.5,0 8.9,-4.4 8.9,-9.9 0,-5.5 -3.4,-9.9 -8.9,-9.9 h -52 c -5.4,0 -8.9,4.4 -8.9,9.9 z"
         id="path84"
         style="fill:#f2bc51;stroke:#000000;stroke-width:3;stroke-miterlimit:10;stroke-opacity:1"
         inkscape:connector-curvature="0" /></g></g><g
     id="g28"
     transform="translate(-400,466)"><g
       id="g14"><g
         id="g12"><path
           stroke-miterlimit="10"
           d="m 810.1,83.8 c 12.1,-5.9 21.1,-18.6 21.1,-27.7 0,-14.3 -13.2,-17.3 -13.2,-62.9 0,-47.4 31.2,-91.5 31.2,-132.6 0,-25.5 -34.8,-73.7 -39.2,-73.7 -4.4,0 -39.2,48.1 -39.2,73.7 0,41.1 31.2,85.2 31.2,132.6 0,45.6 -13.2,48.6 -13.2,62.9 0.1,9.1 9.4,21.7 21.3,27.7 z M 764,28.3 c -9.7,0 -14.3,-7.6 -15.3,-8.6 -1.8,0.7 -3.9,5.4 -3.9,9.6 0,10.7 8.4,19.6 19.2,19.6 17.8,0 32.9,-21.5 32.9,-55.2 0,-19.1 -10.6,-67.9 -38.8,-89.9 -16.9,-12.6 -36.9,-6.9 -45.9,1.8 -9,8.6 -15.3,21.5 -15.3,35.2 0,53.4 52.3,62 52.3,60.3 0,-1.3 -8.2,-4 -8.2,-19.4 0,-6.7 8.1,-17.6 18.9,-17.6 14.3,0 26,10.7 26,29.8 -0.1,22.4 -9.5,34.4 -21.9,34.4 z m 93.5,20.6 c 10.8,0 19.2,-8.9 19.2,-19.6 0,-4.3 -2.1,-8.9 -3.9,-9.6 -1,1 -5.6,8.6 -15.3,8.6 -12.4,0 -21.8,-11.9 -21.8,-34.5 0,-19.1 11.7,-29.8 26,-29.8 10.8,0 18.9,10.9 18.9,17.6 0,15.4 -8.2,18.1 -8.2,19.4 0,1.7 52.3,-6.9 52.3,-60.3 0,-13.7 -6.3,-26.5 -15.3,-35.2 -9,-8.6 -29,-14.4 -45.9,-1.8 -28.2,22 -38.8,70.8 -38.8,89.9 -0.1,33.8 15,55.3 32.8,55.3 z"
           id="path10"
           style="fill:#f2bc51;stroke:#000000;stroke-width:3;stroke-miterlimit:10;stroke-opacity:1"
           inkscape:connector-curvature="0" /></g></g><g
       id="g22"><g
         id="g18"><path
           stroke-miterlimit="10"
           d="m 748.1,20 c -1.8,5.4 4.1,19.3 16.2,19.3 16.1,0 26.7,-22.8 26.7,-44.6 0,-35.1 -21.6,-60.3 -42.2,-60.3 -16.6,0 -30,12.4 -30,31.4 0,23 29.9,35.5 29.9,35.5 M 871.8,1.2 c 0,0 29.9,-12.4 29.9,-35.5 0,-19 -13.4,-31.4 -30,-31.4 -20.6,0 -42.2,25.2 -42.2,60.3 0,21.7 10.6,44.6 26.7,44.6 12,0 17.9,-13.9 16.2,-19.3"
           id="path16"
           style="fill:none;stroke:#000000;stroke-width:3;stroke-miterlimit:10;stroke-opacity:1"
           inkscape:connector-curvature="0" /></g><line
         stroke-miterlimit="10"
         x1="810.09998"
         y1="-211.8"
         x2="810.09998"
         y2="83.099998"
         id="line20"
         style="fill:none;stroke:#000000;stroke-width:3;stroke-miterlimit:10;stroke-opacity:1" /></g><g
       id="g26"><path
         stroke-miterlimit="10"
         d="m 836.1,-16.8 h -52 c -5.5,0 -8.9,4.4 -8.9,9.9 0,5.5 3.4,9.9 8.9,9.9 h 52 c 5.5,0 8.9,-4.4 8.9,-9.9 0,-5.5 -3.4,-9.9 -8.9,-9.9 z"
         id="path24"
         style="fill:#f2bc51;stroke:#000000;stroke-width:3;stroke-miterlimit:10;stroke-opacity:1"
         inkscape:connector-curvature="0" /></g></g><g
     id="g68"
     transform="translate(-400,466)"><g
       id="g54"><g
         id="g52"><path
           stroke-miterlimit="10"
           d="m 964.2,287.4 c 12.1,-5.9 21.1,-18.6 21.1,-27.7 0,-14.3 -13.2,-17.3 -13.2,-62.9 0,-47.4 31.2,-91.5 31.2,-132.6 0,-25.5 -34.8,-73.7 -39.2,-73.7 -4.4,0 -39.2,48.1 -39.2,73.7 0,41.1 31.2,85.2 31.2,132.6 0,45.6 -13.2,48.6 -13.2,62.9 0.1,9.1 9.4,21.7 21.3,27.7 z M 918,231.9 c -9.7,0 -14.3,-7.6 -15.3,-8.6 -1.8,0.7 -3.9,5.4 -3.9,9.6 0,10.7 8.4,19.6 19.2,19.6 17.8,0 32.9,-21.5 32.9,-55.2 0,-19.1 -10.6,-67.9 -38.8,-89.9 -16.9,-12.6 -36.9,-6.9 -45.9,1.8 -9,8.6 -15.3,21.5 -15.3,35.2 0,53.4 52.3,62 52.3,60.3 0,-1.3 -8.2,-4 -8.2,-19.4 0,-6.7 8.1,-17.6 18.9,-17.6 14.3,0 26,10.7 26,29.8 -0.1,22.5 -9.4,34.4 -21.9,34.4 z m 93.5,20.6 c 10.8,0 19.2,-8.9 19.2,-19.6 0,-4.3 -2.1,-8.9 -3.9,-9.6 -1,1 -5.6,8.6 -15.3,8.6 -12.4,0 -21.8,-11.9 -21.8,-34.5 0,-19.1 11.7,-29.8 26,-29.8 10.8,0 18.9,10.9 18.9,17.6 0,15.4 -8.2,18.1 -8.2,19.4 0,1.7 52.3,-6.9 52.3,-60.3 0,-13.7 -6.3,-26.5 -15.3,-35.2 -9,-8.6 -29,-14.4 -45.9,-1.8 -28.2,22 -38.8,70.8 -38.8,89.9 -0.1,33.8 15.1,55.3 32.8,55.3 z"
           id="path50"
           style="fill:#f2bc51;stroke:#000000;stroke-width:3;stroke-miterlimit:10;stroke-opacity:1"
           inkscape:connector-curvature="0" /></g></g><g
       id="g62"><g
         id="g58"><path
           stroke-miterlimit="10"
           d="m 902.1,223.6 c -1.8,5.4 4.1,19.3 16.2,19.3 16.1,0 26.7,-22.8 26.7,-44.6 0,-35.1 -21.6,-60.3 -42.2,-60.3 -16.6,0 -30,12.4 -30,31.4 0,23 29.9,35.5 29.9,35.5 m 123.1,-0.1 c 0,0 29.9,-12.4 29.9,-35.5 0,-19 -13.4,-31.4 -30,-31.4 -20.6,0 -42.2,25.2 -42.2,60.3 0,21.7 10.6,44.6 26.7,44.6 12,0 17.9,-13.9 16.2,-19.3"
           id="path56"
           style="fill:none;stroke:#000000;stroke-width:3;stroke-miterlimit:10;stroke-opacity:1"
           inkscape:connector-curvature="0" /></g><line
         stroke-miterlimit="10"
         x1="964.09998"
         y1="-8.1999998"
         x2="964.09998"
         y2="286.70001"
         id="line60"
         style="fill:none;stroke:#000000;stroke-width:3;stroke-miterlimit:10;stroke-opacity:1" /></g><g
       id="g66"><path
         stroke-miterlimit="10"
         d="m 990.1,186.8 h -52 c -5.5,0 -8.9,4.4 -8.9,9.9 0,5.5 3.4,9.9 8.9,9.9 h 52 c 5.5,0 8.9,-4.4 8.9,-9.9 0.1,-5.5 -3.4,-9.9 -8.9,-9.9 z"
         id="path64"
         style="fill:#f2bc51;stroke:#000000;stroke-width:3;stroke-miterlimit:10;stroke-opacity:1"
         inkscape:connector-curvature="0" /></g></g><g
     id="g108"
     transform="translate(-400,466)"><g
       id="g94"><g
         id="g92"><path
           stroke-miterlimit="10"
           d="m 678.2,259.7 c 0,-14.3 -13.2,-17.3 -13.2,-62.9 0,-47.4 31.2,-91.5 31.2,-132.6 0,-25.5 -34.8,-73.7 -39.2,-73.7 -4.4,0 -39.2,48.1 -39.2,73.7 0,41.1 31.2,85.2 31.2,132.6 0,45.6 -13.2,48.6 -13.2,62.9 0,9.1 9,21.8 21.1,27.7 12,-6 21.2,-18.6 21.3,-27.7 z m 3.1,-62.3 c 0,-19.1 11.7,-29.8 26,-29.8 10.8,0 18.9,10.9 18.9,17.6 0,15.4 -8.2,18.1 -8.2,19.4 0,1.6 52.3,-6.9 52.3,-60.3 0,-13.7 -6.3,-26.5 -15.3,-35.2 -9,-8.6 -29,-14.4 -45.9,-1.8 -28.2,22 -38.8,70.9 -38.8,89.9 0,33.7 15.1,55.2 32.9,55.2 10.8,0 19.2,-8.9 19.2,-19.6 0,-4.3 -2.1,-8.9 -3.9,-9.6 -1,1 -5.6,8.6 -15.3,8.6 -12.6,0.1 -21.9,-11.8 -21.9,-34.4 z m -38.8,-0.1 c 0,-19.1 -10.6,-67.9 -38.8,-89.9 -16.9,-12.6 -36.9,-6.9 -45.9,1.8 -9,8.6 -15.3,21.5 -15.3,35.2 0,53.4 52.3,62 52.3,60.3 0,-1.3 -8.2,-4 -8.2,-19.4 0,-6.7 8.1,-17.6 18.9,-17.6 14.3,0 26,10.7 26,29.8 0,22.6 -9.4,34.5 -21.8,34.5 -9.7,0 -14.3,-7.6 -15.3,-8.6 -1.8,0.7 -3.9,5.4 -3.9,9.6 0,10.7 8.4,19.6 19.2,19.6 17.6,-0.1 32.8,-21.6 32.8,-55.3 z"
           id="path90"
           style="fill:#f2bc51;stroke:#000000;stroke-width:3;stroke-miterlimit:10;stroke-opacity:1"
           inkscape:connector-curvature="0" /></g></g><g
       id="g102"><g
         id="g98"><path
           stroke-miterlimit="10"
           d="m 718.5,204.8 c 0,0 29.9,-12.4 29.9,-35.5 0,-19 -13.4,-31.4 -30,-31.4 -20.6,0 -42.2,25.2 -42.2,60.3 0,21.7 10.6,44.6 26.7,44.6 12,0 17.9,-13.9 16.2,-19.3 m -124.3,0.1 c -1.8,5.4 4.1,19.3 16.2,19.3 16.1,0 26.7,-22.8 26.7,-44.6 0,-35.1 -21.5,-60.3 -42.2,-60.3 -16.6,0 -30,12.4 -30,31.4 0,23 29.9,35.5 29.9,35.5"
           id="path96"
           style="fill:none;stroke:#000000;stroke-width:3;stroke-miterlimit:10;stroke-opacity:1"
           inkscape:connector-curvature="0" /></g><line
         stroke-miterlimit="10"
         x1="657"
         y1="286.70001"
         x2="657"
         y2="-8.1999998"
         id="line100"
         style="fill:none;stroke:#000000;stroke-width:3;stroke-miterlimit:10;stroke-opacity:1" /></g><g
       id="g106"><path
         stroke-miterlimit="10"
         d="m 622,196.7 c 0,5.5 3.4,9.9 8.9,9.9 h 52 c 5.5,0 8.9,-4.4 8.9,-9.9 0,-5.5 -3.4,-9.9 -8.9,-9.9 h -52 c -5.4,0 -8.9,4.4 -8.9,9.9 z"
         id="path104"
         style="fill:#f2bc51;stroke:#000000;stroke-width:3;stroke-miterlimit:10;stroke-opacity:1"
         inkscape:connector-curvature="0" /></g></g></svg>