<?xml version="1.0" encoding="utf-8"?>
<!-- Generator: Adobe Illustrator 16.0.0, SVG Export Plug-In . SVG Version: 6.00 Build 0)  -->
<!DOCTYPE svg PUBLIC "-//W3C//DTD SVG 1.1//EN" "http://www.w3.org/Graphics/SVG/1.1/DTD/svg11.dtd">
<svg version="1.1" id="Layer_1" xmlns="http://www.w3.org/2000/svg" xmlns:xlink="http://www.w3.org/1999/xlink" x="0px" y="0px"
	 width="820px" height="952px" viewBox="0 0 820 952" enable-background="new 0 0 820 952" xml:space="preserve">
<g>
	<polygon fill="#BC2E2E" stroke="#000000" stroke-width="5" stroke-miterlimit="10" points="410.7,924.5 417.663,921.552 
		425.365,918.021 433.177,914.221 442.712,909.332 458.906,900.44 475.176,890.79 492.008,880.054 505.441,870.925 517.325,862.415 
		529.428,853.323 540.177,844.862 549.428,837.278 562.826,825.768 576.448,813.393 588.479,801.848 601.385,788.764 
		609.259,780.396 616.475,772.457 623.923,763.969 634.676,751.149 642.531,741.326 651.605,729.449 659.016,719.304 
		667.616,706.95 673.852,697.587 680.509,687.156 684.299,681.008 691.439,668.965 697.448,658.324 703.379,647.319 
		711.005,632.334 716.823,620.177 722.388,607.888 728.908,592.509 733.25,581.61 736.784,572.266 741.985,557.677 746.441,544.199 
		750.365,531.641 753.948,518.929 757.308,506.275 760.887,491.567 764.072,477.121 766.395,465.565 768.541,453.862 
		770.534,441.862 772.535,428.382 774.285,414.896 775.598,403.312 776.719,391.834 777.862,377.749 778.979,360.396 
		779.395,349.21 780,332.9 780,30.9 41.101,30.9 41.101,332.9 41.706,349.21 42.122,360.396 43.238,377.749 44.382,391.834 
		45.503,403.312 46.812,414.896 48.562,428.382 50.562,441.862 52.56,453.862 54.707,465.565 57.028,477.121 60.214,491.567 
		63.793,506.275 67.15,518.929 70.732,531.641 74.659,544.199 79.115,557.677 84.312,572.266 87.851,581.61 92.188,592.509 
		98.713,607.888 104.275,620.177 110.096,632.334 117.722,647.319 123.651,658.324 129.661,668.965 136.802,681.008 
		140.592,687.156 147.25,697.587 153.48,706.95 162.085,719.304 169.495,729.449 178.568,741.326 186.425,751.149 197.178,763.969 
		204.626,772.457 211.842,780.396 219.716,788.764 232.622,801.848 244.651,813.393 258.271,825.768 271.673,837.278 
		280.924,844.862 291.673,853.323 303.771,862.415 315.659,870.925 329.093,880.054 345.925,890.79 362.194,900.44 378.389,909.332 
		387.924,914.221 395.731,918.021 403.438,921.552 	"/>
</g>
<path fill="#F2BC51" stroke="#000000" stroke-width="3" stroke-miterlimit="10" d="M704.029,90.744l10.812,9.364l-497.94,574.855
	L206.09,665.6L704.029,90.744z"/>
<path fill="#F2BC51" stroke="#000000" stroke-width="3" stroke-miterlimit="10" d="M613.84,665.6l-10.812,9.363L105.09,100.108
	l10.811-9.364L613.84,665.6z"/>
<path fill="#F2BC51" stroke="#000000" stroke-width="3" stroke-miterlimit="10" d="M696.884,436.493v14.303H120.04v-14.303H696.884z
	"/>
<path fill="#F2BC51" stroke="#000000" stroke-width="3" stroke-miterlimit="10" d="M402.807,91.284h14.302V851.81h-14.302V91.284z"
	/>
<path fill="#F2BC51" stroke="#000000" stroke-width="3" stroke-miterlimit="10" d="M449.308,443.835
	c0,21.727-17.611,39.338-39.338,39.338c-21.726,0-39.337-17.611-39.337-39.338s17.612-39.338,39.337-39.338
	S449.308,422.108,449.308,443.835z"/>
<path fill="#F2BC51" stroke="#000000" stroke-width="3" stroke-miterlimit="10" d="M107.575,70.112
	c12.896,0,23.354,10.458,23.354,23.356c0,12.899-10.458,23.356-23.354,23.356c-12.9,0-23.357-10.457-23.357-23.356
	C84.218,80.57,94.675,70.112,107.575,70.112z"/>
<path fill="#F2BC51" stroke="#000000" stroke-width="3" stroke-miterlimit="10" d="M140.526,443.835
	c0,12.899-10.457,23.356-23.354,23.356c-12.899,0-23.357-10.457-23.357-23.356c0-12.898,10.458-23.355,23.357-23.355
	C130.069,420.479,140.526,430.935,140.526,443.835z"/>
<path fill="#F2BC51" stroke="#000000" stroke-width="3" stroke-miterlimit="10" d="M290.789,543.637
	c-8.369,9.816-7.194,24.562,2.623,32.931c9.814,8.365,24.559,7.191,32.927-2.623c8.368-9.815,7.194-24.562-2.623-32.93
	C313.899,532.646,299.157,533.82,290.789,543.637z"/>
<path fill="#F2BC51" stroke="#000000" stroke-width="3" stroke-miterlimit="10" d="M193.56,653.269
	c-8.368,9.816-7.191,24.562,2.623,32.93c9.817,8.369,24.562,7.191,32.927-2.622c8.369-9.816,7.194-24.562-2.623-32.93
	C216.67,642.277,201.928,643.452,193.56,653.269z"/>
<path fill="#F2BC51" stroke="#000000" stroke-width="3" stroke-miterlimit="10" d="M283.026,443.835
	c0,12.899-10.457,23.356-23.354,23.356c-12.9,0-23.357-10.457-23.357-23.356c0-12.898,10.457-23.355,23.357-23.355
	C272.569,420.479,283.026,430.935,283.026,443.835z"/>
<path fill="#F2BC51" stroke="#000000" stroke-width="3" stroke-miterlimit="10" d="M227.214,199.479
	c8.368,9.815,7.194,24.559-2.623,32.927c-8.369,8.369-24.562,7.194-32.927-2.623c-8.368-9.817-7.194-24.559,2.623-32.927
	C204.104,188.488,218.846,189.662,227.214,199.479z"/>
<path fill="#F2BC51" stroke="#000000" stroke-width="3" stroke-miterlimit="10" d="M734.311,93.469
	c0,12.899-10.457,23.356-23.356,23.356c-12.897,0-23.354-10.457-23.354-23.356s10.457-23.356,23.354-23.356
	C723.854,70.112,734.311,80.57,734.311,93.469z"/>
<path fill="#F2BC51" stroke="#000000" stroke-width="3" stroke-miterlimit="10" d="M624.24,196.856
	c9.815,8.368,10.99,23.109,2.623,32.927c-8.369,9.817-24.56,10.991-32.928,2.623c-9.816-8.368-10.99-23.11-2.623-32.927
	C599.682,189.662,614.424,188.488,624.24,196.856z"/>
<path fill="#F2BC51" stroke="#000000" stroke-width="3" stroke-miterlimit="10" d="M323.214,308.479
	c8.368,9.817,7.194,24.562-2.623,32.93c-8.369,8.368-24.559,7.191-32.927-2.623c-8.368-9.816-7.194-24.562,2.623-32.927
	C300.104,297.488,314.846,298.662,323.214,308.479z"/>
<path fill="#F2BC51" stroke="#000000" stroke-width="3" stroke-miterlimit="10" d="M409.958,70.112
	c-12.899,0-23.356,10.458-23.356,23.356c0,12.899,10.457,23.356,23.356,23.356c12.896,0,23.354-10.457,23.354-23.356
	C433.314,80.57,422.855,70.112,409.958,70.112z"/>
<path fill="#F2BC51" stroke="#000000" stroke-width="3" stroke-miterlimit="10" d="M409.958,569.652
	c-12.899,0-23.356,10.458-23.356,23.354c0,12.898,10.457,23.355,23.356,23.355c12.896,0,23.354-10.457,23.354-23.355
	C433.314,580.11,422.855,569.652,409.958,569.652z"/>
<path fill="#F2BC51" stroke="#000000" stroke-width="3" stroke-miterlimit="10" d="M386.601,722.758
	c0,12.898,10.457,23.355,23.356,23.355c12.896,0,23.354-10.457,23.354-23.355c0-12.896-10.459-23.354-23.354-23.354
	C397.058,699.4,386.601,709.857,386.601,722.758z"/>
<path fill="#F2BC51" stroke="#000000" stroke-width="3" stroke-miterlimit="10" d="M386.601,846.894
	c0,12.898,10.457,23.354,23.356,23.354c12.896,0,23.354-10.456,23.354-23.354c0-12.897-10.459-23.354-23.354-23.354
	C397.058,823.536,386.601,833.993,386.601,846.894z"/>
<path fill="#F2BC51" stroke="#000000" stroke-width="3" stroke-miterlimit="10" d="M679.424,443.835
	c0,12.899,10.457,23.356,23.354,23.356c12.898,0,23.355-10.457,23.355-23.356c0-12.898-10.457-23.355-23.355-23.355
	C689.881,420.479,679.424,430.935,679.424,443.835z"/>
<path fill="#F2BC51" stroke="#000000" stroke-width="3" stroke-miterlimit="10" d="M529.158,543.637
	c8.368,9.816,7.194,24.562-2.622,32.931c-9.814,8.365-24.561,7.191-32.928-2.623c-8.368-9.815-7.194-24.562,2.623-32.93
	S520.793,533.82,529.158,543.637z"/>
<path fill="#F2BC51" stroke="#000000" stroke-width="3" stroke-miterlimit="10" d="M626.39,653.269
	c8.368,9.816,7.194,24.562-2.622,32.93c-9.815,8.369-24.559,7.191-32.928-2.622c-8.367-9.816-7.193-24.562,2.623-32.93
	C603.279,642.277,618.021,643.452,626.39,653.269z"/>
<path fill="#F2BC51" stroke="#000000" stroke-width="3" stroke-miterlimit="10" d="M536.924,443.835
	c0,12.899,10.457,23.356,23.354,23.356c12.898,0,23.355-10.457,23.355-23.356c0-12.898-10.457-23.355-23.355-23.355
	C547.381,420.479,536.924,430.935,536.924,443.835z"/>
<path fill="#F2BC51" stroke="#000000" stroke-width="3" stroke-miterlimit="10" d="M409.958,175.112
	c-12.899,0-23.356,10.458-23.356,23.356c0,12.899,10.457,23.356,23.356,23.356c12.896,0,23.354-10.457,23.354-23.356
	C433.314,185.57,422.855,175.112,409.958,175.112z"/>
<path fill="#F2BC51" stroke="#000000" stroke-width="3" stroke-miterlimit="10" d="M409.958,295.112
	c-12.899,0-23.356,10.458-23.356,23.357c0,12.898,10.457,23.355,23.356,23.355c12.896,0,23.354-10.457,23.354-23.355
	C433.314,305.57,422.855,295.112,409.958,295.112z"/>
<path fill="#F2BC51" stroke="#000000" stroke-width="3" stroke-miterlimit="10" d="M496.736,308.479
	c-8.369,9.817-7.194,24.562,2.623,32.93c8.367,8.368,24.562,7.191,32.927-2.623c8.368-9.816,7.194-24.562-2.623-32.927
	C519.847,297.488,505.104,298.662,496.736,308.479z"/>
</svg>
