<?xml version="1.0" encoding="UTF-8" standalone="no"?>
<svg
   version="1.1"
   width="51"
   height="33"
   shape-rendering="crispEdges"
   id="svg31951"
   sodipodi:docname="almohad.svg"
   inkscape:version="1.2 (dc2aedaf03, 2022-05-15)"
   xmlns:inkscape="http://www.inkscape.org/namespaces/inkscape"
   xmlns:sodipodi="http://sodipodi.sourceforge.net/DTD/sodipodi-0.dtd"
   xmlns="http://www.w3.org/2000/svg"
   xmlns:svg="http://www.w3.org/2000/svg">
  <defs
     id="defs31955">
    <inkscape:path-effect
       effect="fillet_chamfer"
       id="path-effect8706"
       is_visible="true"
       lpeversion="1"
       nodesatellites_param="F,1,0,1,0,0.25,0,1 @ F,1,0,1,0,0.25,0,1 @ F,1,0,1,0,0.25,0,1 @ F,1,0,1,0,0.25,0,1 @ F,1,0,1,0,0.25,0,1 @ F,1,0,1,0,0.25,0,1 @ F,1,0,1,0,0.25,0,1 @ F,1,0,1,0,0.25,0,1 @ F,1,0,1,0,0.25,0,1 @ F,1,0,1,0,0.25,0,1 @ F,1,0,1,0,0.25,0,1 @ F,1,0,1,0,0.25,0,1 @ F,1,0,1,0,0.25,0,1 @ F,1,0,1,0,0.25,0,1 @ F,1,0,1,0,0.25,0,1 @ F,1,0,1,0,0.25,0,1 @ F,1,0,1,0,0.25,0,1 @ F,1,0,1,0,0.25,0,1 @ F,1,0,1,0,0.25,0,1 @ F,1,0,1,0,0.25,0,1 @ F,1,0,1,0,0.25,0,1 @ F,1,0,1,0,0.25,0,1 @ F,1,0,1,0,0.25,0,1 @ F,1,0,1,0,0.25,0,1 @ F,1,0,1,0,0.25,0,1 @ F,1,0,1,0,0.25,0,1 @ F,1,0,1,0,0.25,0,1 @ F,1,0,1,0,0.25,0,1 @ F,1,0,1,0,0.25,0,1 @ F,1,0,1,0,0.25,0,1 @ F,1,0,1,0,0.25,0,1 @ F,1,0,1,0,0.25,0,1 @ F,1,0,1,0,0.25,0,1 @ F,1,0,1,0,0.25,0,1 @ F,1,0,1,0,0.25,0,1 @ F,1,0,1,0,0.25,0,1 @ F,1,0,1,0,0.25,0,1 @ F,1,0,1,0,0.25,0,1 @ F,1,0,1,0,0.25,0,1 @ F,1,0,1,0,0.25,0,1 @ F,1,0,1,0,0.25,0,1 @ F,1,0,1,0,0.25,0,1 @ F,1,0,1,0,0.25,0,1 @ F,1,0,1,0,0.25,0,1 @ F,1,0,1,0,0.25,0,1 @ F,1,0,1,0,0.25,0,1 @ F,1,0,1,0,0.25,0,1 @ F,1,0,1,0,0.25,0,1 @ F,1,0,1,0,0.25,0,1 @ F,1,0,1,0,0.25,0,1 @ F,1,0,1,0,0.25,0,1 @ F,1,0,1,0,0.25,0,1 @ F,1,0,1,0,0.25,0,1 @ F,1,0,1,0,0.25,0,1 @ F,1,0,1,0,0.25,0,1 @ F,1,0,1,0,0.25,0,1 @ F,1,0,1,0,0.25,0,1 @ F,1,0,1,0,0.25,0,1 @ F,1,0,1,0,0.25,0,1 @ F,1,0,1,0,0.25,0,1 @ F,1,0,1,0,0.25,0,1 @ F,1,0,1,0,0.25,0,1 @ F,1,0,1,0,0.25,0,1 @ F,1,0,1,0,0.25,0,1 @ F,1,0,1,0,0.25,0,1 @ F,1,0,1,0,0.25,0,1 @ F,1,0,1,0,0.25,0,1 @ F,1,0,1,0,0.25,0,1 @ F,1,0,1,0,0.25,0,1 @ F,1,0,1,0,0.25,0,1 @ F,1,0,1,0,0.25,0,1 @ F,1,0,1,0,0.25,0,1 @ F,1,0,1,0,0.25,0,1 @ F,1,0,1,0,0.25,0,1 @ F,1,0,1,0,0.25,0,1 @ F,1,0,1,0,0.25,0,1 @ F,1,0,1,0,0.25,0,1 @ F,1,0,1,0,0.25,0,1 @ F,1,0,1,0,0.25,0,1 @ F,1,0,1,0,0.25,0,1 @ F,1,0,1,0,0.25,0,1 @ F,1,0,1,0,0.25,0,1 @ F,1,0,1,0,0.25,0,1 @ F,1,0,1,0,0.25,0,1 @ F,1,0,1,0,0.25,0,1 @ F,1,0,1,0,0.25,0,1 @ F,1,0,1,0,0.25,0,1 @ F,1,0,1,0,0.25,0,1 @ F,1,0,1,0,0.25,0,1 @ F,1,0,1,0,0.25,0,1 @ F,1,0,1,0,0.25,0,1 @ F,1,0,1,0,0.25,0,1 @ F,1,0,1,0,0.25,0,1 @ F,1,0,1,0,0.25,0,1 @ F,1,0,1,0,0.25,0,1 @ F,1,0,1,0,0.25,0,1 @ F,1,0,1,0,0.25,0,1 @ F,1,0,1,0,0.25,0,1 @ F,1,0,1,0,0.25,0,1 @ F,1,0,1,0,0.25,0,1 @ F,1,0,1,0,0.25,0,1 @ F,1,0,1,0,0.25,0,1 @ F,1,0,1,0,0.25,0,1 @ F,1,0,1,0,0.25,0,1 @ F,1,0,1,0,0.25,0,1 @ F,1,0,1,0,0.25,0,1 @ F,1,0,1,0,0.25,0,1 @ F,1,0,1,0,0.25,0,1 @ F,1,0,1,0,0.25,0,1 @ F,1,0,1,0,0.25,0,1 @ F,1,0,1,0,0.25,0,1 @ F,1,0,1,0,0.25,0,1 @ F,1,0,1,0,0.25,0,1 @ F,1,0,1,0,0.25,0,1 @ F,1,0,1,0,0.25,0,1 @ F,1,0,1,0,0.25,0,1 @ F,1,0,1,0,0.25,0,1 @ F,1,0,1,0,0.25,0,1 @ F,1,0,1,0,0.25,0,1 @ F,1,0,1,0,0.25,0,1 @ F,1,0,1,0,0.25,0,1 @ F,1,0,1,0,0.25,0,1 @ F,1,0,1,0,0.25,0,1 @ F,1,0,1,0,0.25,0,1 @ F,1,0,1,0,0.25,0,1 @ F,1,0,1,0,0.25,0,1 @ F,1,0,1,0,0.25,0,1 @ F,1,0,1,0,0.25,0,1 @ F,1,0,1,0,0.25,0,1 @ F,1,0,1,0,0.25,0,1 @ F,1,0,1,0,0.25,0,1 @ F,1,0,1,0,0.25,0,1 @ F,1,0,1,0,0.25,0,1 @ F,1,0,1,0,0.25,0,1 @ F,1,0,1,0,0.25,0,1 @ F,1,0,1,0,0.25,0,1 @ F,1,0,1,0,0.25,0,1 @ F,1,0,1,0,0.25,0,1 @ F,1,0,1,0,0.25,0,1 @ F,1,0,1,0,0.25,0,1 @ F,1,0,1,0,0.25,0,1 @ F,1,0,1,0,0.25,0,1 @ F,1,0,1,0,0.25,0,1 @ F,1,0,1,0,0.25,0,1 @ F,1,0,1,0,0.25,0,1 @ F,1,0,1,0,0.25,0,1 @ F,1,0,1,0,0.25,0,1 @ F,1,0,1,0,0.25,0,1 @ F,1,0,1,0,0.25,0,1 @ F,1,0,1,0,0.25,0,1 @ F,1,0,1,0,0.25,0,1 @ F,1,0,1,0,0.25,0,1 @ F,1,0,1,0,0.25,0,1 @ F,1,0,1,0,0.25,0,1 @ F,1,0,1,0,0.25,0,1 @ F,1,0,1,0,0.25,0,1 @ F,1,0,1,0,0.25,0,1 @ F,1,0,1,0,0.25,0,1 @ F,1,0,1,0,0.25,0,1 @ F,1,0,1,0,0.25,0,1 @ F,1,0,1,0,0.25,0,1 @ F,1,0,1,0,0.25,0,1 @ F,1,0,1,0,0.25,0,1 @ F,1,0,1,0,0.25,0,1 @ F,1,0,1,0,0.25,0,1 @ F,1,0,1,0,0.25,0,1 @ F,1,0,1,0,0.25,0,1 @ F,1,0,1,0,0.25,0,1 @ F,1,0,1,0,0.25,0,1 @ F,1,0,1,0,0.25,0,1 @ F,1,0,1,0,0.25,0,1 @ F,1,0,1,0,0.25,0,1 @ F,1,0,1,0,0.25,0,1 @ F,1,0,1,0,0.25,0,1 @ F,1,0,1,0,0.25,0,1 @ F,1,0,1,0,0.25,0,1 @ F,1,0,1,0,0.25,0,1 @ F,1,0,1,0,0.25,0,1 @ F,1,0,1,0,0.25,0,1 @ F,1,0,1,0,0.25,0,1 @ F,1,0,1,0,0.25,0,1 @ F,1,0,1,0,0.25,0,1 @ F,1,0,1,0,0.25,0,1 @ F,1,0,1,0,0.25,0,1 @ F,1,0,1,0,0.25,0,1 @ F,1,0,1,0,0.25,0,1 @ F,1,0,1,0,0.25,0,1 @ F,1,0,1,0,0.25,0,1 @ F,1,0,1,0,0.25,0,1 @ F,1,0,1,0,0.25,0,1 @ F,1,0,1,0,0.25,0,1 @ F,1,0,1,0,0.25,0,1 @ F,1,0,1,0,0.25,0,1 @ F,1,0,1,0,0.25,0,1 @ F,1,0,1,0,0.25,0,1 @ F,1,0,1,0,0.25,0,1 @ F,1,0,1,0,0.25,0,1 @ F,1,0,1,0,0.25,0,1 @ F,1,0,1,0,0.25,0,1 @ F,1,0,1,0,0.25,0,1 @ F,1,0,1,0,0.25,0,1 @ F,1,0,1,0,0.25,0,1 @ F,1,0,1,0,0.25,0,1 @ F,1,0,1,0,0.25,0,1 @ F,1,0,1,0,0.25,0,1 @ F,1,0,1,0,0.25,0,1 @ F,1,0,1,0,0.25,0,1 @ F,1,0,1,0,0.25,0,1 @ F,1,0,1,0,0.25,0,1 @ F,1,0,1,0,0.25,0,1 @ F,1,0,1,0,0.25,0,1 @ F,1,0,1,0,0.25,0,1 | F,1,0,1,0,0.25,0,1 @ F,1,0,1,0,0.25,0,1 @ F,1,0,1,0,0.25,0,1 @ F,1,0,1,0,0.25,0,1 @ F,1,0,1,0,0.25,0,1 @ F,1,0,1,0,0.25,0,1 @ F,1,0,1,0,0.25,0,1 @ F,1,0,1,0,0.25,0,1 @ F,1,0,1,0,0.25,0,1 @ F,1,0,1,0,0.25,0,1 @ F,1,0,1,0,0.25,0,1 @ F,1,0,1,0,0.25,0,1 @ F,1,0,1,0,0.25,0,1 @ F,1,0,1,0,0.25,0,1 @ F,1,0,1,0,0.25,0,1 @ F,1,0,1,0,0.25,0,1 @ F,1,0,1,0,0.25,0,1 @ F,1,0,1,0,0.25,0,1 @ F,1,0,1,0,0.25,0,1 @ F,1,0,1,0,0.25,0,1 @ F,1,0,1,0,0.25,0,1 @ F,1,0,1,0,0.25,0,1 @ F,1,0,1,0,0.25,0,1 @ F,1,0,1,0,0.25,0,1 @ F,1,0,1,0,0.25,0,1 @ F,1,0,1,0,0.25,0,1 @ F,1,0,1,0,0.25,0,1 @ F,1,0,1,0,0.25,0,1 @ F,1,0,1,0,0.25,0,1 @ F,1,0,1,0,0.25,0,1 @ F,1,0,1,0,0.25,0,1 @ F,1,0,1,0,0.25,0,1 @ F,1,0,1,0,0.25,0,1 @ F,1,0,1,0,0.25,0,1 @ F,1,0,1,0,0.25,0,1 @ F,1,0,1,0,0.25,0,1 @ F,1,0,1,0,0.25,0,1 @ F,1,0,1,0,0.25,0,1 @ F,1,0,1,0,0.25,0,1 @ F,1,0,1,0,0.25,0,1 @ F,1,0,1,0,0.25,0,1 @ F,1,0,1,0,0.25,0,1 @ F,1,0,1,0,0.25,0,1 @ F,1,0,1,0,0.25,0,1 @ F,1,0,1,0,0.25,0,1 @ F,1,0,1,0,0.25,0,1 @ F,1,0,1,0,0.25,0,1 @ F,1,0,1,0,0.25,0,1 @ F,1,0,1,0,0.25,0,1 @ F,1,0,1,0,0.25,0,1 @ F,1,0,1,0,0.25,0,1 @ F,1,0,1,0,0.25,0,1 @ F,1,0,1,0,0.25,0,1 @ F,1,0,1,0,0.25,0,1 @ F,1,0,1,0,0.25,0,1 @ F,1,0,1,0,0.25,0,1 @ F,1,0,1,0,0.25,0,1 @ F,1,0,1,0,0.25,0,1 @ F,1,0,1,0,0.25,0,1 @ F,1,0,1,0,0.25,0,1 @ F,1,0,1,0,0.25,0,1 @ F,1,0,1,0,0.25,0,1 @ F,1,0,1,0,0.25,0,1 @ F,1,0,1,0,0.25,0,1 @ F,1,0,1,0,0.25,0,1 @ F,1,0,1,0,0.25,0,1 @ F,1,0,1,0,0.25,0,1 @ F,1,0,1,0,0.25,0,1 @ F,1,0,1,0,0.25,0,1 @ F,1,0,1,0,0.25,0,1 @ F,1,0,1,0,0.25,0,1 @ F,1,0,1,0,0.25,0,1 @ F,1,0,1,0,0.25,0,1 @ F,1,0,1,0,0.25,0,1"
       unit="px"
       method="auto"
       mode="F"
       radius="25"
       chamfer_steps="1"
       flexible="true"
       use_knot_distance="true"
       apply_no_radius="true"
       apply_with_radius="true"
       only_selected="false"
       hide_knots="false" />
  </defs>
  <sodipodi:namedview
     id="namedview31953"
     pagecolor="#ffffff"
     bordercolor="#666666"
     borderopacity="1.0"
     inkscape:showpageshadow="2"
     inkscape:pageopacity="0.0"
     inkscape:pagecheckerboard="0"
     inkscape:deskcolor="#d1d1d1"
     showgrid="false"
     inkscape:zoom="6.3253012"
     inkscape:cx="16.6"
     inkscape:cy="3.4780952"
     inkscape:window-width="1366"
     inkscape:window-height="705"
     inkscape:window-x="-8"
     inkscape:window-y="-8"
     inkscape:window-maximized="1"
     inkscape:current-layer="svg31951" />
  <path
     id="rect29015"
     d="m 13,0.25 v 0.5 A 0.25,0.25 135 0 1 12.75,1 h -0.5 -1 -1 -1 A 0.25,0.25 135 0 0 9,1.25 v 0.5 A 0.25,0.25 135 0 1 8.75,2 h -0.5 -1 -1 A 0.25,0.25 135 0 0 6,2.25 v 0.5 A 0.25,0.25 135 0 1 5.75,3 h -0.5 -1 A 0.25,0.25 135 0 0 4,3.25 v 0.5 A 0.25,0.25 135 0 1 3.75,4 H 3.25 A 0.25,0.25 135 0 0 3,4.25 v 0.5 1 A 0.25,0.25 135 0 1 2.75,6 H 2.25 A 0.25,0.25 135 0 0 2,6.25 v 0.5 1 A 0.25,0.25 135 0 1 1.75,8 H 1.25 A 0.25,0.25 135 0 0 1,8.25 v 0.5 A 0.25,0.25 135 0 1 0.75,9 H 0.25 A 0.25,0.25 135 0 0 0,9.25 v 0.5 1 1 1 A 0.25,0.25 45 0 0 0.25,13 h 0.5 1 1 A 0.25,0.25 45 0 1 3,13.25 v 0.5 A 0.25,0.25 45 0 0 3.25,14 h 0.5 A 0.25,0.25 45 0 1 4,14.25 v 0.5 1 A 0.25,0.25 135 0 1 3.75,16 H 3.25 A 0.25,0.25 135 0 0 3,16.25 v 0.5 1 A 0.25,0.25 45 0 0 3.25,18 h 0.5 1 A 0.25,0.25 135 0 0 5,17.75 v -0.5 A 0.25,0.25 135 0 1 5.25,17 h 0.5 1 A 0.25,0.25 45 0 1 7,17.25 v 0.5 A 0.25,0.25 45 0 0 7.25,18 h 0.5 A 0.25,0.25 45 0 1 8,18.25 v 0.5 A 0.25,0.25 45 0 0 8.25,19 h 0.5 A 0.25,0.25 45 0 1 9,19.25 v 0.5 1 A 0.25,0.25 45 0 0 9.25,21 h 0.5 A 0.25,0.25 45 0 1 10,21.25 v 0.5 A 0.25,0.25 45 0 0 10.25,22 h 0.5 A 0.25,0.25 45 0 1 11,22.25 v 0.5 A 0.25,0.25 45 0 0 11.25,23 h 0.5 A 0.25,0.25 45 0 1 12,23.25 v 0.5 A 0.25,0.25 45 0 0 12.25,24 h 0.5 A 0.25,0.25 135 0 0 13,23.75 v -0.5 A 0.25,0.25 135 0 1 13.25,23 h 0.5 1 A 0.25,0.25 135 0 0 15,22.75 v -0.5 A 0.25,0.25 135 0 1 15.25,22 h 0.5 A 0.25,0.25 45 0 1 16,22.25 v 0.5 1 A 0.25,0.25 135 0 1 15.75,24 h -0.5 A 0.25,0.25 135 0 0 15,24.25 v 0.5 A 0.25,0.25 135 0 1 14.75,25 h -0.5 A 0.25,0.25 135 0 0 14,25.25 v 0.5 A 0.25,0.25 135 0 1 13.75,26 h -0.5 -1 A 0.25,0.25 135 0 0 12,26.25 v 0.5 A 0.25,0.25 45 0 0 12.25,27 h 0.5 1 A 0.25,0.25 45 0 1 14,27.25 v 0.5 1 A 0.25,0.25 135 0 1 13.75,29 h -0.5 A 0.25,0.25 135 0 0 13,29.25 v 0.5 A 0.25,0.25 45 0 0 13.25,30 h 0.5 A 0.25,0.25 45 0 1 14,30.25 v 0.5 A 0.25,0.25 45 0 0 14.25,31 h 0.5 A 0.25,0.25 45 0 1 15,31.25 v 0.5 1 A 0.25,0.25 45 0 0 15.25,33 h 0.5 1 1 A 0.25,0.25 135 0 0 18,32.75 v -0.5 A 0.25,0.25 135 0 1 18.25,32 h 0.5 A 0.25,0.25 135 0 0 19,31.75 v -0.5 A 0.25,0.25 135 0 1 19.25,31 h 0.5 1 A 0.25,0.25 135 0 0 21,30.75 v -0.5 A 0.25,0.25 135 0 1 21.25,30 h 0.5 A 0.25,0.25 45 0 1 22,30.25 v 0.5 A 0.25,0.25 45 0 0 22.25,31 h 0.5 1 A 0.25,0.25 135 0 0 24,30.75 v -0.5 A 0.25,0.25 135 0 1 24.25,30 h 0.5 1 1 A 0.25,0.25 135 0 0 27,29.75 v -0.5 A 0.25,0.25 135 0 1 27.25,29 h 0.5 A 0.25,0.25 45 0 1 28,29.25 v 0.5 A 0.25,0.25 45 0 0 28.25,30 h 0.5 1 1 A 0.25,0.25 45 0 1 31,30.25 v 0.5 A 0.25,0.25 45 0 0 31.25,31 h 0.5 1 1 1 1 A 0.25,0.25 45 0 1 36,31.25 v 0.5 A 0.25,0.25 45 0 0 36.25,32 h 0.5 1 A 0.25,0.25 135 0 0 38,31.75 v -0.5 A 0.25,0.25 135 0 1 38.25,31 h 0.5 1 A 0.25,0.25 45 0 1 40,31.25 v 0.5 A 0.25,0.25 45 0 0 40.25,32 h 0.5 1 A 0.25,0.25 135 0 0 42,31.75 v -0.5 -1 A 0.25,0.25 135 0 1 42.25,30 h 0.5 A 0.25,0.25 135 0 0 43,29.75 v -0.5 A 0.25,0.25 135 0 1 43.25,29 h 0.5 A 0.25,0.25 135 0 0 44,28.75 v -0.5 -1 A 0.25,0.25 45 0 0 43.75,27 h -0.5 A 0.25,0.25 45 0 1 43,26.75 v -0.5 -1 A 0.25,0.25 45 0 0 42.75,25 h -0.5 A 0.25,0.25 45 0 1 42,24.75 v -0.5 -1 -1 -1 A 0.25,0.25 135 0 1 42.25,21 h 0.5 A 0.25,0.25 135 0 0 43,20.75 v -0.5 A 0.25,0.25 135 0 1 43.25,20 h 0.5 A 0.25,0.25 135 0 0 44,19.75 v -0.5 A 0.25,0.25 135 0 1 44.25,19 h 0.5 A 0.25,0.25 45 0 1 45,19.25 v 0.5 A 0.25,0.25 45 0 0 45.25,20 h 0.5 1 1 1 A 0.25,0.25 135 0 0 49,19.75 v -0.5 A 0.25,0.25 135 0 1 49.25,19 h 0.5 A 0.25,0.25 135 0 0 50,18.75 v -0.5 A 0.25,0.25 135 0 1 50.25,18 h 0.5 A 0.25,0.25 135 0 0 51,17.75 v -0.5 -1 -1 -1 A 0.25,0.25 45 0 0 50.75,14 h -0.5 A 0.25,0.25 45 0 1 50,13.75 v -0.5 A 0.25,0.25 45 0 0 49.75,13 h -0.5 A 0.25,0.25 45 0 1 49,12.75 v -0.5 -1 -1 A 0.25,0.25 45 0 0 48.75,10 h -0.5 A 0.25,0.25 45 0 1 48,9.75 v -0.5 -1 -1 A 0.25,0.25 45 0 0 47.75,7 h -0.5 -1 A 0.25,0.25 135 0 0 46,7.25 v 0.5 A 0.25,0.25 135 0 1 45.75,8 h -0.5 -1 A 0.25,0.25 135 0 0 44,8.25 v 0.5 A 0.25,0.25 135 0 1 43.75,9 h -0.5 A 0.25,0.25 135 0 0 43,9.25 v 0.5 A 0.25,0.25 135 0 1 42.75,10 h -0.5 A 0.25,0.25 135 0 0 42,10.25 v 0.5 A 0.25,0.25 135 0 1 41.75,11 h -0.5 A 0.25,0.25 135 0 0 41,11.25 v 0.5 A 0.25,0.25 135 0 1 40.75,12 h -0.5 -1 -1 -1 A 0.25,0.25 45 0 1 37,11.75 v -0.5 A 0.25,0.25 45 0 0 36.75,11 h -0.5 -1 -1 -1 A 0.25,0.25 45 0 1 33,10.75 v -0.5 A 0.25,0.25 45 0 0 32.75,10 h -0.5 A 0.25,0.25 45 0 1 32,9.75 V 9.25 A 0.25,0.25 45 0 0 31.75,9 h -0.5 A 0.25,0.25 45 0 1 31,8.75 V 8.25 A 0.25,0.25 45 0 0 30.75,8 h -0.5 A 0.25,0.25 45 0 1 30,7.75 V 7.25 A 0.25,0.25 45 0 0 29.75,7 h -0.5 A 0.25,0.25 45 0 1 29,6.75 v -0.5 -1 A 0.25,0.25 45 0 0 28.75,5 h -0.5 A 0.25,0.25 45 0 1 28,4.75 V 4.25 A 0.25,0.25 45 0 0 27.75,4 h -0.5 -1 A 0.25,0.25 45 0 1 26,3.75 V 3.25 A 0.25,0.25 45 0 0 25.75,3 h -0.5 -1 -1 -1 A 0.25,0.25 45 0 1 22,2.75 V 2.25 A 0.25,0.25 45 0 0 21.75,2 h -0.5 -1 -1 -1 A 0.25,0.25 45 0 1 18,1.75 V 1.25 A 0.25,0.25 45 0 0 17.75,1 h -0.5 -1 -1 A 0.25,0.25 45 0 1 15,0.75 V 0.25 A 0.25,0.25 45 0 0 14.75,0 h -0.5 -1 A 0.25,0.25 135 0 0 13,0.25 Z M 21.25,12 h 0.5 1 1 1 1 A 0.25,0.25 45 0 1 26,12.25 v 0.5 A 0.25,0.25 45 0 0 26.25,13 h 0.5 1 A 0.25,0.25 45 0 1 28,13.25 v 0.5 A 0.25,0.25 45 0 0 28.25,14 h 0.5 1 A 0.25,0.25 45 0 1 30,14.25 v 0.5 A 0.25,0.25 45 0 0 30.25,15 h 0.5 1 1 1 1 1 A 0.25,0.25 135 0 0 36,14.75 v -0.5 A 0.25,0.25 135 0 1 36.25,14 h 0.5 1 1 1 1 A 0.25,0.25 45 0 1 41,14.25 v 0.5 A 0.25,0.25 45 0 0 41.25,15 h 0.5 A 0.25,0.25 45 0 1 42,15.25 v 0.5 1 1 A 0.25,0.25 135 0 1 41.75,18 h -0.5 A 0.25,0.25 135 0 0 41,18.25 v 0.5 1 A 0.25,0.25 135 0 1 40.75,20 h -0.5 A 0.25,0.25 135 0 0 40,20.25 v 0.5 1 A 0.25,0.25 135 0 1 39.75,22 h -0.5 A 0.25,0.25 135 0 0 39,22.25 v 0.5 A 0.25,0.25 135 0 1 38.75,23 h -0.5 A 0.25,0.25 135 0 0 38,23.25 v 0.5 A 0.25,0.25 135 0 1 37.75,24 h -0.5 -1 -1 -1 -1 -1 A 0.25,0.25 135 0 0 32,24.25 v 0.5 A 0.25,0.25 135 0 1 31.75,25 h -0.5 -1 -1 -1 A 0.25,0.25 135 0 0 28,25.25 v 0.5 A 0.25,0.25 135 0 1 27.75,26 h -0.5 -1 A 0.25,0.25 45 0 1 26,25.75 v -0.5 A 0.25,0.25 45 0 0 25.75,25 h -0.5 A 0.25,0.25 45 0 1 25,24.75 v -0.5 -1 A 0.25,0.25 45 0 0 24.75,23 h -0.5 A 0.25,0.25 45 0 1 24,22.75 v -0.5 A 0.25,0.25 45 0 0 23.75,22 h -0.5 A 0.25,0.25 45 0 1 23,21.75 v -0.5 -1 A 0.25,0.25 45 0 0 22.75,20 h -0.5 A 0.25,0.25 45 0 1 22,19.75 v -0.5 -1 -1 A 0.25,0.25 45 0 0 21.75,17 h -0.5 A 0.25,0.25 45 0 1 21,16.75 v -0.5 A 0.25,0.25 45 0 0 20.75,16 h -0.5 A 0.25,0.25 45 0 1 20,15.75 v -0.5 -1 -1 A 0.25,0.25 135 0 1 20.25,13 h 0.5 A 0.25,0.25 135 0 0 21,12.75 v -0.5 A 0.25,0.25 135 0 1 21.25,12 Z"
     inkscape:path-effect="#path-effect8706"
     inkscape:original-d="M 13,0 V 1 H 12 11 10 9 V 2 H 8 7 6 V 3 H 5 4 V 4 H 3 V 5 6 H 2 V 7 8 H 1 V 9 H 0 v 1 1 1 1 h 1 1 1 v 1 h 1 v 1 1 H 3 v 1 1 h 1 1 v -1 h 1 1 v 1 h 1 v 1 h 1 v 1 1 h 1 v 1 h 1 v 1 h 1 v 1 h 1 v -1 h 1 1 v -1 h 1 v 1 1 h -1 v 1 h -1 v 1 h -1 -1 v 1 h 1 1 v 1 1 h -1 v 1 h 1 v 1 h 1 v 1 1 h 1 1 1 v -1 h 1 v -1 h 1 1 v -1 h 1 v 1 h 1 1 v -1 h 1 1 1 v -1 h 1 v 1 h 1 1 1 v 1 h 1 1 1 1 1 v 1 h 1 1 v -1 h 1 1 v 1 h 1 1 v -1 -1 h 1 v -1 h 1 v -1 -1 h -1 v -1 -1 h -1 v -1 -1 -1 -1 h 1 v -1 h 1 v -1 h 1 v 1 h 1 1 1 1 v -1 h 1 v -1 h 1 V 17 16 15 14 H 50 V 13 H 49 V 12 11 10 H 48 V 9 8 7 h -1 -1 v 1 h -1 -1 v 1 h -1 v 1 h -1 v 1 h -1 v 1 H 40 39 38 37 V 11 H 36 35 34 33 V 10 H 32 V 9 H 31 V 8 H 30 V 7 H 29 V 6 5 H 28 V 4 H 27 26 V 3 H 25 24 23 22 V 2 H 21 20 19 18 V 1 H 17 16 15 V 0 h -1 z m 8,12 h 1 1 1 1 1 v 1 h 1 1 v 1 h 1 1 v 1 h 1 1 1 1 1 1 v -1 h 1 1 1 1 1 v 1 h 1 v 1 1 1 h -1 v 1 1 h -1 v 1 1 h -1 v 1 h -1 v 1 h -1 -1 -1 -1 -1 -1 v 1 h -1 -1 -1 -1 v 1 h -1 -1 v -1 h -1 v -1 -1 h -1 v -1 h -1 v -1 -1 h -1 v -1 -1 -1 h -1 v -1 h -1 v -1 -1 -1 h 1 z" />
</svg>
