<?xml version="1.0" encoding="UTF-8" standalone="no"?>
<svg
   version="1.1"
   width="19"
   height="20"
   shape-rendering="crispEdges"
   id="svg31951"
   sodipodi:docname="aragon.svg"
   inkscape:version="1.2 (dc2aedaf03, 2022-05-15)"
   xmlns:inkscape="http://www.inkscape.org/namespaces/inkscape"
   xmlns:sodipodi="http://sodipodi.sourceforge.net/DTD/sodipodi-0.dtd"
   xmlns="http://www.w3.org/2000/svg"
   xmlns:svg="http://www.w3.org/2000/svg">
  <defs
     id="defs31955">
    <inkscape:path-effect
       effect="fillet_chamfer"
       id="path-effect33995"
       is_visible="true"
       lpeversion="1"
       nodesatellites_param="F,1,0,1,0,0.25,0,1 @ F,1,0,1,0,0.25,0,1 @ F,1,0,1,0,0.25,0,1 @ F,1,0,1,0,0.25,0,1 @ F,1,0,1,0,0.25,0,1 @ F,1,0,1,0,0.25,0,1 @ F,1,0,1,0,0.25,0,1 @ F,1,0,1,0,0.25,0,1 @ F,1,0,1,0,0.25,0,1 @ F,1,0,1,0,0.25,0,1 @ F,1,0,1,0,0.25,0,1 @ F,1,0,1,0,0.25,0,1 @ F,1,0,1,0,0.25,0,1 @ F,1,0,1,0,0.25,0,1 @ F,1,0,1,0,0.25,0,1 @ F,1,0,1,0,0.25,0,1 @ F,1,0,1,0,0.25,0,1 @ F,1,0,1,0,0.25,0,1 @ F,1,0,1,0,0.25,0,1 @ F,1,0,1,0,0.25,0,1 @ F,1,0,1,0,0.25,0,1 @ F,1,0,1,0,0.25,0,1 @ F,1,0,1,0,0.25,0,1 @ F,1,0,1,0,0.25,0,1 @ F,1,0,1,0,0.25,0,1 @ F,1,0,1,0,0.25,0,1 @ F,1,0,1,0,0.25,0,1 @ F,1,0,1,0,0.25,0,1 @ F,1,0,1,0,0.25,0,1 @ F,1,0,1,0,0.25,0,1 @ F,1,0,1,0,0.25,0,1 @ F,1,0,1,0,0.25,0,1 @ F,1,0,1,0,0.25,0,1 @ F,1,0,1,0,0.25,0,1 @ F,1,0,1,0,0.25,0,1 @ F,1,0,1,0,0.25,0,1 @ F,1,0,1,0,0.25,0,1 @ F,1,0,1,0,0.25,0,1 @ F,1,0,1,0,0.25,0,1 @ F,1,0,1,0,0.25,0,1 @ F,1,0,1,0,0.25,0,1 @ F,1,0,1,0,0.25,0,1 @ F,1,0,1,0,0.25,0,1 @ F,1,0,1,0,0.25,0,1 @ F,1,0,1,0,0.25,0,1 @ F,1,0,1,0,0.25,0,1 @ F,1,0,1,0,0.25,0,1 @ F,1,0,1,0,0.25,0,1 @ F,1,0,1,0,0.25,0,1 @ F,1,0,1,0,0.25,0,1 @ F,1,0,1,0,0.25,0,1 @ F,1,0,1,0,0.25,0,1 @ F,1,0,1,0,0.25,0,1 @ F,1,0,1,0,0.25,0,1 @ F,1,0,1,0,0.25,0,1 @ F,1,0,1,0,0.25,0,1 @ F,1,0,1,0,0.25,0,1 @ F,1,0,1,0,0.25,0,1 @ F,1,0,1,0,0.25,0,1 @ F,1,0,1,0,0.25,0,1 @ F,1,0,1,0,0.25,0,1 @ F,1,0,1,0,0.25,0,1 @ F,1,0,1,0,0.25,0,1 @ F,1,0,1,0,0.25,0,1 @ F,1,0,1,0,0.25,0,1 @ F,1,0,1,0,0.25,0,1 @ F,1,0,1,0,0.25,0,1 @ F,1,0,1,0,0.25,0,1 @ F,1,0,1,0,0.25,0,1 @ F,1,0,1,0,0.25,0,1 @ F,1,0,1,0,0.25,0,1 @ F,1,0,1,0,0.25,0,1 @ F,1,0,1,0,0.25,0,1 @ F,1,0,1,0,0.25,0,1 @ F,1,0,1,0,0.25,0,1 @ F,1,0,1,0,0.25,0,1 @ F,1,0,1,0,0.25,0,1 @ F,1,0,1,0,0.25,0,1 @ F,1,0,1,0,0.25,0,1 @ F,1,0,1,0,0.25,0,1"
       unit="px"
       method="auto"
       mode="F"
       radius="25"
       chamfer_steps="1"
       flexible="true"
       use_knot_distance="true"
       apply_no_radius="true"
       apply_with_radius="true"
       only_selected="false"
       hide_knots="false" />
  </defs>
  <sodipodi:namedview
     id="namedview31953"
     pagecolor="#ffffff"
     bordercolor="#666666"
     borderopacity="1.0"
     inkscape:showpageshadow="2"
     inkscape:pageopacity="0.0"
     inkscape:pagecheckerboard="0"
     inkscape:deskcolor="#d1d1d1"
     showgrid="false"
     inkscape:zoom="4.4726634"
     inkscape:cx="-1.3414826"
     inkscape:cy="-6.7074129"
     inkscape:window-width="1366"
     inkscape:window-height="705"
     inkscape:window-x="-8"
     inkscape:window-y="-8"
     inkscape:window-maximized="1"
     inkscape:current-layer="svg31951" />
  <path
     id="rect26745"
     d="m 11,0.25 v 0.5 1 A 0.25,0.25 135 0 1 10.75,2 h -0.5 A 0.25,0.25 135 0 0 10,2.25 v 0.5 A 0.25,0.25 135 0 1 9.75,3 H 9.25 A 0.25,0.25 135 0 0 9,3.25 v 0.5 A 0.25,0.25 135 0 1 8.75,4 H 8.25 A 0.25,0.25 135 0 0 8,4.25 v 0.5 A 0.25,0.25 135 0 1 7.75,5 H 7.25 A 0.25,0.25 135 0 0 7,5.25 v 0.5 1 1 A 0.25,0.25 135 0 1 6.75,8 H 6.25 A 0.25,0.25 135 0 0 6,8.25 v 0.5 A 0.25,0.25 135 0 1 5.75,9 h -0.5 -1 -1 A 0.25,0.25 135 0 0 3,9.25 v 0.5 A 0.25,0.25 135 0 1 2.75,10 H 2.25 A 0.25,0.25 135 0 0 2,10.25 v 0.5 A 0.25,0.25 135 0 1 1.75,11 H 1.25 A 0.25,0.25 135 0 0 1,11.25 v 0.5 1 1 A 0.25,0.25 135 0 1 0.75,14 H 0.25 A 0.25,0.25 135 0 0 0,14.25 v 0.5 1 1 1 A 0.25,0.25 45 0 0 0.25,18 h 0.5 A 0.25,0.25 45 0 1 1,18.25 v 0.5 1 A 0.25,0.25 45 0 0 1.25,20 h 0.5 1 1 A 0.25,0.25 135 0 0 4,19.75 v -0.5 A 0.25,0.25 135 0 1 4.25,19 h 0.5 A 0.25,0.25 135 0 0 5,18.75 v -0.5 A 0.25,0.25 135 0 1 5.25,18 h 0.5 1 A 0.25,0.25 135 0 0 7,17.75 v -0.5 A 0.25,0.25 135 0 1 7.25,17 h 0.5 1 A 0.25,0.25 135 0 0 9,16.75 v -0.5 A 0.25,0.25 135 0 1 9.25,16 h 0.5 1 1 A 0.25,0.25 135 0 0 12,15.75 v -0.5 A 0.25,0.25 135 0 1 12.25,15 h 0.5 1 A 0.25,0.25 45 0 1 14,15.25 v 0.5 A 0.25,0.25 45 0 0 14.25,16 h 0.5 A 0.25,0.25 135 0 0 15,15.75 v -0.5 -1 A 0.25,0.25 135 0 1 15.25,14 h 0.5 A 0.25,0.25 135 0 0 16,13.75 v -0.5 -1 A 0.25,0.25 135 0 1 16.25,12 h 0.5 A 0.25,0.25 135 0 0 17,11.75 v -0.5 A 0.25,0.25 135 0 1 17.25,11 h 0.5 A 0.25,0.25 135 0 0 18,10.75 v -0.5 -1 A 0.25,0.25 135 0 1 18.25,9 h 0.5 A 0.25,0.25 135 0 0 19,8.75 v -0.5 -1 -1 -1 -1 -1 A 0.25,0.25 45 0 0 18.75,3 h -0.5 A 0.25,0.25 45 0 1 18,2.75 V 2.25 A 0.25,0.25 45 0 0 17.75,2 h -0.5 -1 -1 A 0.25,0.25 45 0 1 15,1.75 V 1.25 A 0.25,0.25 45 0 0 14.75,1 h -0.5 -1 -1 A 0.25,0.25 45 0 1 12,0.75 V 0.25 A 0.25,0.25 45 0 0 11.75,0 h -0.5 A 0.25,0.25 135 0 0 11,0.25 Z"
     inkscape:path-effect="#path-effect33995"
     inkscape:original-d="M 11,0 V 1 2 H 10 V 3 H 9 V 4 H 8 V 5 H 7 V 6 7 8 H 6 V 9 H 5 4 3 v 1 H 2 v 1 H 1 v 1 1 1 H 0 v 1 1 1 1 h 1 v 1 1 h 1 1 1 v -1 h 1 v -1 h 1 1 v -1 h 1 1 v -1 h 1 1 1 v -1 h 1 1 v 1 h 1 v -1 -1 h 1 v -1 -1 h 1 v -1 h 1 V 10 9 h 1 V 8 7 6 5 4 3 H 18 V 2 H 17 16 15 V 1 H 14 13 12 V 0 Z" />
</svg>
