<?xml version="1.0" encoding="UTF-8" standalone="no"?>
<svg
   version="1.1"
   width="25"
   height="36"
   shape-rendering="crispEdges"
   id="svg31951"
   sodipodi:docname="castile.svg"
   inkscape:version="1.2 (dc2aedaf03, 2022-05-15)"
   xmlns:inkscape="http://www.inkscape.org/namespaces/inkscape"
   xmlns:sodipodi="http://sodipodi.sourceforge.net/DTD/sodipodi-0.dtd"
   xmlns="http://www.w3.org/2000/svg"
   xmlns:svg="http://www.w3.org/2000/svg">
  <defs
     id="defs31955">
    <inkscape:path-effect
       effect="fillet_chamfer"
       id="path-effect8332"
       is_visible="true"
       lpeversion="1"
       nodesatellites_param="F,1,0,1,0,0.25,0,1 @ F,1,0,1,0,0.25,0,1 @ F,1,0,1,0,0.25,0,1 @ F,1,0,1,0,0.25,0,1 @ F,1,0,1,0,0.25,0,1 @ F,1,0,1,0,0.25,0,1 @ F,1,0,1,0,0.25,0,1 @ F,1,0,1,0,0.25,0,1 @ F,1,0,1,0,0.25,0,1 @ F,1,0,1,0,0.25,0,1 @ F,1,0,1,0,0.25,0,1 @ F,1,0,1,0,0.25,0,1 @ F,1,0,1,0,0.25,0,1 @ F,1,0,1,0,0.25,0,1 @ F,1,0,1,0,0.25,0,1 @ F,1,0,1,0,0.25,0,1 @ F,1,0,1,0,0.25,0,1 @ F,1,0,1,0,0.25,0,1 @ F,1,0,1,0,0.25,0,1 @ F,1,0,1,0,0.25,0,1 @ F,1,0,1,0,0.25,0,1 @ F,1,0,1,0,0.25,0,1 @ F,1,0,1,0,0.25,0,1 @ F,1,0,1,0,0.25,0,1 @ F,1,0,1,0,0.25,0,1 @ F,1,0,1,0,0.25,0,1 @ F,1,0,1,0,0.25,0,1 @ F,1,0,1,0,0.25,0,1 @ F,1,0,1,0,0.25,0,1 @ F,1,0,1,0,0.25,0,1 @ F,1,0,1,0,0.25,0,1 @ F,1,0,1,0,0.25,0,1 @ F,1,0,1,0,0.25,0,1 @ F,1,0,1,0,0.25,0,1 @ F,1,0,1,0,0.25,0,1 @ F,1,0,1,0,0.25,0,1 @ F,1,0,1,0,0.25,0,1 @ F,1,0,1,0,0.25,0,1 @ F,1,0,1,0,0.25,0,1 @ F,1,0,1,0,0.25,0,1 @ F,1,0,1,0,0.25,0,1 @ F,1,0,1,0,0.25,0,1 @ F,1,0,1,0,0.25,0,1 @ F,1,0,1,0,0.25,0,1 @ F,1,0,1,0,0.25,0,1 @ F,1,0,1,0,0.25,0,1 @ F,1,0,1,0,0.25,0,1 @ F,1,0,1,0,0.25,0,1 @ F,1,0,1,0,0.25,0,1 @ F,1,0,1,0,0.25,0,1 @ F,1,0,1,0,0.25,0,1 @ F,1,0,1,0,0.25,0,1 @ F,1,0,1,0,0.25,0,1 @ F,1,0,1,0,0.25,0,1 @ F,1,0,1,0,0.25,0,1 @ F,1,0,1,0,0.25,0,1 @ F,1,0,1,0,0.25,0,1 @ F,1,0,1,0,0.25,0,1 @ F,1,0,1,0,0.25,0,1 @ F,1,0,1,0,0.25,0,1 @ F,1,0,1,0,0.25,0,1 @ F,1,0,1,0,0.25,0,1 @ F,1,0,1,0,0.25,0,1 @ F,1,0,1,0,0.25,0,1 @ F,1,0,1,0,0.25,0,1 @ F,1,0,1,0,0.25,0,1 @ F,1,0,1,0,0.25,0,1 @ F,1,0,1,0,0.25,0,1 @ F,1,0,1,0,0.25,0,1 @ F,1,0,1,0,0.25,0,1 @ F,1,0,1,0,0.25,0,1 @ F,1,0,1,0,0.25,0,1 @ F,1,0,1,0,0.25,0,1 @ F,1,0,1,0,0.25,0,1 @ F,1,0,1,0,0.25,0,1 @ F,1,0,1,0,0.25,0,1 @ F,1,0,1,0,0.25,0,1 @ F,1,0,1,0,0.25,0,1 @ F,1,0,1,0,0.25,0,1 @ F,1,0,1,0,0.25,0,1 @ F,1,0,1,0,0.25,0,1 @ F,1,0,1,0,0.25,0,1 @ F,1,0,1,0,0.25,0,1 @ F,1,0,1,0,0.25,0,1 @ F,1,0,1,0,0.25,0,1 @ F,1,0,1,0,0.25,0,1 @ F,1,0,1,0,0.25,0,1 @ F,1,0,1,0,0.25,0,1 @ F,1,0,1,0,0.25,0,1 @ F,1,0,1,0,0.25,0,1 @ F,1,0,1,0,0.25,0,1 @ F,1,0,1,0,0.25,0,1 @ F,1,0,1,0,0.25,0,1 @ F,1,0,1,0,0.25,0,1 @ F,1,0,1,0,0.25,0,1 @ F,1,0,1,0,0.25,0,1 @ F,1,0,1,0,0.25,0,1 @ F,1,0,1,0,0.25,0,1 @ F,1,0,1,0,0.25,0,1 @ F,1,0,1,0,0.25,0,1 @ F,1,0,1,0,0.25,0,1 @ F,1,0,1,0,0.25,0,1 @ F,1,0,1,0,0.25,0,1 @ F,1,0,1,0,0.25,0,1 @ F,1,0,1,0,0.25,0,1 @ F,1,0,1,0,0.25,0,1 @ F,1,0,1,0,0.25,0,1 @ F,1,0,1,0,0.25,0,1 @ F,1,0,1,0,0.25,0,1 @ F,1,0,1,0,0.25,0,1 @ F,1,0,1,0,0.25,0,1 @ F,1,0,1,0,0.25,0,1 @ F,1,0,1,0,0.25,0,1 @ F,1,0,1,0,0.25,0,1 @ F,1,0,1,0,0.25,0,1 @ F,1,0,1,0,0.25,0,1 @ F,1,0,1,0,0.25,0,1 @ F,1,0,1,0,0.25,0,1 @ F,1,0,1,0,0.25,0,1 @ F,1,0,1,0,0.25,0,1 @ F,1,0,1,0,0.25,0,1 @ F,1,0,1,0,0.25,0,1 @ F,1,0,1,0,0.25,0,1 @ F,1,0,1,0,0.25,0,1 @ F,1,0,1,0,0.25,0,1 @ F,1,0,1,0,0.25,0,1 @ F,1,0,1,0,0.25,0,1 @ F,1,0,1,0,0.25,0,1 @ F,1,0,1,0,0.25,0,1 @ F,1,0,1,0,0.25,0,1"
       unit="px"
       method="auto"
       mode="F"
       radius="25"
       chamfer_steps="1"
       flexible="true"
       use_knot_distance="true"
       apply_no_radius="true"
       apply_with_radius="true"
       only_selected="false"
       hide_knots="false" />
  </defs>
  <sodipodi:namedview
     id="namedview31953"
     pagecolor="#ffffff"
     bordercolor="#666666"
     borderopacity="1.0"
     inkscape:showpageshadow="2"
     inkscape:pageopacity="0.0"
     inkscape:pagecheckerboard="0"
     inkscape:deskcolor="#d1d1d1"
     showgrid="false"
     inkscape:zoom="12.650602"
     inkscape:cx="13.912381"
     inkscape:cy="14.544762"
     inkscape:window-width="1366"
     inkscape:window-height="705"
     inkscape:window-x="-8"
     inkscape:window-y="-8"
     inkscape:window-maximized="1"
     inkscape:current-layer="svg31951" />
  <path
     id="rect26153"
     d="m 11,0.25 v 0.5 A 0.25,0.25 135 0 1 10.75,1 h -0.5 A 0.25,0.25 135 0 0 10,1.25 v 0.5 1 A 0.25,0.25 135 0 1 9.75,3 H 9.25 A 0.25,0.25 135 0 0 9,3.25 v 0.5 1 1 1 1 1 A 0.25,0.25 45 0 0 9.25,9 h 0.5 A 0.25,0.25 45 0 1 10,9.25 v 0.5 1 1 A 0.25,0.25 135 0 1 9.75,12 H 9.25 A 0.25,0.25 135 0 0 9,12.25 v 0.5 A 0.25,0.25 135 0 1 8.75,13 H 8.25 A 0.25,0.25 135 0 0 8,13.25 v 0.5 A 0.25,0.25 135 0 1 7.75,14 H 7.25 A 0.25,0.25 135 0 0 7,14.25 v 0.5 1 1 A 0.25,0.25 135 0 1 6.75,17 H 6.25 A 0.25,0.25 135 0 0 6,17.25 v 0.5 1 1 A 0.25,0.25 135 0 1 5.75,20 H 5.25 A 0.25,0.25 135 0 0 5,20.25 v 0.5 A 0.25,0.25 135 0 1 4.75,21 H 4.25 A 0.25,0.25 135 0 0 4,21.25 v 0.5 A 0.25,0.25 135 0 1 3.75,22 h -0.5 -1 -1 A 0.25,0.25 135 0 0 1,22.25 v 0.5 1 1 A 0.25,0.25 135 0 1 0.75,25 H 0.25 A 0.25,0.25 135 0 0 0,25.25 v 0.5 1 1 A 0.25,0.25 45 0 0 0.25,28 h 0.5 1 A 0.25,0.25 45 0 1 2,28.25 v 0.5 A 0.25,0.25 45 0 0 2.25,29 h 0.5 A 0.25,0.25 45 0 1 3,29.25 v 0.5 A 0.25,0.25 45 0 0 3.25,30 h 0.5 A 0.25,0.25 45 0 1 4,30.25 v 0.5 1 A 0.25,0.25 45 0 0 4.25,32 h 0.5 A 0.25,0.25 45 0 1 5,32.25 v 0.5 A 0.25,0.25 45 0 0 5.25,33 h 0.5 A 0.25,0.25 45 0 1 6,33.25 v 0.5 A 0.25,0.25 45 0 0 6.25,34 h 0.5 A 0.25,0.25 45 0 1 7,34.25 v 0.5 A 0.25,0.25 45 0 0 7.25,35 h 0.5 1 1 1 A 0.25,0.25 45 0 1 11,35.25 v 0.5 A 0.25,0.25 45 0 0 11.25,36 h 0.5 1 1 1 A 0.25,0.25 135 0 0 15,35.75 v -0.5 A 0.25,0.25 135 0 1 15.25,35 h 0.5 A 0.25,0.25 135 0 0 16,34.75 v -0.5 -1 A 0.25,0.25 135 0 1 16.25,33 h 0.5 1 A 0.25,0.25 135 0 0 18,32.75 v -0.5 A 0.25,0.25 135 0 1 18.25,32 h 0.5 1 A 0.25,0.25 135 0 0 20,31.75 v -0.5 A 0.25,0.25 135 0 1 20.25,31 h 0.5 1 A 0.25,0.25 135 0 0 22,30.75 v -0.5 A 0.25,0.25 135 0 1 22.25,30 h 0.5 A 0.25,0.25 135 0 0 23,29.75 v -0.5 -1 -1 A 0.25,0.25 45 0 0 22.75,27 h -0.5 A 0.25,0.25 45 0 1 22,26.75 v -0.5 -1 A 0.25,0.25 45 0 0 21.75,25 h -0.5 A 0.25,0.25 45 0 1 21,24.75 v -0.5 -1 -1 -1 A 0.25,0.25 135 0 1 21.25,21 h 0.5 A 0.25,0.25 135 0 0 22,20.75 v -0.5 -1 -1 A 0.25,0.25 135 0 1 22.25,18 h 0.5 A 0.25,0.25 135 0 0 23,17.75 v -0.5 A 0.25,0.25 135 0 1 23.25,17 h 0.5 A 0.25,0.25 135 0 0 24,16.75 v -0.5 A 0.25,0.25 135 0 1 24.25,16 h 0.5 A 0.25,0.25 135 0 0 25,15.75 v -0.5 -1 -1 -1 A 0.25,0.25 45 0 0 24.75,12 h -0.5 A 0.25,0.25 45 0 1 24,11.75 v -0.5 A 0.25,0.25 45 0 0 23.75,11 h -0.5 A 0.25,0.25 45 0 1 23,10.75 v -0.5 A 0.25,0.25 45 0 0 22.75,10 h -0.5 -1 A 0.25,0.25 45 0 1 21,9.75 V 9.25 A 0.25,0.25 45 0 0 20.75,9 h -0.5 A 0.25,0.25 45 0 1 20,8.75 V 8.25 A 0.25,0.25 45 0 0 19.75,8 h -0.5 A 0.25,0.25 45 0 1 19,7.75 v -0.5 -1 A 0.25,0.25 45 0 0 18.75,6 h -0.5 A 0.25,0.25 45 0 1 18,5.75 v -0.5 -1 A 0.25,0.25 135 0 1 18.25,4 h 0.5 A 0.25,0.25 135 0 0 19,3.75 v -0.5 -1 -1 A 0.25,0.25 45 0 0 18.75,1 h -0.5 -1 A 0.25,0.25 45 0 1 17,0.75 V 0.25 A 0.25,0.25 45 0 0 16.75,0 h -0.5 -1 -1 -1 -1 -1 A 0.25,0.25 135 0 0 11,0.25 Z"
     inkscape:path-effect="#path-effect8332"
     inkscape:original-d="M 11,0 V 1 H 10 V 2 3 H 9 v 1 1 1 1 1 1 h 1 v 1 1 1 H 9 v 1 H 8 v 1 H 7 v 1 1 1 H 6 v 1 1 1 H 5 v 1 H 4 v 1 H 3 2 1 v 1 1 1 H 0 v 1 1 1 h 1 1 v 1 h 1 v 1 h 1 v 1 1 h 1 v 1 h 1 v 1 h 1 v 1 h 1 1 1 1 v 1 h 1 1 1 1 v -1 h 1 v -1 -1 h 1 1 v -1 h 1 1 v -1 h 1 1 v -1 h 1 v -1 -1 -1 h -1 v -1 -1 h -1 v -1 -1 -1 -1 h 1 v -1 -1 -1 h 1 v -1 h 1 v -1 h 1 V 15 14 13 12 H 24 V 11 H 23 V 10 H 22 21 V 9 H 20 V 8 H 19 V 7 6 H 18 V 5 4 h 1 V 3 2 1 H 18 17 V 0 h -1 -1 -1 -1 -1 z" />
</svg>
