<?xml version="1.0" encoding="UTF-8" standalone="no"?>
<svg
   version="1.1"
   width="22"
   height="32"
   shape-rendering="crispEdges"
   id="svg31951"
   sodipodi:docname="leon.svg"
   inkscape:version="1.2 (dc2aedaf03, 2022-05-15)"
   xmlns:inkscape="http://www.inkscape.org/namespaces/inkscape"
   xmlns:sodipodi="http://sodipodi.sourceforge.net/DTD/sodipodi-0.dtd"
   xmlns="http://www.w3.org/2000/svg"
   xmlns:svg="http://www.w3.org/2000/svg">
  <defs
     id="defs31955">
    <inkscape:path-effect
       effect="fillet_chamfer"
       id="path-effect6850"
       is_visible="true"
       lpeversion="1"
       nodesatellites_param="F,1,0,1,0,0.25,0,1 @ F,1,0,1,0,0.25,0,1 @ F,1,0,1,0,0.25,0,1 @ F,1,0,1,0,0.25,0,1 @ F,1,0,1,0,0.25,0,1 @ F,1,0,1,0,0.25,0,1 @ F,1,0,1,0,0.25,0,1 @ F,1,0,1,0,0.25,0,1 @ F,1,0,1,0,0.25,0,1 @ F,1,0,1,0,0.25,0,1 @ F,1,0,1,0,0.25,0,1 @ F,1,0,1,0,0.25,0,1 @ F,1,0,1,0,0.25,0,1 @ F,1,0,1,0,0.25,0,1 @ F,1,0,1,0,0.25,0,1 @ F,1,0,1,0,0.25,0,1 @ F,1,0,1,0,0.25,0,1 @ F,1,0,1,0,0.25,0,1 @ F,1,0,1,0,0.25,0,1 @ F,1,0,1,0,0.25,0,1 @ F,1,0,1,0,0.25,0,1 @ F,1,0,1,0,0.25,0,1 @ F,1,0,1,0,0.25,0,1 @ F,1,0,1,0,0.25,0,1 @ F,1,0,1,0,0.25,0,1 @ F,1,0,1,0,0.25,0,1 @ F,1,0,1,0,0.25,0,1 @ F,1,0,1,0,0.25,0,1 @ F,1,0,1,0,0.25,0,1 @ F,1,0,1,0,0.25,0,1 @ F,1,0,1,0,0.25,0,1 @ F,1,0,1,0,0.25,0,1 @ F,1,0,1,0,0.25,0,1 @ F,1,0,1,0,0.25,0,1 @ F,1,0,1,0,0.25,0,1 @ F,1,0,1,0,0.25,0,1 @ F,1,0,1,0,0.25,0,1 @ F,1,0,1,0,0.25,0,1 @ F,1,0,1,0,0.25,0,1 @ F,1,0,1,0,0.25,0,1 @ F,1,0,1,0,0.25,0,1 @ F,1,0,1,0,0.25,0,1 @ F,1,0,1,0,0.25,0,1 @ F,1,0,1,0,0.25,0,1 @ F,1,0,1,0,0.25,0,1 @ F,1,0,1,0,0.25,0,1 @ F,1,0,1,0,0.25,0,1 @ F,1,0,1,0,0.25,0,1 @ F,1,0,1,0,0.25,0,1 @ F,1,0,1,0,0.25,0,1 @ F,1,0,1,0,0.25,0,1 @ F,1,0,1,0,0.25,0,1 @ F,1,0,1,0,0.25,0,1 @ F,1,0,1,0,0.25,0,1 @ F,1,0,1,0,0.25,0,1 @ F,1,0,1,0,0.25,0,1 @ F,1,0,1,0,0.25,0,1 @ F,1,0,1,0,0.25,0,1 @ F,1,0,1,0,0.25,0,1 @ F,1,0,1,0,0.25,0,1 @ F,1,0,1,0,0.25,0,1 @ F,1,0,1,0,0.25,0,1 @ F,1,0,1,0,0.25,0,1 @ F,1,0,1,0,0.25,0,1 @ F,1,0,1,0,0.25,0,1 @ F,1,0,1,0,0.25,0,1 @ F,1,0,1,0,0.25,0,1 @ F,1,0,1,0,0.25,0,1 @ F,1,0,1,0,0.25,0,1 @ F,1,0,1,0,0.25,0,1 @ F,1,0,1,0,0.25,0,1 @ F,1,0,1,0,0.25,0,1 @ F,1,0,1,0,0.25,0,1 @ F,1,0,1,0,0.25,0,1 @ F,1,0,1,0,0.25,0,1 @ F,1,0,1,0,0.25,0,1 @ F,1,0,1,0,0.25,0,1 @ F,1,0,1,0,0.25,0,1 @ F,1,0,1,0,0.25,0,1 @ F,1,0,1,0,0.25,0,1 @ F,1,0,1,0,0.25,0,1 @ F,1,0,1,0,0.25,0,1 @ F,1,0,1,0,0.25,0,1 @ F,1,0,1,0,0.25,0,1 @ F,1,0,1,0,0.25,0,1 @ F,1,0,1,0,0.25,0,1 @ F,1,0,1,0,0.25,0,1 @ F,1,0,1,0,0.25,0,1 @ F,1,0,1,0,0.25,0,1 @ F,1,0,1,0,0.25,0,1 @ F,1,0,1,0,0.25,0,1 @ F,1,0,1,0,0.25,0,1 @ F,1,0,1,0,0.25,0,1 @ F,1,0,1,0,0.25,0,1 @ F,1,0,1,0,0.25,0,1 @ F,1,0,1,0,0.25,0,1 @ F,1,0,1,0,0.25,0,1 @ F,1,0,1,0,0.25,0,1 @ F,1,0,1,0,0.25,0,1 @ F,1,0,1,0,0.25,0,1 @ F,1,0,1,0,0.25,0,1 @ F,1,0,1,0,0.25,0,1 @ F,1,0,1,0,0.25,0,1 @ F,1,0,1,0,0.25,0,1 @ F,1,0,1,0,0.25,0,1 @ F,1,0,1,0,0.25,0,1 @ F,1,0,1,0,0.25,0,1 @ F,1,0,1,0,0.25,0,1 @ F,1,0,1,0,0.25,0,1 @ F,1,0,1,0,0.25,0,1 @ F,1,0,1,0,0.25,0,1 @ F,1,0,1,0,0.25,0,1 @ F,1,0,1,0,0.25,0,1 @ F,1,0,1,0,0.25,0,1"
       unit="px"
       method="auto"
       mode="F"
       radius="25"
       chamfer_steps="1"
       flexible="true"
       use_knot_distance="true"
       apply_no_radius="true"
       apply_with_radius="true"
       only_selected="false"
       hide_knots="false" />
  </defs>
  <sodipodi:namedview
     id="namedview31953"
     pagecolor="#ffffff"
     bordercolor="#666666"
     borderopacity="1.0"
     inkscape:showpageshadow="2"
     inkscape:pageopacity="0.0"
     inkscape:pagecheckerboard="0"
     inkscape:deskcolor="#d1d1d1"
     showgrid="false"
     inkscape:zoom="8.9453268"
     inkscape:cx="19.004336"
     inkscape:cy="13.079455"
     inkscape:window-width="1366"
     inkscape:window-height="705"
     inkscape:window-x="-8"
     inkscape:window-y="-8"
     inkscape:window-maximized="1"
     inkscape:current-layer="svg31951" />
  <path
     id="rect25909"
     d="m 9,0.25 v 0.5 1 A 0.25,0.25 135 0 1 8.75,2 H 8.25 A 0.25,0.25 135 0 0 8,2.25 v 0.5 1 1 1 A 0.25,0.25 135 0 1 7.75,6 H 7.25 A 0.25,0.25 135 0 0 7,6.25 v 0.5 1 1 1 1 1 1 A 0.25,0.25 45 0 0 7.25,13 h 0.5 A 0.25,0.25 45 0 1 8,13.25 v 0.5 1 A 0.25,0.25 45 0 0 8.25,15 h 0.5 A 0.25,0.25 45 0 1 9,15.25 v 0.5 1 A 0.25,0.25 135 0 1 8.75,17 H 8.25 A 0.25,0.25 135 0 0 8,17.25 v 0.5 A 0.25,0.25 135 0 1 7.75,18 H 7.25 A 0.25,0.25 135 0 0 7,18.25 v 0.5 A 0.25,0.25 135 0 1 6.75,19 h -0.5 -1 A 0.25,0.25 135 0 0 5,19.25 v 0.5 A 0.25,0.25 135 0 1 4.75,20 H 4.25 A 0.25,0.25 135 0 0 4,20.25 v 0.5 1 A 0.25,0.25 135 0 1 3.75,22 H 3.25 A 0.25,0.25 135 0 0 3,22.25 v 0.5 1 A 0.25,0.25 135 0 1 2.75,24 H 2.25 A 0.25,0.25 135 0 0 2,24.25 v 0.5 1 1 A 0.25,0.25 135 0 1 1.75,27 H 1.25 A 0.25,0.25 135 0 0 1,27.25 v 0.5 1 A 0.25,0.25 135 0 1 0.75,29 H 0.25 A 0.25,0.25 135 0 0 0,29.25 v 0.5 A 0.25,0.25 45 0 0 0.25,30 h 0.5 1 1 A 0.25,0.25 45 0 1 3,30.25 v 0.5 A 0.25,0.25 45 0 0 3.25,31 h 0.5 1 1 1 A 0.25,0.25 45 0 1 7,31.25 v 0.5 A 0.25,0.25 45 0 0 7.25,32 h 0.5 1 1 A 0.25,0.25 135 0 0 10,31.75 v -0.5 -1 A 0.25,0.25 135 0 1 10.25,30 h 0.5 A 0.25,0.25 135 0 0 11,29.75 v -0.5 -1 -1 A 0.25,0.25 135 0 1 11.25,27 h 0.5 A 0.25,0.25 135 0 0 12,26.75 v -0.5 A 0.25,0.25 135 0 1 12.25,26 h 0.5 1 1 A 0.25,0.25 135 0 0 15,25.75 v -0.5 A 0.25,0.25 135 0 1 15.25,25 h 0.5 A 0.25,0.25 135 0 0 16,24.75 v -0.5 -1 -1 A 0.25,0.25 135 0 1 16.25,22 h 0.5 A 0.25,0.25 135 0 0 17,21.75 v -0.5 -1 -1 A 0.25,0.25 135 0 1 17.25,19 h 0.5 A 0.25,0.25 135 0 0 18,18.75 v -0.5 A 0.25,0.25 135 0 1 18.25,18 h 0.5 A 0.25,0.25 135 0 0 19,17.75 v -0.5 A 0.25,0.25 135 0 1 19.25,17 h 0.5 A 0.25,0.25 135 0 0 20,16.75 v -0.5 -1 -1 A 0.25,0.25 45 0 0 19.75,14 h -0.5 A 0.25,0.25 45 0 1 19,13.75 v -0.5 -1 -1 -1 -1 -1 A 0.25,0.25 135 0 1 19.25,8 h 0.5 A 0.25,0.25 135 0 0 20,7.75 v -0.5 -1 A 0.25,0.25 135 0 1 20.25,6 h 0.5 A 0.25,0.25 135 0 0 21,5.75 V 5.25 A 0.25,0.25 135 0 1 21.25,5 h 0.5 A 0.25,0.25 135 0 0 22,4.75 V 4.25 A 0.25,0.25 45 0 0 21.75,4 h -0.5 -1 A 0.25,0.25 45 0 1 20,3.75 V 3.25 A 0.25,0.25 45 0 0 19.75,3 h -0.5 -1 A 0.25,0.25 45 0 1 18,2.75 V 2.25 A 0.25,0.25 45 0 0 17.75,2 h -0.5 A 0.25,0.25 45 0 1 17,1.75 V 1.25 A 0.25,0.25 45 0 0 16.75,1 h -0.5 -1 -1 -1 A 0.25,0.25 45 0 1 13,0.75 V 0.25 A 0.25,0.25 45 0 0 12.75,0 h -0.5 -1 -1 -1 A 0.25,0.25 135 0 0 9,0.25 Z"
     inkscape:path-effect="#path-effect6850"
     inkscape:original-d="M 9,0 V 1 2 H 8 V 3 4 5 6 H 7 v 1 1 1 1 1 1 1 h 1 v 1 1 h 1 v 1 1 H 8 v 1 H 7 v 1 H 6 5 v 1 H 4 v 1 1 H 3 v 1 1 H 2 v 1 1 1 H 1 v 1 1 H 0 v 1 h 1 1 1 v 1 h 1 1 1 1 v 1 h 1 1 1 v -1 -1 h 1 v -1 -1 -1 h 1 v -1 h 1 1 1 v -1 h 1 v -1 -1 -1 h 1 v -1 -1 -1 h 1 v -1 h 1 v -1 h 1 V 16 15 14 H 19 V 13 12 11 10 9 8 h 1 V 7 6 h 1 V 5 h 1 V 4 H 21 20 V 3 H 19 18 V 2 H 17 V 1 H 16 15 14 13 V 0 h -1 -1 -1 z" />
</svg>
