<?xml version="1.0" encoding="UTF-8" standalone="no"?>
<svg
   version="1.1"
   width="14"
   height="14"
   shape-rendering="crispEdges"
   id="svg31951"
   sodipodi:docname="navarre.svg"
   inkscape:version="1.2 (dc2aedaf03, 2022-05-15)"
   xmlns:inkscape="http://www.inkscape.org/namespaces/inkscape"
   xmlns:sodipodi="http://sodipodi.sourceforge.net/DTD/sodipodi-0.dtd"
   xmlns="http://www.w3.org/2000/svg"
   xmlns:svg="http://www.w3.org/2000/svg">
  <defs
     id="defs31955">
    <inkscape:path-effect
       effect="fillet_chamfer"
       id="path-effect4308"
       is_visible="true"
       lpeversion="1"
       nodesatellites_param="F,1,0,1,0,0.25,0,1 @ F,1,0,1,0,0.25,0,1 @ F,1,0,1,0,0.25,0,1 @ F,1,0,1,0,0.25,0,1 @ F,1,0,1,0,0.25,0,1 @ F,1,0,1,0,0.25,0,1 @ F,1,0,1,0,0.25,0,1 @ F,1,0,1,0,0.25,0,1 @ F,1,0,1,0,0.25,0,1 @ F,1,0,1,0,0.25,0,1 @ F,1,0,1,0,0.25,0,1 @ F,1,0,1,0,0.25,0,1 @ F,1,0,1,0,0.25,0,1 @ F,1,0,1,0,0.25,0,1 @ F,1,0,1,0,0.25,0,1 @ F,1,0,1,0,0.25,0,1 @ F,1,0,1,0,0.25,0,1 @ F,1,0,1,0,0.25,0,1 @ F,1,0,1,0,0.25,0,1 @ F,1,0,1,0,0.25,0,1 @ F,1,0,1,0,0.25,0,1 @ F,1,0,1,0,0.25,0,1 @ F,1,0,1,0,0.25,0,1 @ F,1,0,1,0,0.25,0,1 @ F,1,0,1,0,0.25,0,1 @ F,1,0,1,0,0.25,0,1 @ F,1,0,1,0,0.25,0,1 @ F,1,0,1,0,0.25,0,1 @ F,1,0,1,0,0.25,0,1 @ F,1,0,1,0,0.25,0,1 @ F,1,0,1,0,0.25,0,1 @ F,1,0,1,0,0.25,0,1 @ F,1,0,1,0,0.25,0,1 @ F,1,0,1,0,0.25,0,1 @ F,1,0,1,0,0.25,0,1 @ F,1,0,1,0,0.25,0,1 @ F,1,0,1,0,0.25,0,1 @ F,1,0,1,0,0.25,0,1 @ F,1,0,1,0,0.25,0,1 @ F,1,0,1,0,0.25,0,1 @ F,1,0,1,0,0.25,0,1 @ F,1,0,1,0,0.25,0,1 @ F,1,0,1,0,0.25,0,1 @ F,1,0,1,0,0.25,0,1 @ F,1,0,1,0,0.25,0,1 @ F,1,0,1,0,0.25,0,1 @ F,1,0,1,0,0.25,0,1 @ F,1,0,1,0,0.25,0,1 @ F,1,0,1,0,0.25,0,1 @ F,1,0,1,0,0.25,0,1 @ F,1,0,1,0,0.25,0,1 @ F,1,0,1,0,0.25,0,1 @ F,1,0,1,0,0.25,0,1 @ F,1,0,1,0,0.25,0,1 @ F,1,0,1,0,0.25,0,1 @ F,1,0,1,0,0.25,0,1"
       unit="px"
       method="auto"
       mode="F"
       radius="25"
       chamfer_steps="1"
       flexible="true"
       use_knot_distance="true"
       apply_no_radius="true"
       apply_with_radius="true"
       only_selected="false"
       hide_knots="false" />
  </defs>
  <sodipodi:namedview
     id="namedview31953"
     pagecolor="#ffffff"
     bordercolor="#666666"
     borderopacity="1.0"
     inkscape:showpageshadow="2"
     inkscape:pageopacity="0.0"
     inkscape:pagecheckerboard="0"
     inkscape:deskcolor="#d1d1d1"
     showgrid="false"
     inkscape:zoom="17.890654"
     inkscape:cx="1.2296924"
     inkscape:cy="8.3842661"
     inkscape:window-width="1366"
     inkscape:window-height="705"
     inkscape:window-x="-8"
     inkscape:window-y="-8"
     inkscape:window-maximized="1"
     inkscape:current-layer="svg31951" />
  <path
     id="rect26231"
     d="m 1,0.25 v 0.5 1 1 A 0.25,0.25 135 0 1 0.75,3 H 0.25 A 0.25,0.25 135 0 0 0,3.25 v 0.5 1 A 0.25,0.25 45 0 0 0.25,5 h 0.5 A 0.25,0.25 45 0 1 1,5.25 v 0.5 1 A 0.25,0.25 45 0 0 1.25,7 h 0.5 A 0.25,0.25 45 0 1 2,7.25 v 0.5 A 0.25,0.25 45 0 0 2.25,8 h 0.5 1 A 0.25,0.25 45 0 1 4,8.25 v 0.5 A 0.25,0.25 45 0 0 4.25,9 h 0.5 A 0.25,0.25 45 0 1 5,9.25 v 0.5 A 0.25,0.25 45 0 0 5.25,10 h 0.5 1 A 0.25,0.25 45 0 1 7,10.25 v 0.5 1 1 1 A 0.25,0.25 45 0 0 7.25,14 h 0.5 1 A 0.25,0.25 135 0 0 9,13.75 v -0.5 -1 -1 A 0.25,0.25 135 0 1 9.25,11 h 0.5 A 0.25,0.25 135 0 0 10,10.75 v -0.5 A 0.25,0.25 135 0 1 10.25,10 h 0.5 A 0.25,0.25 135 0 0 11,9.75 V 9.25 A 0.25,0.25 135 0 1 11.25,9 h 0.5 A 0.25,0.25 135 0 0 12,8.75 V 8.25 A 0.25,0.25 135 0 1 12.25,8 h 0.5 A 0.25,0.25 135 0 0 13,7.75 v -0.5 -1 -1 -1 A 0.25,0.25 135 0 1 13.25,4 h 0.5 A 0.25,0.25 135 0 0 14,3.75 V 3.25 A 0.25,0.25 45 0 0 13.75,3 h -0.5 A 0.25,0.25 45 0 1 13,2.75 V 2.25 A 0.25,0.25 45 0 0 12.75,2 h -0.5 -1 -1 -1 -1 -1 -1 -1 -1 A 0.25,0.25 45 0 1 4,1.75 V 1.25 A 0.25,0.25 45 0 0 3.75,1 H 3.25 A 0.25,0.25 45 0 1 3,0.75 V 0.25 A 0.25,0.25 45 0 0 2.75,0 h -0.5 -1 A 0.25,0.25 135 0 0 1,0.25 Z"
     inkscape:path-effect="#path-effect4308"
     inkscape:original-d="M 1,0 V 1 2 3 H 0 v 1 1 h 1 v 1 1 h 1 v 1 h 1 1 v 1 h 1 v 1 h 1 1 v 1 1 1 1 h 1 1 v -1 -1 -1 h 1 v -1 h 1 V 9 h 1 V 8 h 1 V 7 6 5 4 h 1 V 3 H 13 V 2 H 12 11 10 9 8 7 6 5 4 V 1 H 3 V 0 H 2 Z" />
</svg>
